gortondigitalLight.ufo
<glyph name="exclam" format="2">
  <advance width="980"/>
  <unicode hex="0021"/>
  <outline>
    <contour>
      <point x="70" y="210" type="curve" smooth="yes"/>
      <point x="70" y="326"/>
      <point x="164" y="420"/>
      <point x="280" y="420" type="curve" smooth="yes"/>
      <point x="396" y="420"/>
      <point x="490" y="326"/>
      <point x="490" y="210" type="curve" smooth="yes"/>
      <point x="490" y="94"/>
      <point x="396" y="0"/>
      <point x="280" y="0" type="curve" smooth="yes"/>
      <point x="164" y="0"/>
      <point x="70" y="94"/>
    </contour>
    <contour>
      <point x="105" y="1680" type="curve" smooth="yes"/>
      <point x="105" y="2450" type="line" smooth="yes"/>
      <point x="105" y="2547"/>
      <point x="183" y="2625"/>
      <point x="280" y="2625" type="curve" smooth="yes"/>
      <point x="377" y="2625"/>
      <point x="455" y="2547"/>
      <point x="455" y="2450" type="curve" smooth="yes"/>
      <point x="455" y="1680" type="line" smooth="yes"/>
      <point x="455" y="1676"/>
      <point x="385" y="835"/>
      <point x="384" y="827" type="curve" smooth="yes"/>
      <point x="377" y="774"/>
      <point x="332" y="735"/>
      <point x="280" y="735" type="curve" smooth="yes"/>
      <point x="225" y="735"/>
      <point x="179" y="778"/>
      <point x="175" y="831" type="curve" smooth="yes"/>
      <point x="105" y="1676"/>
      <point x="105" y="1676"/>
    </contour>
  </outline>
</glyph>
<glyph name="quotedbl" format="2">
  <advance width="1750"/>
  <unicode hex="0022"/>
  <outline>
    <contour>
      <point x="105" y="2380" type="curve" smooth="yes"/>
      <point x="105" y="2450" type="line" smooth="yes"/>
      <point x="105" y="2547"/>
      <point x="183" y="2625"/>
      <point x="280" y="2625" type="curve" smooth="yes"/>
      <point x="377" y="2625"/>
      <point x="455" y="2547"/>
      <point x="455" y="2450" type="curve" smooth="yes"/>
      <point x="455" y="2380" type="line" smooth="yes"/>
      <point x="455" y="2371"/>
      <point x="454" y="2362"/>
      <point x="452" y="2354" type="curve" smooth="yes"/>
      <point x="382" y="2074" type="line" smooth="yes"/>
      <point x="371" y="2028"/>
      <point x="329" y="1995"/>
      <point x="280" y="1995" type="curve" smooth="yes"/>
      <point x="231" y="1995"/>
      <point x="189" y="2028"/>
      <point x="178" y="2074" type="curve" smooth="yes"/>
      <point x="108" y="2354" type="line" smooth="yes"/>
      <point x="106" y="2362"/>
      <point x="105" y="2371"/>
    </contour>
    <contour>
      <point x="875" y="2380" type="curve" smooth="yes"/>
      <point x="875" y="2450" type="line" smooth="yes"/>
      <point x="875" y="2547"/>
      <point x="953" y="2625"/>
      <point x="1050" y="2625" type="curve" smooth="yes"/>
      <point x="1147" y="2625"/>
      <point x="1225" y="2547"/>
      <point x="1225" y="2450" type="curve" smooth="yes"/>
      <point x="1225" y="2380" type="line" smooth="yes"/>
      <point x="1225" y="2371"/>
      <point x="1224" y="2362"/>
      <point x="1222" y="2354" type="curve" smooth="yes"/>
      <point x="1152" y="2074" type="line" smooth="yes"/>
      <point x="1140" y="2028"/>
      <point x="1099" y="1995"/>
      <point x="1050" y="1995" type="curve" smooth="yes"/>
      <point x="1001" y="1995"/>
      <point x="960" y="2028"/>
      <point x="948" y="2074" type="curve" smooth="yes"/>
      <point x="878" y="2354" type="line" smooth="yes"/>
      <point x="876" y="2362"/>
      <point x="875" y="2371"/>
    </contour>
  </outline>
</glyph>
<glyph name="numbersign" format="2">
  <advance width="2552"/>
  <unicode hex="0023"/>
  <outline>
    <contour>
      <point x="145" y="756" type="curve" smooth="yes"/>
      <point x="145" y="814"/>
      <point x="192" y="861"/>
      <point x="250" y="861" type="curve" smooth="yes"/>
      <point x="540" y="861" type="line"/>
      <point x="582" y="1659" type="line"/>
      <point x="302" y="1659" type="line" smooth="yes"/>
      <point x="244" y="1659"/>
      <point x="197" y="1706"/>
      <point x="197" y="1764" type="curve" smooth="yes"/>
      <point x="197" y="1822"/>
      <point x="244" y="1869"/>
      <point x="302" y="1869" type="curve" smooth="yes"/>
      <point x="592" y="1870" type="line"/>
      <point x="627" y="2526" type="line" smooth="yes"/>
      <point x="630" y="2582"/>
      <point x="676" y="2625"/>
      <point x="732" y="2625" type="curve" smooth="yes"/>
      <point x="790" y="2625"/>
      <point x="837" y="2578"/>
      <point x="837" y="2520" type="curve" smooth="yes"/>
      <point x="837" y="2517"/>
      <point x="837" y="2517"/>
      <point x="803" y="1869" type="curve"/>
      <point x="1433" y="1869" type="line"/>
      <point x="1467" y="2525" type="line" smooth="yes"/>
      <point x="1470" y="2581"/>
      <point x="1516" y="2625"/>
      <point x="1572" y="2625" type="curve" smooth="yes"/>
      <point x="1630" y="2625"/>
      <point x="1677" y="2578"/>
      <point x="1677" y="2520" type="curve" smooth="yes"/>
      <point x="1677" y="2517"/>
      <point x="1677" y="2518"/>
      <point x="1644" y="1870" type="curve"/>
      <point x="1922" y="1869" type="line" smooth="yes"/>
      <point x="1980" y="1869"/>
      <point x="2027" y="1822"/>
      <point x="2027" y="1764" type="curve" smooth="yes"/>
      <point x="2027" y="1706"/>
      <point x="1980" y="1659"/>
      <point x="1922" y="1659" type="curve" smooth="yes"/>
      <point x="1632" y="1659" type="line"/>
      <point x="1590" y="861" type="line"/>
      <point x="1870" y="861" type="line" smooth="yes"/>
      <point x="1928" y="861"/>
      <point x="1975" y="814"/>
      <point x="1975" y="756" type="curve" smooth="yes"/>
      <point x="1975" y="698"/>
      <point x="1928" y="651"/>
      <point x="1870" y="651" type="curve" smooth="yes"/>
      <point x="1580" y="650" type="line"/>
      <point x="1545" y="-6" type="line" smooth="yes"/>
      <point x="1542" y="-62"/>
      <point x="1496" y="-105"/>
      <point x="1440" y="-105" type="curve" smooth="yes"/>
      <point x="1382" y="-105"/>
      <point x="1335" y="-58"/>
      <point x="1335" y="-0" type="curve" smooth="yes"/>
      <point x="1335" y="3"/>
      <point x="1335" y="2"/>
      <point x="1369" y="651" type="curve"/>
      <point x="739" y="651" type="line"/>
      <point x="705" y="-6" type="line" smooth="yes"/>
      <point x="702" y="-62"/>
      <point x="656" y="-105"/>
      <point x="600" y="-105" type="curve" smooth="yes"/>
      <point x="542" y="-105"/>
      <point x="495" y="-58"/>
      <point x="495" y="-0" type="curve" smooth="yes"/>
      <point x="495" y="3"/>
      <point x="495" y="2"/>
      <point x="528" y="650" type="curve"/>
      <point x="250" y="651" type="line" smooth="yes"/>
      <point x="192" y="651"/>
      <point x="145" y="698"/>
    </contour>
    <contour>
      <point x="750" y="861" type="line"/>
      <point x="1380" y="861" type="line"/>
      <point x="1422" y="1659" type="line"/>
      <point x="792" y="1659" type="line"/>
    </contour>
  </outline>
</glyph>
<glyph name="dollar" format="2">
  <advance width="2561"/>
  <unicode hex="0024"/>
  <outline>
    <contour>
      <point x="105" y="750" type="curve" smooth="yes"/>
      <point x="105" y="808"/>
      <point x="152" y="855"/>
      <point x="210" y="855" type="curve" smooth="yes"/>
      <point x="259" y="855"/>
      <point x="300" y="821"/>
      <point x="312" y="776" type="curve" smooth="yes"/>
      <point x="362" y="582"/>
      <point x="362" y="582"/>
      <point x="362" y="580" type="curve" smooth="yes"/>
      <point x="412" y="352"/>
      <point x="638" y="171"/>
      <point x="922" y="120" type="curve"/>
      <point x="948" y="1244" type="line"/>
      <point x="511" y="1273"/>
      <point x="169" y="1570"/>
      <point x="169" y="1933" type="curve" smooth="yes"/>
      <point x="169" y="2304"/>
      <point x="528" y="2608"/>
      <point x="980" y="2624" type="curve"/>
      <point x="984" y="2802" type="line" smooth="yes"/>
      <point x="985" y="2859"/>
      <point x="1032" y="2905"/>
      <point x="1089" y="2905" type="curve" smooth="yes"/>
      <point x="1147" y="2905"/>
      <point x="1194" y="2858"/>
      <point x="1194" y="2800" type="curve" smooth="yes"/>
      <point x="1194" y="2798"/>
      <point x="1191" y="2708"/>
      <point x="1189" y="2611" type="curve"/>
      <point x="1295" y="2593"/>
      <point x="1623" y="2516"/>
      <point x="1789" y="2223" type="curve" smooth="yes"/>
      <point x="1820" y="2169"/>
      <point x="1867" y="1981"/>
      <point x="1867" y="1933" type="curve" smooth="yes"/>
      <point x="1867" y="1875"/>
      <point x="1820" y="1828"/>
      <point x="1762" y="1828" type="curve" smooth="yes"/>
      <point x="1709" y="1828"/>
      <point x="1665" y="1867"/>
      <point x="1658" y="1918" type="curve" smooth="yes"/>
      <point x="1658" y="1920"/>
      <point x="1640" y="2039"/>
      <point x="1604" y="2124" type="curve"/>
      <point x="1571" y="2181"/>
      <point x="1455" y="2342"/>
      <point x="1184" y="2398" type="curve"/>
      <point x="1163" y="1450" type="line"/>
      <point x="1652" y="1419"/>
      <point x="2036" y="1082"/>
      <point x="2036" y="673" type="curve" smooth="yes"/>
      <point x="2036" y="254"/>
      <point x="1633" y="-87"/>
      <point x="1127" y="-104" type="curve"/>
      <point x="1123" y="-282" type="line" smooth="yes"/>
      <point x="1122" y="-339"/>
      <point x="1075" y="-385"/>
      <point x="1018" y="-385" type="curve" smooth="yes"/>
      <point x="960" y="-385"/>
      <point x="913" y="-338"/>
      <point x="913" y="-280" type="curve" smooth="yes"/>
      <point x="913" y="-278"/>
      <point x="915" y="-158"/>
      <point x="917" y="-92" type="curve"/>
      <point x="527" y="-34"/>
      <point x="227" y="218"/>
      <point x="157" y="533" type="curve"/>
      <point x="108" y="724" type="line" smooth="yes"/>
      <point x="106" y="732"/>
      <point x="105" y="741"/>
    </contour>
    <contour>
      <point x="379" y="1933" type="curve" smooth="yes"/>
      <point x="379" y="1693"/>
      <point x="622" y="1480"/>
      <point x="953" y="1454" type="curve"/>
      <point x="975" y="2414" type="line"/>
      <point x="644" y="2397"/>
      <point x="379" y="2186"/>
    </contour>
    <contour>
      <point x="1132" y="106" type="line"/>
      <point x="1517" y="124"/>
      <point x="1826" y="372"/>
      <point x="1826" y="673" type="curve" smooth="yes"/>
      <point x="1826" y="958"/>
      <point x="1542" y="1211"/>
      <point x="1158" y="1239" type="curve"/>
    </contour>
  </outline>
</glyph>
<glyph name="percent" format="2">
  <advance width="3360"/>
  <unicode hex="0025"/>
  <outline>
    <contour>
      <point x="105" y="1851" type="curve" smooth="yes"/>
      <point x="105" y="2281"/>
      <point x="366" y="2625"/>
      <point x="691" y="2625" type="curve" smooth="yes"/>
      <point x="1016" y="2625"/>
      <point x="1277" y="2281"/>
      <point x="1277" y="1851" type="curve" smooth="yes"/>
      <point x="1277" y="1421"/>
      <point x="1016" y="1077"/>
      <point x="691" y="1077" type="curve" smooth="yes"/>
      <point x="366" y="1077"/>
      <point x="105" y="1421"/>
    </contour>
    <contour>
      <point x="105" y="0" type="curve" smooth="yes"/>
      <point x="105" y="29"/>
      <point x="117" y="55"/>
      <point x="136" y="74" type="curve" smooth="yes"/>
      <point x="2656" y="2594" type="line" smooth="yes"/>
      <point x="2675" y="2613"/>
      <point x="2701" y="2625"/>
      <point x="2730" y="2625" type="curve" smooth="yes"/>
      <point x="2788" y="2625"/>
      <point x="2835" y="2578"/>
      <point x="2835" y="2520" type="curve" smooth="yes"/>
      <point x="2835" y="2491"/>
      <point x="2823" y="2465"/>
      <point x="2804" y="2446" type="curve" smooth="yes"/>
      <point x="284" y="-74" type="line" smooth="yes"/>
      <point x="265" y="-93"/>
      <point x="239" y="-105"/>
      <point x="210" y="-105" type="curve" smooth="yes"/>
      <point x="152" y="-105"/>
      <point x="105" y="-58"/>
    </contour>
    <contour>
      <point x="315" y="1851" type="curve" smooth="yes"/>
      <point x="315" y="1541"/>
      <point x="489" y="1287"/>
      <point x="691" y="1287" type="curve" smooth="yes"/>
      <point x="893" y="1287"/>
      <point x="1067" y="1541"/>
      <point x="1067" y="1851" type="curve" smooth="yes"/>
      <point x="1067" y="2161"/>
      <point x="893" y="2415"/>
      <point x="691" y="2415" type="curve" smooth="yes"/>
      <point x="489" y="2415"/>
      <point x="315" y="2161"/>
    </contour>
    <contour>
      <point x="1663" y="669" type="curve" smooth="yes"/>
      <point x="1663" y="1099"/>
      <point x="1924" y="1443"/>
      <point x="2249" y="1443" type="curve" smooth="yes"/>
      <point x="2574" y="1443"/>
      <point x="2835" y="1099"/>
      <point x="2835" y="669" type="curve" smooth="yes"/>
      <point x="2835" y="239"/>
      <point x="2574" y="-105"/>
      <point x="2249" y="-105" type="curve" smooth="yes"/>
      <point x="1924" y="-105"/>
      <point x="1663" y="239"/>
    </contour>
    <contour>
      <point x="1873" y="669" type="curve" smooth="yes"/>
      <point x="1873" y="359"/>
      <point x="2047" y="105"/>
      <point x="2249" y="105" type="curve" smooth="yes"/>
      <point x="2451" y="105"/>
      <point x="2625" y="359"/>
      <point x="2625" y="669" type="curve" smooth="yes"/>
      <point x="2625" y="979"/>
      <point x="2451" y="1233"/>
      <point x="2249" y="1233" type="curve" smooth="yes"/>
      <point x="2047" y="1233"/>
      <point x="1873" y="979"/>
    </contour>
  </outline>
</glyph>
<glyph name="ampersand" format="2">
  <advance width="2808"/>
  <unicode hex="0026"/>
  <outline>
    <contour>
      <point x="1628" y="323" type="curve"/>
      <point x="1519" y="78"/>
      <point x="1371" y="-105"/>
      <point x="974" y="-105" type="curve" smooth="yes"/>
      <point x="532" y="-105"/>
      <point x="105" y="226"/>
      <point x="105" y="668" type="curve" smooth="yes"/>
      <point x="105" y="1075"/>
      <point x="447" y="1325"/>
      <point x="724" y="1496" type="curve"/>
      <point x="668" y="1621"/>
      <point x="575" y="1863"/>
      <point x="575" y="2072" type="curve" smooth="yes"/>
      <point x="575" y="2389"/>
      <point x="762" y="2625"/>
      <point x="1010" y="2625" type="curve" smooth="yes"/>
      <point x="1302" y="2625"/>
      <point x="1529" y="2406"/>
      <point x="1529" y="2132" type="curve" smooth="yes"/>
      <point x="1529" y="1849"/>
      <point x="1265" y="1587"/>
      <point x="994" y="1415" type="curve"/>
      <point x="1049" y="1312"/>
      <point x="1207" y="1045"/>
      <point x="1552" y="690" type="curve"/>
      <point x="1607" y="821"/>
      <point x="1668" y="948"/>
      <point x="1754" y="1078" type="curve" smooth="yes"/>
      <point x="1773" y="1106"/>
      <point x="1805" y="1125"/>
      <point x="1842" y="1125" type="curve" smooth="yes"/>
      <point x="1900" y="1125"/>
      <point x="1947" y="1078"/>
      <point x="1947" y="1020" type="curve" smooth="yes"/>
      <point x="1947" y="940"/>
      <point x="1889" y="967"/>
      <point x="1713" y="530" type="curve"/>
      <point x="1861" y="390"/>
      <point x="2036" y="241"/>
      <point x="2242" y="84" type="curve" smooth="yes"/>
      <point x="2242" y="83"/>
      <point x="2283" y="56"/>
      <point x="2283" y="-0" type="curve" smooth="yes"/>
      <point x="2283" y="-58"/>
      <point x="2236" y="-105"/>
      <point x="2178" y="-105" type="curve" smooth="yes"/>
      <point x="2154" y="-105"/>
      <point x="2132" y="-97"/>
      <point x="2114" y="-84" type="curve" smooth="yes"/>
      <point x="1929" y="57"/>
      <point x="1768" y="194"/>
    </contour>
    <contour>
      <point x="315" y="668" type="curve" smooth="yes"/>
      <point x="315" y="344"/>
      <point x="649" y="105"/>
      <point x="974" y="105" type="curve" smooth="yes"/>
      <point x="1288" y="105"/>
      <point x="1365" y="232"/>
      <point x="1466" y="478" type="curve"/>
      <point x="1289" y="654"/>
      <point x="998" y="968"/>
      <point x="815" y="1305" type="curve"/>
      <point x="535" y="1130"/>
      <point x="315" y="939"/>
    </contour>
    <contour>
      <point x="905" y="1607" type="curve"/>
      <point x="996" y="1667"/>
      <point x="1319" y="1897"/>
      <point x="1319" y="2132" type="curve" smooth="yes"/>
      <point x="1319" y="2296"/>
      <point x="1180" y="2415"/>
      <point x="1010" y="2415" type="curve" smooth="yes"/>
      <point x="871" y="2415"/>
      <point x="785" y="2250"/>
      <point x="785" y="2072" type="curve" smooth="yes"/>
      <point x="785" y="2006"/>
      <point x="800" y="1853"/>
    </contour>
  </outline>
</glyph>
<glyph name="parenleft" format="2">
  <advance width="1680"/>
  <unicode hex="0028"/>
  <outline>
    <contour>
      <point x="105" y="1260" type="curve" smooth="yes"/>
      <point x="105" y="2066"/>
      <point x="477" y="2752"/>
      <point x="1003" y="3017" type="curve" smooth="yes"/>
      <point x="1017" y="3024"/>
      <point x="1033" y="3028"/>
      <point x="1050" y="3028" type="curve" smooth="yes"/>
      <point x="1108" y="3028"/>
      <point x="1155" y="2981"/>
      <point x="1155" y="2923" type="curve" smooth="yes"/>
      <point x="1155" y="2883"/>
      <point x="1133" y="2847"/>
      <point x="1097" y="2829" type="curve" smooth="yes"/>
      <point x="644" y="2601"/>
      <point x="315" y="1985"/>
      <point x="315" y="1260" type="curve" smooth="yes"/>
      <point x="315" y="537"/>
      <point x="643" y="-81"/>
      <point x="1097" y="-309" type="curve" smooth="yes"/>
      <point x="1131" y="-326"/>
      <point x="1155" y="-362"/>
      <point x="1155" y="-403" type="curve" smooth="yes"/>
      <point x="1155" y="-461"/>
      <point x="1108" y="-508"/>
      <point x="1050" y="-508" type="curve" smooth="yes"/>
      <point x="1033" y="-508"/>
      <point x="1017" y="-504"/>
      <point x="1003" y="-497" type="curve" smooth="yes"/>
      <point x="477" y="-233"/>
      <point x="105" y="454"/>
    </contour>
  </outline>
</glyph>
<glyph name="parenright" format="2">
  <advance width="1680"/>
  <unicode hex="0029"/>
  <outline>
    <contour>
      <point x="105" y="-403" type="curve" smooth="yes"/>
      <point x="105" y="-363"/>
      <point x="127" y="-327"/>
      <point x="163" y="-309" type="curve" smooth="yes"/>
      <point x="616" y="-81"/>
      <point x="945" y="535"/>
      <point x="945" y="1260" type="curve" smooth="yes"/>
      <point x="945" y="1983"/>
      <point x="617" y="2601"/>
      <point x="163" y="2829" type="curve" smooth="yes"/>
      <point x="129" y="2846"/>
      <point x="105" y="2882"/>
      <point x="105" y="2923" type="curve" smooth="yes"/>
      <point x="105" y="2981"/>
      <point x="152" y="3028"/>
      <point x="210" y="3028" type="curve" smooth="yes"/>
      <point x="227" y="3028"/>
      <point x="243" y="3024"/>
      <point x="257" y="3017" type="curve" smooth="yes"/>
      <point x="783" y="2753"/>
      <point x="1155" y="2066"/>
      <point x="1155" y="1260" type="curve" smooth="yes"/>
      <point x="1155" y="454"/>
      <point x="783" y="-232"/>
      <point x="257" y="-497" type="curve" smooth="yes"/>
      <point x="243" y="-504"/>
      <point x="227" y="-508"/>
      <point x="210" y="-508" type="curve" smooth="yes"/>
      <point x="152" y="-508"/>
      <point x="105" y="-461"/>
    </contour>
  </outline>
</glyph>
<glyph name="asterisk" format="2">
  <advance width="1984"/>
  <unicode hex="002A"/>
  <outline>
    <contour>
      <point x="343" y="1497" type="curve" smooth="yes"/>
      <point x="344" y="1498"/>
      <point x="430" y="1617"/>
      <point x="610" y="1864" type="curve"/>
      <point x="177" y="2005" type="line" smooth="yes"/>
      <point x="135" y="2019"/>
      <point x="105" y="2058"/>
      <point x="105" y="2105" type="curve" smooth="yes"/>
      <point x="105" y="2163"/>
      <point x="152" y="2210"/>
      <point x="210" y="2210" type="curve" smooth="yes"/>
      <point x="221" y="2210"/>
      <point x="233" y="2208"/>
      <point x="243" y="2205" type="curve"/>
      <point x="675" y="2064" type="line"/>
      <point x="676" y="2520" type="line" smooth="yes"/>
      <point x="676" y="2578"/>
      <point x="723" y="2625"/>
      <point x="781" y="2625" type="curve" smooth="yes"/>
      <point x="839" y="2625"/>
      <point x="886" y="2578"/>
      <point x="886" y="2520" type="curve" smooth="yes"/>
      <point x="886" y="2064" type="line"/>
      <point x="1322" y="2205" type="line" smooth="yes"/>
      <point x="1332" y="2208"/>
      <point x="1343" y="2210"/>
      <point x="1354" y="2210" type="curve" smooth="yes"/>
      <point x="1412" y="2210"/>
      <point x="1459" y="2163"/>
      <point x="1459" y="2105" type="curve" smooth="yes"/>
      <point x="1459" y="2058"/>
      <point x="1428" y="2019"/>
      <point x="1386" y="2005" type="curve" smooth="yes"/>
      <point x="952" y="1865" type="line"/>
      <point x="1219" y="1497" type="line" smooth="yes"/>
      <point x="1232" y="1480"/>
      <point x="1239" y="1458"/>
      <point x="1239" y="1435" type="curve" smooth="yes"/>
      <point x="1239" y="1377"/>
      <point x="1192" y="1330"/>
      <point x="1134" y="1330" type="curve" smooth="yes"/>
      <point x="1078" y="1330"/>
      <point x="1049" y="1372"/>
      <point x="1049" y="1373" type="curve" smooth="yes"/>
      <point x="781" y="1741" type="line"/>
      <point x="513" y="1373" type="line" smooth="yes"/>
      <point x="494" y="1347"/>
      <point x="463" y="1330"/>
      <point x="428" y="1330" type="curve" smooth="yes"/>
      <point x="370" y="1330"/>
      <point x="323" y="1377"/>
      <point x="323" y="1435" type="curve" smooth="yes"/>
      <point x="323" y="1458"/>
      <point x="330" y="1479"/>
    </contour>
  </outline>
</glyph>
<glyph name="plus" format="2">
  <advance width="2040"/>
  <unicode hex="002B"/>
  <outline>
    <contour>
      <point x="105" y="1338" type="curve" smooth="yes"/>
      <point x="105" y="1396"/>
      <point x="152" y="1443"/>
      <point x="210" y="1443" type="curve" smooth="yes"/>
      <point x="704" y="1443" type="line"/>
      <point x="705" y="1930" type="line" smooth="yes"/>
      <point x="705" y="1988"/>
      <point x="752" y="2035"/>
      <point x="810" y="2035" type="curve" smooth="yes"/>
      <point x="868" y="2035"/>
      <point x="915" y="1988"/>
      <point x="915" y="1930" type="curve" smooth="yes"/>
      <point x="915" y="1443" type="line"/>
      <point x="1080" y="1443"/>
      <point x="1245" y="1443"/>
      <point x="1410" y="1443" type="curve" smooth="yes"/>
      <point x="1468" y="1443"/>
      <point x="1515" y="1396"/>
      <point x="1515" y="1338" type="curve" smooth="yes"/>
      <point x="1515" y="1280"/>
      <point x="1468" y="1233"/>
      <point x="1410" y="1233" type="curve" smooth="yes"/>
      <point x="916" y="1233" type="line"/>
      <point x="916" y="1061"/>
      <point x="915" y="738"/>
      <point x="915" y="738" type="curve" smooth="yes"/>
      <point x="915" y="680"/>
      <point x="868" y="633"/>
      <point x="810" y="633" type="curve" smooth="yes"/>
      <point x="752" y="633"/>
      <point x="705" y="680"/>
      <point x="705" y="738" type="curve" smooth="yes"/>
      <point x="705" y="1233" type="line"/>
      <point x="210" y="1233" type="line" smooth="yes"/>
      <point x="152" y="1233"/>
      <point x="105" y="1280"/>
    </contour>
  </outline>
</glyph>
<glyph name="comma" format="2">
  <advance width="1050"/>
  <unicode hex="002C"/>
  <outline>
    <contour>
      <point x="79" y="-210" type="curve" smooth="yes"/>
      <point x="79" y="-129"/>
      <point x="149" y="-127"/>
      <point x="243" y="13" type="curve"/>
      <point x="162" y="42"/>
      <point x="105" y="119"/>
      <point x="105" y="210" type="curve" smooth="yes"/>
      <point x="105" y="326"/>
      <point x="199" y="420"/>
      <point x="315" y="420" type="curve" smooth="yes"/>
      <point x="431" y="420"/>
      <point x="525" y="326"/>
      <point x="525" y="210" type="curve" smooth="yes"/>
      <point x="525" y="-20"/>
      <point x="294" y="-315"/>
      <point x="184" y="-315" type="curve" smooth="yes"/>
      <point x="126" y="-315"/>
      <point x="79" y="-268"/>
    </contour>
  </outline>
</glyph>
<glyph name="hyphen" format="2">
  <advance width="2040"/>
  <unicode hex="002D"/>
  <outline>
    <contour>
      <point x="105" y="1339" type="curve" smooth="yes"/>
      <point x="105" y="1397"/>
      <point x="152" y="1444"/>
      <point x="210" y="1444" type="curve" smooth="yes"/>
      <point x="1410" y="1444" type="line" smooth="yes"/>
      <point x="1468" y="1444"/>
      <point x="1515" y="1397"/>
      <point x="1515" y="1339" type="curve" smooth="yes"/>
      <point x="1515" y="1281"/>
      <point x="1468" y="1234"/>
      <point x="1410" y="1234" type="curve" smooth="yes"/>
      <point x="210" y="1234" type="line" smooth="yes"/>
      <point x="152" y="1234"/>
      <point x="105" y="1281"/>
    </contour>
  </outline>
</glyph>
<glyph name="period" format="2">
  <advance width="1050"/>
  <unicode hex="002E"/>
  <outline>
    <contour>
      <point x="105" y="210" type="curve" smooth="yes"/>
      <point x="105" y="326"/>
      <point x="199" y="420"/>
      <point x="315" y="420" type="curve" smooth="yes"/>
      <point x="431" y="420"/>
      <point x="525" y="326"/>
      <point x="525" y="210" type="curve" smooth="yes"/>
      <point x="525" y="94"/>
      <point x="431" y="0"/>
      <point x="315" y="0" type="curve" smooth="yes"/>
      <point x="199" y="0"/>
      <point x="105" y="94"/>
    </contour>
  </outline>
</glyph>
<glyph name="slash" format="2">
  <advance width="2470"/>
  <unicode hex="002F"/>
  <outline>
    <contour>
      <point x="105" y="-140" type="curve" smooth="yes"/>
      <point x="105" y="-121"/>
      <point x="110" y="-102"/>
      <point x="119" y="-87" type="curve" smooth="yes"/>
      <point x="1749" y="2713" type="line" smooth="yes"/>
      <point x="1767" y="2744"/>
      <point x="1801" y="2765"/>
      <point x="1840" y="2765" type="curve" smooth="yes"/>
      <point x="1898" y="2765"/>
      <point x="1945" y="2718"/>
      <point x="1945" y="2660" type="curve" smooth="yes"/>
      <point x="1945" y="2641"/>
      <point x="1940" y="2623"/>
      <point x="1931" y="2607" type="curve" smooth="yes"/>
      <point x="301" y="-193" type="line" smooth="yes"/>
      <point x="283" y="-224"/>
      <point x="249" y="-245"/>
      <point x="210" y="-245" type="curve" smooth="yes"/>
      <point x="152" y="-245"/>
      <point x="105" y="-198"/>
    </contour>
  </outline>
</glyph>
<glyph name="zero" format="2">
  <advance width="2650"/>
  <unicode hex="0030"/>
  <outline>
    <contour>
      <point x="105" y="1260" type="curve" smooth="yes"/>
      <point x="105" y="2015"/>
      <point x="556" y="2625"/>
      <point x="1115" y="2625" type="curve" smooth="yes"/>
      <point x="1674" y="2625"/>
      <point x="2125" y="2015"/>
      <point x="2125" y="1260" type="curve" smooth="yes"/>
      <point x="2125" y="505"/>
      <point x="1674" y="-105"/>
      <point x="1115" y="-105" type="curve" smooth="yes"/>
      <point x="556" y="-105"/>
      <point x="105" y="505"/>
    </contour>
    <contour>
      <point x="315" y="1260" type="curve" smooth="yes"/>
      <point x="315" y="624"/>
      <point x="678" y="105"/>
      <point x="1115" y="105" type="curve" smooth="yes"/>
      <point x="1552" y="105"/>
      <point x="1915" y="624"/>
      <point x="1915" y="1260" type="curve" smooth="yes"/>
      <point x="1915" y="1896"/>
      <point x="1552" y="2415"/>
      <point x="1115" y="2415" type="curve" smooth="yes"/>
      <point x="678" y="2415"/>
      <point x="315" y="1896"/>
    </contour>
  </outline>
</glyph>
<glyph name="two" format="2">
  <advance width="2470"/>
  <unicode hex="0032"/>
  <outline>
    <contour>
      <point x="105" y="0" type="curve" smooth="yes"/>
      <point x="105" y="1"/>
      <point x="105" y="3"/>
      <point x="105" y="4" type="curve" smooth="yes"/>
      <point x="134" y="836"/>
      <point x="622" y="1117"/>
      <point x="1118" y="1402" type="curve" smooth="yes"/>
      <point x="1456" y="1597"/>
      <point x="1594" y="1677"/>
      <point x="1594" y="1965" type="curve" smooth="yes"/>
      <point x="1594" y="2215"/>
      <point x="1299" y="2416"/>
      <point x="940" y="2416" type="curve" smooth="yes"/>
      <point x="619" y="2416"/>
      <point x="351" y="2247"/>
      <point x="333" y="2046" type="curve" smooth="yes"/>
      <point x="333" y="2046"/>
      <point x="317" y="1865"/>
      <point x="315" y="1839" type="curve" smooth="yes"/>
      <point x="312" y="1783"/>
      <point x="266" y="1739"/>
      <point x="210" y="1739" type="curve" smooth="yes"/>
      <point x="152" y="1739"/>
      <point x="105" y="1786"/>
      <point x="105" y="1844" type="curve" smooth="yes"/>
      <point x="105" y="1845" type="line" smooth="yes"/>
      <point x="105" y="1850"/>
      <point x="105" y="1849"/>
      <point x="123" y="2064" type="curve" smooth="yes"/>
      <point x="150" y="2372"/>
      <point x="495" y="2626"/>
      <point x="940" y="2626" type="curve" smooth="yes"/>
      <point x="1420" y="2626"/>
      <point x="1804" y="2335"/>
      <point x="1804" y="1965" type="curve" smooth="yes"/>
      <point x="1804" y="1555"/>
      <point x="1573" y="1422"/>
      <point x="1222" y="1220" type="curve" smooth="yes"/>
      <point x="758" y="953"/>
      <point x="382" y="733"/>
      <point x="322" y="105" type="curve"/>
      <point x="1840" y="105" type="line" smooth="yes"/>
      <point x="1898" y="105"/>
      <point x="1945" y="58"/>
      <point x="1945" y="0" type="curve" smooth="yes"/>
      <point x="1945" y="-58"/>
      <point x="1898" y="-105"/>
      <point x="1840" y="-105" type="curve" smooth="yes"/>
      <point x="210" y="-105" type="line" smooth="yes"/>
      <point x="152" y="-105"/>
      <point x="105" y="-58"/>
    </contour>
  </outline>
</glyph>
<glyph name="three" format="2">
  <advance width="2595"/>
  <unicode hex="0033"/>
  <outline>
    <contour>
      <point x="1287" y="1459" type="curve" smooth="yes"/>
      <point x="910" y="1459"/>
      <point x="949" y="1395"/>
      <point x="865" y="1395" type="curve" smooth="yes"/>
      <point x="807" y="1395"/>
      <point x="760" y="1443"/>
      <point x="760" y="1500" type="curve" smooth="yes"/>
      <point x="760" y="1514"/>
      <point x="763" y="1555"/>
      <point x="802" y="1584" type="curve" smooth="yes"/>
      <point x="1253" y="1920"/>
      <point x="1433" y="2138"/>
      <point x="1531" y="2415" type="curve"/>
      <point x="273" y="2415" type="line" smooth="yes"/>
      <point x="215" y="2415"/>
      <point x="168" y="2462"/>
      <point x="168" y="2520" type="curve" smooth="yes"/>
      <point x="168" y="2578"/>
      <point x="215" y="2625"/>
      <point x="273" y="2625" type="curve" smooth="yes"/>
      <point x="1673" y="2625" type="line" smooth="yes"/>
      <point x="1732" y="2625"/>
      <point x="1778" y="2577"/>
      <point x="1778" y="2520" type="curve" smooth="yes"/>
      <point x="1778" y="2514"/>
      <point x="1778" y="2504"/>
      <point x="1775" y="2493" type="curve" smooth="yes"/>
      <point x="1690" y="2167"/>
      <point x="1543" y="1935"/>
      <point x="1243" y="1669" type="curve"/>
      <point x="1258" y="1669"/>
      <point x="1272" y="1669"/>
      <point x="1287" y="1669" type="curve" smooth="yes"/>
      <point x="1692" y="1669"/>
      <point x="2070" y="1337"/>
      <point x="2070" y="836" type="curve" smooth="yes"/>
      <point x="2070" y="312"/>
      <point x="1665" y="-105"/>
      <point x="1085" y="-105" type="curve" smooth="yes"/>
      <point x="879" y="-105"/>
      <point x="420" y="-50"/>
      <point x="207" y="415" type="curve" smooth="yes"/>
      <point x="206" y="418"/>
      <point x="105" y="640"/>
      <point x="105" y="675" type="curve" smooth="yes"/>
      <point x="105" y="733"/>
      <point x="152" y="780"/>
      <point x="210" y="780" type="curve" smooth="yes"/>
      <point x="253" y="780"/>
      <point x="290" y="754"/>
      <point x="306" y="717" type="curve" smooth="yes"/>
      <point x="399" y="502" type="line"/>
      <point x="441" y="410"/>
      <point x="600" y="105"/>
      <point x="1085" y="105" type="curve" smooth="yes"/>
      <point x="1545" y="105"/>
      <point x="1860" y="424"/>
      <point x="1860" y="836" type="curve" smooth="yes"/>
      <point x="1860" y="1227"/>
      <point x="1570" y="1459"/>
    </contour>
  </outline>
</glyph>
<glyph name="four" format="2">
  <advance width="2730"/>
  <unicode hex="0034"/>
  <outline>
    <contour>
      <point x="105" y="1145" type="line" smooth="yes"/>
      <point x="105" y="1168"/>
      <point x="113" y="1191"/>
      <point x="127" y="1209" type="curve" smooth="yes"/>
      <point x="1187" y="2584" type="line" smooth="yes"/>
      <point x="1207" y="2610"/>
      <point x="1238" y="2625"/>
      <point x="1270" y="2625" type="curve" smooth="yes"/>
      <point x="1575" y="2625" type="line" smooth="yes"/>
      <point x="1633" y="2625"/>
      <point x="1680" y="2578"/>
      <point x="1680" y="2520" type="curve" smooth="yes"/>
      <point x="1680" y="993" type="line"/>
      <point x="2100" y="993" type="line" smooth="yes"/>
      <point x="2158" y="993"/>
      <point x="2205" y="946"/>
      <point x="2205" y="888" type="curve" smooth="yes"/>
      <point x="2205" y="830"/>
      <point x="2158" y="783"/>
      <point x="2100" y="783" type="curve" smooth="yes"/>
      <point x="1680" y="783" type="line"/>
      <point x="1680" y="0" type="line" smooth="yes"/>
      <point x="1680" y="-58"/>
      <point x="1633" y="-105"/>
      <point x="1575" y="-105" type="curve" smooth="yes"/>
      <point x="1517" y="-105"/>
      <point x="1470" y="-58"/>
      <point x="1470" y="0" type="curve" smooth="yes"/>
      <point x="1470" y="783" type="line"/>
      <point x="210" y="783" type="line" smooth="yes"/>
      <point x="151" y="783"/>
      <point x="105" y="831"/>
      <point x="105" y="888" type="curve" smooth="yes"/>
    </contour>
    <contour>
      <point x="315" y="993" type="line"/>
      <point x="1470" y="993" type="line"/>
      <point x="1470" y="2415" type="line"/>
      <point x="1322" y="2415" type="line"/>
      <point x="315" y="1109" type="line"/>
    </contour>
  </outline>
</glyph>
<glyph name="five" format="2">
  <advance width="2465"/>
  <unicode hex="0035"/>
  <outline>
    <contour>
      <point x="105" y="502" type="curve"/>
      <point x="105" y="503" type="line"/>
      <point x="105" y="561"/>
      <point x="152" y="608"/>
      <point x="210" y="608" type="curve" smooth="yes"/>
      <point x="264" y="608"/>
      <point x="269" y="600"/>
      <point x="353" y="480" type="curve" smooth="yes"/>
      <point x="506" y="261"/>
      <point x="728" y="105"/>
      <point x="995" y="105" type="curve" smooth="yes"/>
      <point x="1401" y="105"/>
      <point x="1730" y="434"/>
      <point x="1730" y="840" type="curve" smooth="yes"/>
      <point x="1730" y="1246"/>
      <point x="1401" y="1575"/>
      <point x="995" y="1575" type="curve" smooth="yes"/>
      <point x="753" y="1575"/>
      <point x="525" y="1451"/>
      <point x="393" y="1262" type="curve" smooth="yes"/>
      <point x="386" y="1251"/>
      <point x="358" y="1217"/>
      <point x="307" y="1217" type="curve" smooth="yes"/>
      <point x="249" y="1217"/>
      <point x="202" y="1264"/>
      <point x="202" y="1322" type="curve" smooth="yes"/>
      <point x="202" y="1327"/>
      <point x="202" y="1332"/>
      <point x="203" y="1337" type="curve" smooth="yes"/>
      <point x="371" y="2535" type="line" smooth="yes"/>
      <point x="378" y="2587"/>
      <point x="423" y="2625"/>
      <point x="475" y="2625" type="curve" smooth="yes"/>
      <point x="1595" y="2625" type="line" smooth="yes"/>
      <point x="1653" y="2625"/>
      <point x="1700" y="2578"/>
      <point x="1700" y="2520" type="curve" smooth="yes"/>
      <point x="1700" y="2462"/>
      <point x="1653" y="2415"/>
      <point x="1595" y="2415" type="curve" smooth="yes"/>
      <point x="566" y="2415" type="line"/>
      <point x="454" y="1614" type="line"/>
      <point x="609" y="1722"/>
      <point x="797" y="1785"/>
      <point x="995" y="1785" type="curve" smooth="yes"/>
      <point x="1517" y="1785"/>
      <point x="1940" y="1362"/>
      <point x="1940" y="840" type="curve" smooth="yes"/>
      <point x="1940" y="318"/>
      <point x="1517" y="-105"/>
      <point x="995" y="-105" type="curve" smooth="yes"/>
      <point x="640" y="-105"/>
      <point x="360" y="104"/>
      <point x="181" y="360" type="curve" smooth="yes"/>
      <point x="124" y="442" type="line" smooth="yes"/>
      <point x="112" y="460"/>
      <point x="105" y="480"/>
    </contour>
  </outline>
</glyph>
<glyph name="six" format="2">
  <advance width="2507"/>
  <unicode hex="0036"/>
  <outline>
    <contour>
      <point x="105" y="1303" type="curve" smooth="yes"/>
      <point x="105" y="1544"/>
      <point x="143" y="2011"/>
      <point x="490" y="2354" type="curve" smooth="yes"/>
      <point x="690" y="2552"/>
      <point x="870" y="2626"/>
      <point x="1169" y="2626" type="curve" smooth="yes"/>
      <point x="1224" y="2626"/>
      <point x="1611" y="2615"/>
      <point x="1834" y="2302" type="curve" smooth="yes"/>
      <point x="1835" y="2300"/>
      <point x="1948" y="2120"/>
      <point x="1948" y="2075" type="curve" smooth="yes"/>
      <point x="1948" y="2017"/>
      <point x="1901" y="1970"/>
      <point x="1843" y="1970" type="curve" smooth="yes"/>
      <point x="1804" y="1970"/>
      <point x="1770" y="1991"/>
      <point x="1752" y="2023" type="curve" smooth="yes"/>
      <point x="1660" y="2184" type="line"/>
      <point x="1591" y="2278"/>
      <point x="1418" y="2416"/>
      <point x="1169" y="2416" type="curve" smooth="yes"/>
      <point x="920" y="2416"/>
      <point x="795" y="2359"/>
      <point x="638" y="2204" type="curve" smooth="yes"/>
      <point x="545" y="2112"/>
      <point x="315" y="1855"/>
      <point x="315" y="1303" type="curve" smooth="yes"/>
      <point x="315" y="1228"/>
      <point x="318" y="1157"/>
      <point x="324" y="1087" type="curve"/>
      <point x="564" y="1497"/>
      <point x="890" y="1521"/>
      <point x="1089" y="1521" type="curve" smooth="yes"/>
      <point x="1572" y="1521"/>
      <point x="1982" y="1220"/>
      <point x="1982" y="687" type="curve" smooth="yes"/>
      <point x="1982" y="230"/>
      <point x="1617" y="-105"/>
      <point x="1116" y="-105" type="curve" smooth="yes"/>
      <point x="483" y="-105"/>
      <point x="105" y="425"/>
    </contour>
    <contour>
      <point x="389" y="722" type="curve"/>
      <point x="478" y="420"/>
      <point x="676" y="105"/>
      <point x="1116" y="105" type="curve" smooth="yes"/>
      <point x="1492" y="105"/>
      <point x="1772" y="339"/>
      <point x="1772" y="687" type="curve" smooth="yes"/>
      <point x="1772" y="1124"/>
      <point x="1428" y="1311"/>
      <point x="1089" y="1311" type="curve" smooth="yes"/>
      <point x="871" y="1311"/>
      <point x="582" y="1281"/>
    </contour>
  </outline>
</glyph>
<glyph name="seven" format="2">
  <advance width="2470"/>
  <unicode hex="0037"/>
  <outline>
    <contour>
      <point x="105" y="2520" type="curve" smooth="yes"/>
      <point x="105" y="2578"/>
      <point x="152" y="2625"/>
      <point x="210" y="2625" type="curve" smooth="yes"/>
      <point x="1840" y="2625" type="line" smooth="yes"/>
      <point x="1898" y="2625"/>
      <point x="1945" y="2578"/>
      <point x="1945" y="2520" type="curve" smooth="yes"/>
      <point x="1945" y="2310" type="line" smooth="yes"/>
      <point x="1945" y="2282"/>
      <point x="1934" y="2256"/>
      <point x="1914" y="2236" type="curve" smooth="yes"/>
      <point x="1527" y="1849"/>
      <point x="945" y="1231"/>
      <point x="945" y="0" type="curve" smooth="yes"/>
      <point x="945" y="-58"/>
      <point x="898" y="-105"/>
      <point x="840" y="-105" type="curve" smooth="yes"/>
      <point x="782" y="-105"/>
      <point x="735" y="-58"/>
      <point x="735" y="0" type="curve" smooth="yes"/>
      <point x="735" y="1287"/>
      <point x="1341" y="1956"/>
      <point x="1735" y="2353" type="curve"/>
      <point x="1735" y="2415" type="line"/>
      <point x="210" y="2415" type="line" smooth="yes"/>
      <point x="152" y="2415"/>
      <point x="105" y="2462"/>
    </contour>
  </outline>
</glyph>
<glyph name="eight" format="2">
  <advance width="2520"/>
  <unicode hex="0038"/>
  <outline>
    <contour>
      <point x="1995" y="702" type="curve" smooth="yes"/>
      <point x="1995" y="275"/>
      <point x="1610" y="-106"/>
      <point x="1084" y="-106" type="curve" smooth="yes"/>
      <point x="566" y="-106"/>
      <point x="105" y="243"/>
      <point x="105" y="696" type="curve" smooth="yes"/>
      <point x="105" y="962"/>
      <point x="262" y="1253"/>
      <point x="562" y="1405" type="curve"/>
      <point x="448" y="1464"/>
      <point x="205" y="1628"/>
      <point x="205" y="1952" type="curve" smooth="yes"/>
      <point x="205" y="2324"/>
      <point x="562" y="2626"/>
      <point x="1018" y="2626" type="curve" smooth="yes"/>
      <point x="1478" y="2626"/>
      <point x="1895" y="2344"/>
      <point x="1895" y="1964" type="curve" smooth="yes"/>
      <point x="1895" y="1785"/>
      <point x="1818" y="1545"/>
      <point x="1538" y="1402" type="curve"/>
      <point x="1580" y="1380"/>
      <point x="1995" y="1151"/>
    </contour>
    <contour>
      <point x="1084" y="104" type="curve" smooth="yes"/>
      <point x="1494" y="104"/>
      <point x="1785" y="392"/>
      <point x="1785" y="702" type="curve" smooth="yes"/>
      <point x="1785" y="941"/>
      <point x="1567" y="1258"/>
      <point x="1165" y="1295" type="curve"/>
      <point x="935" y="1295" type="line"/>
      <point x="511" y="1256"/>
      <point x="315" y="939"/>
      <point x="315" y="696" type="curve" smooth="yes"/>
      <point x="315" y="364"/>
      <point x="683" y="104"/>
    </contour>
    <contour>
      <point x="415" y="1952" type="curve" smooth="yes"/>
      <point x="415" y="1654.92"/>
      <point x="735.894" y="1500.86"/>
      <point x="1055.08" y="1500.86" type="curve" smooth="yes"/>
      <point x="1370.88" y="1500.86"/>
      <point x="1685" y="1651.67"/>
      <point x="1685" y="1964" type="curve" smooth="yes"/>
      <point x="1685" y="2218"/>
      <point x="1361" y="2416"/>
      <point x="1018" y="2416" type="curve" smooth="yes"/>
      <point x="687" y="2416"/>
      <point x="415" y="2210"/>
    </contour>
  </outline>
</glyph>
<glyph name="nine" format="2">
  <advance width="2507"/>
  <unicode hex="0039"/>
  <outline>
    <contour>
      <point x="105" y="1834" type="curve" smooth="yes"/>
      <point x="105" y="2291"/>
      <point x="470" y="2626"/>
      <point x="971" y="2626" type="curve" smooth="yes"/>
      <point x="1604" y="2626"/>
      <point x="1982" y="2096"/>
      <point x="1982" y="1218" type="curve" smooth="yes"/>
      <point x="1982" y="977"/>
      <point x="1944" y="510"/>
      <point x="1597" y="167" type="curve" smooth="yes"/>
      <point x="1397" y="-31"/>
      <point x="1217" y="-105"/>
      <point x="918" y="-105" type="curve" smooth="yes"/>
      <point x="863" y="-105"/>
      <point x="476" y="-94"/>
      <point x="253" y="219" type="curve" smooth="yes"/>
      <point x="252" y="221"/>
      <point x="139" y="401"/>
      <point x="139" y="446" type="curve" smooth="yes"/>
      <point x="139" y="504"/>
      <point x="186" y="551"/>
      <point x="244" y="551" type="curve" smooth="yes"/>
      <point x="283" y="551"/>
      <point x="317" y="530"/>
      <point x="335" y="498" type="curve" smooth="yes"/>
      <point x="427" y="337" type="line"/>
      <point x="496" y="243"/>
      <point x="669" y="105"/>
      <point x="918" y="105" type="curve" smooth="yes"/>
      <point x="1167" y="105"/>
      <point x="1292" y="162"/>
      <point x="1449" y="317" type="curve" smooth="yes"/>
      <point x="1542" y="409"/>
      <point x="1772" y="666"/>
      <point x="1772" y="1218" type="curve" smooth="yes"/>
      <point x="1772" y="1293"/>
      <point x="1769" y="1364"/>
      <point x="1763" y="1434" type="curve"/>
      <point x="1523" y="1024"/>
      <point x="1197" y="1000"/>
      <point x="998" y="1000" type="curve" smooth="yes"/>
      <point x="515" y="1000"/>
      <point x="105" y="1301"/>
    </contour>
    <contour>
      <point x="315" y="1834" type="curve" smooth="yes"/>
      <point x="315" y="1397"/>
      <point x="659" y="1210"/>
      <point x="998" y="1210" type="curve" smooth="yes"/>
      <point x="1216" y="1210"/>
      <point x="1505" y="1240"/>
      <point x="1698" y="1799" type="curve"/>
      <point x="1609" y="2101"/>
      <point x="1411" y="2416"/>
      <point x="971" y="2416" type="curve" smooth="yes"/>
      <point x="595" y="2416"/>
      <point x="315" y="2182"/>
    </contour>
  </outline>
</glyph>
<glyph name="semicolon" format="2">
  <advance width="1050"/>
  <unicode hex="003B"/>
  <outline>
    <contour>
      <point x="105" y="204" type="curve" smooth="yes"/>
      <point x="105" y="343"/>
      <point x="213" y="420"/>
      <point x="315" y="420" type="curve" smooth="yes"/>
      <point x="431" y="420"/>
      <point x="525" y="326"/>
      <point x="525" y="210" type="curve" smooth="yes"/>
      <point x="525" y="-20"/>
      <point x="294" y="-315"/>
      <point x="184" y="-315" type="curve" smooth="yes"/>
      <point x="126" y="-315"/>
      <point x="79" y="-268"/>
      <point x="79" y="-210" type="curve" smooth="yes"/>
      <point x="79" y="-129"/>
      <point x="149" y="-128"/>
      <point x="243" y="12" type="curve"/>
      <point x="163" y="41"/>
      <point x="105" y="116"/>
    </contour>
    <contour>
      <point x="105" y="1338" type="curve" smooth="yes"/>
      <point x="105" y="1454"/>
      <point x="199" y="1548"/>
      <point x="315" y="1548" type="curve" smooth="yes"/>
      <point x="431" y="1548"/>
      <point x="525" y="1454"/>
      <point x="525" y="1338" type="curve" smooth="yes"/>
      <point x="525" y="1222"/>
      <point x="431" y="1128"/>
      <point x="315" y="1128" type="curve" smooth="yes"/>
      <point x="199" y="1128"/>
      <point x="105" y="1222"/>
    </contour>
  </outline>
</glyph>
<glyph name="less" format="2">
  <advance width="2040"/>
  <unicode hex="003C"/>
  <outline>
    <contour>
      <point x="105" y="1338" type="curve" smooth="yes"/>
      <point x="105" y="1346"/>
      <point x="107" y="1409"/>
      <point x="170" y="1435" type="curve" smooth="yes"/>
      <point x="1370" y="1932" type="line" smooth="yes"/>
      <point x="1382" y="1937"/>
      <point x="1396" y="1940"/>
      <point x="1410" y="1940" type="curve" smooth="yes"/>
      <point x="1468" y="1940"/>
      <point x="1515" y="1893"/>
      <point x="1515" y="1835" type="curve" smooth="yes"/>
      <point x="1515" y="1791"/>
      <point x="1488" y="1754"/>
      <point x="1450" y="1738" type="curve" smooth="yes"/>
      <point x="484" y="1338" type="line"/>
      <point x="1450" y="938" type="line" smooth="yes"/>
      <point x="1488" y="922"/>
      <point x="1515" y="885"/>
      <point x="1515" y="841" type="curve" smooth="yes"/>
      <point x="1515" y="783"/>
      <point x="1468" y="736"/>
      <point x="1410" y="736" type="curve" smooth="yes"/>
      <point x="1396" y="736"/>
      <point x="1383" y="739"/>
      <point x="1370" y="744" type="curve" smooth="yes"/>
      <point x="170" y="1241" type="line" smooth="yes"/>
      <point x="132" y="1257"/>
      <point x="105" y="1294"/>
    </contour>
  </outline>
</glyph>
<glyph name="equal" format="2">
  <advance width="2040"/>
  <unicode hex="003D"/>
  <outline>
    <contour>
      <point x="105" y="918" type="curve" smooth="yes"/>
      <point x="105" y="976"/>
      <point x="152" y="1023"/>
      <point x="210" y="1023" type="curve" smooth="yes"/>
      <point x="1410" y="1023" type="line" smooth="yes"/>
      <point x="1468" y="1023"/>
      <point x="1515" y="976"/>
      <point x="1515" y="918" type="curve" smooth="yes"/>
      <point x="1515" y="860"/>
      <point x="1468" y="813"/>
      <point x="1410" y="813" type="curve" smooth="yes"/>
      <point x="210" y="813" type="line" smooth="yes"/>
      <point x="152" y="813"/>
      <point x="105" y="860"/>
    </contour>
    <contour>
      <point x="105" y="1758" type="curve" smooth="yes"/>
      <point x="105" y="1816"/>
      <point x="152" y="1863"/>
      <point x="210" y="1863" type="curve" smooth="yes"/>
      <point x="1410" y="1863" type="line" smooth="yes"/>
      <point x="1468" y="1863"/>
      <point x="1515" y="1816"/>
      <point x="1515" y="1758" type="curve" smooth="yes"/>
      <point x="1515" y="1700"/>
      <point x="1468" y="1653"/>
      <point x="1410" y="1653" type="curve" smooth="yes"/>
      <point x="210" y="1653" type="line" smooth="yes"/>
      <point x="152" y="1653"/>
      <point x="105" y="1700"/>
    </contour>
  </outline>
</glyph>
<glyph name="greater" format="2">
  <advance width="2040"/>
  <unicode hex="003E"/>
  <outline>
    <contour>
      <point x="105" y="1835" type="curve" smooth="yes"/>
      <point x="105" y="1893"/>
      <point x="152" y="1940"/>
      <point x="210" y="1940" type="curve" smooth="yes"/>
      <point x="224" y="1940"/>
      <point x="238" y="1937"/>
      <point x="250" y="1932" type="curve" smooth="yes"/>
      <point x="1450" y="1435" type="line" smooth="yes"/>
      <point x="1490" y="1419"/>
      <point x="1515" y="1380"/>
      <point x="1515" y="1338" type="curve" smooth="yes"/>
      <point x="1515" y="1330"/>
      <point x="1513" y="1267"/>
      <point x="1450" y="1241" type="curve" smooth="yes"/>
      <point x="250" y="744" type="line" smooth="yes"/>
      <point x="238" y="739"/>
      <point x="224" y="736"/>
      <point x="210" y="736" type="curve" smooth="yes"/>
      <point x="152" y="736"/>
      <point x="105" y="783"/>
      <point x="105" y="841" type="curve" smooth="yes"/>
      <point x="105" y="885"/>
      <point x="132" y="922"/>
      <point x="170" y="938" type="curve" smooth="yes"/>
      <point x="1136" y="1338" type="line"/>
      <point x="170" y="1738" type="line" smooth="yes"/>
      <point x="132" y="1754"/>
      <point x="105" y="1791"/>
    </contour>
  </outline>
</glyph>
<glyph name="question" format="2">
  <advance width="2082"/>
  <unicode hex="003F"/>
  <outline>
    <contour>
      <point x="315" y="2018" type="curve" smooth="yes"/>
      <point x="315" y="1834"/>
      <point x="385" y="1821"/>
      <point x="385" y="1746" type="curve" smooth="yes"/>
      <point x="385" y="1688"/>
      <point x="338" y="1641"/>
      <point x="280" y="1641" type="curve" smooth="yes"/>
      <point x="241" y="1641"/>
      <point x="205" y="1662"/>
      <point x="187" y="1697" type="curve" smooth="yes"/>
      <point x="113" y="1839"/>
      <point x="105" y="1924"/>
      <point x="105" y="2018" type="curve" smooth="yes"/>
      <point x="105" y="2030"/>
      <point x="105" y="2042"/>
      <point x="105" y="2054" type="curve" smooth="yes"/>
      <point x="105" y="2370"/>
      <point x="428" y="2625"/>
      <point x="831" y="2625" type="curve" smooth="yes"/>
      <point x="1234" y="2625"/>
      <point x="1558" y="2370"/>
      <point x="1558" y="2054" type="curve" smooth="yes"/>
      <point x="1558" y="1534"/>
      <point x="936" y="1309"/>
      <point x="936" y="840" type="curve" smooth="yes"/>
      <point x="936" y="782"/>
      <point x="889" y="735"/>
      <point x="831" y="735" type="curve" smooth="yes"/>
      <point x="773" y="735"/>
      <point x="726" y="782"/>
      <point x="726" y="840" type="curve" smooth="yes"/>
      <point x="726" y="1406"/>
      <point x="1348" y="1643"/>
      <point x="1348" y="2054" type="curve" smooth="yes"/>
      <point x="1348" y="2250"/>
      <point x="1115" y="2415"/>
      <point x="831" y="2415" type="curve" smooth="yes"/>
      <point x="547" y="2415"/>
      <point x="315" y="2250"/>
      <point x="315" y="2054" type="curve" smooth="yes"/>
      <point x="315" y="2042"/>
      <point x="315" y="2029"/>
    </contour>
    <contour>
      <point x="621" y="210" type="curve" smooth="yes"/>
      <point x="621" y="326"/>
      <point x="715" y="420"/>
      <point x="831" y="420" type="curve" smooth="yes"/>
      <point x="947" y="420"/>
      <point x="1041" y="326"/>
      <point x="1041" y="210" type="curve" smooth="yes"/>
      <point x="1041" y="94"/>
      <point x="947" y="0"/>
      <point x="831" y="0" type="curve" smooth="yes"/>
      <point x="715" y="0"/>
      <point x="621" y="94"/>
    </contour>
  </outline>
</glyph>
<glyph name="at" format="2">
  <advance width="3569"/>
  <unicode hex="0040"/>
  <outline>
    <contour>
      <point x="1575" y="-105" type="curve" smooth="yes"/>
      <point x="1955" y="-105"/>
      <point x="2152" y="54"/>
      <point x="2215" y="54" type="curve" smooth="yes"/>
      <point x="2273" y="54"/>
      <point x="2320" y="7"/>
      <point x="2320" y="-51" type="curve" smooth="yes"/>
      <point x="2320" y="-90"/>
      <point x="2299" y="-125"/>
      <point x="2264" y="-143" type="curve" smooth="yes"/>
      <point x="2058" y="-253"/>
      <point x="1824" y="-315"/>
      <point x="1575" y="-315" type="curve" smooth="yes"/>
      <point x="765" y="-315"/>
      <point x="105" y="390"/>
      <point x="105" y="1260" type="curve" smooth="yes"/>
      <point x="105" y="2130"/>
      <point x="765" y="2835"/>
      <point x="1575" y="2835" type="curve" smooth="yes"/>
      <point x="2385" y="2835"/>
      <point x="3045" y="2130"/>
      <point x="3045" y="1260" type="curve" smooth="yes"/>
      <point x="3045" y="1054"/>
      <point x="2994" y="269"/>
      <point x="2215" y="269" type="curve" smooth="yes"/>
      <point x="2144" y="269"/>
      <point x="2059" y="303"/>
      <point x="2002" y="380" type="curve"/>
      <point x="1874" y="287"/>
      <point x="1699" y="279"/>
      <point x="1605" y="279" type="curve" smooth="yes"/>
      <point x="1458" y="279"/>
      <point x="1010" y="310"/>
      <point x="1010" y="684" type="curve" smooth="yes"/>
      <point x="1010" y="1180"/>
      <point x="1538" y="1316"/>
      <point x="1940" y="1360" type="curve"/>
      <point x="1940" y="1484" type="line" smooth="yes"/>
      <point x="1940" y="1653"/>
      <point x="1820" y="1825"/>
      <point x="1595" y="1825" type="curve" smooth="yes"/>
      <point x="1346" y="1825"/>
      <point x="1253" y="1708"/>
      <point x="1218" y="1549" type="curve" smooth="yes"/>
      <point x="1208" y="1502"/>
      <point x="1165" y="1467"/>
      <point x="1115" y="1467" type="curve" smooth="yes"/>
      <point x="1057" y="1467"/>
      <point x="1010" y="1514"/>
      <point x="1010" y="1572" type="curve" smooth="yes"/>
      <point x="1010" y="1579"/>
      <point x="1054" y="2035"/>
      <point x="1595" y="2035" type="curve" smooth="yes"/>
      <point x="1931" y="2035"/>
      <point x="2150" y="1774"/>
      <point x="2150" y="1484" type="curve" smooth="yes"/>
      <point x="2150" y="1267" type="line" smooth="yes"/>
      <point x="2150" y="1266"/>
      <point x="2150" y="1265"/>
      <point x="2150" y="1264" type="curve" smooth="yes"/>
      <point x="2150" y="584" type="line" smooth="yes"/>
      <point x="2150" y="482"/>
      <point x="2214" y="479"/>
      <point x="2215" y="479" type="curve" smooth="yes"/>
      <point x="2739" y="479"/>
      <point x="2835" y="952"/>
      <point x="2835" y="1260" type="curve" smooth="yes"/>
      <point x="2835" y="2012"/>
      <point x="2271" y="2625"/>
      <point x="1575" y="2625" type="curve" smooth="yes"/>
      <point x="879" y="2625"/>
      <point x="315" y="2012"/>
      <point x="315" y="1260" type="curve" smooth="yes"/>
      <point x="315" y="508"/>
      <point x="879" y="-105"/>
    </contour>
    <contour>
      <point x="1940" y="1148" type="line"/>
      <point x="1246" y="1066"/>
      <point x="1220" y="803"/>
      <point x="1220" y="684" type="curve" smooth="yes"/>
      <point x="1220" y="511"/>
      <point x="1477" y="489"/>
      <point x="1605" y="489" type="curve" smooth="yes"/>
      <point x="1692" y="489"/>
      <point x="1940" y="489"/>
      <point x="1940" y="684" type="curve" smooth="yes"/>
    </contour>
  </outline>
</glyph>
<glyph name="A" format="2">
  <advance width="2631"/>
  <unicode hex="0041"/>
  <outline>
    <contour>
      <point x="105" y="-0" type="curve" smooth="yes"/>
      <point x="105" y="12"/>
      <point x="106" y="22"/>
      <point x="110" y="33" type="curve" smooth="yes"/>
      <point x="953" y="2553" type="line" smooth="yes"/>
      <point x="967" y="2596"/>
      <point x="1008" y="2625"/>
      <point x="1053" y="2625" type="curve" smooth="yes"/>
      <point x="1158" y="2625" type="line" smooth="yes"/>
      <point x="1203" y="2625"/>
      <point x="1243" y="2596"/>
      <point x="1257" y="2553" type="curve" smooth="yes"/>
      <point x="2101" y="33" type="line" smooth="yes"/>
      <point x="2104" y="23"/>
      <point x="2106" y="12"/>
      <point x="2106" y="0" type="curve" smooth="yes"/>
      <point x="2106" y="-58"/>
      <point x="2059" y="-105"/>
      <point x="2001" y="-105" type="curve" smooth="yes"/>
      <point x="1955" y="-105"/>
      <point x="1915" y="-75"/>
      <point x="1901" y="-33" type="curve" smooth="yes"/>
      <point x="1643" y="735" type="line"/>
      <point x="568" y="735" type="line"/>
      <point x="310" y="-34" type="line" smooth="yes"/>
      <point x="296" y="-76"/>
      <point x="256" y="-105"/>
      <point x="210" y="-105" type="curve" smooth="yes"/>
      <point x="152" y="-105"/>
      <point x="105" y="-58"/>
    </contour>
    <contour>
      <point x="637" y="945" type="line"/>
      <point x="1574" y="945" type="line"/>
      <point x="1106" y="2346" type="line"/>
    </contour>
  </outline>
</glyph>
<glyph name="B" format="2">
  <advance width="2457"/>
  <unicode hex="0042"/>
  <outline>
    <contour>
      <point x="210" y="-105" type="line" smooth="yes"/>
      <point x="164" y="-105"/>
      <point x="107" y="-71"/>
      <point x="105" y="0" type="curve"/>
      <point x="105" y="2520" type="line" smooth="yes"/>
      <point x="105" y="2579"/>
      <point x="153" y="2625"/>
      <point x="210" y="2625" type="curve" smooth="yes"/>
      <point x="1158" y="2625" type="line" smooth="yes"/>
      <point x="1542" y="2625"/>
      <point x="1854" y="2313"/>
      <point x="1854" y="1929" type="curve" smooth="yes"/>
      <point x="1854" y="1684"/>
      <point x="1727" y="1469"/>
      <point x="1536" y="1345" type="curve"/>
      <point x="1772" y="1212"/>
      <point x="1932" y="959"/>
      <point x="1932" y="669" type="curve" smooth="yes"/>
      <point x="1932" y="242"/>
      <point x="1585" y="-105"/>
      <point x="1158" y="-105" type="curve" smooth="yes"/>
    </contour>
    <contour>
      <point x="315" y="105" type="line"/>
      <point x="1158" y="105" type="line" smooth="yes"/>
      <point x="1469" y="105"/>
      <point x="1722" y="358"/>
      <point x="1722" y="669" type="curve" smooth="yes"/>
      <point x="1722" y="980"/>
      <point x="1469" y="1233"/>
      <point x="1158" y="1233" type="curve" smooth="yes"/>
      <point x="315" y="1233" type="line"/>
    </contour>
    <contour>
      <point x="315" y="1443" type="line"/>
      <point x="1158" y="1443" type="line" smooth="yes"/>
      <point x="1426" y="1443"/>
      <point x="1644" y="1661"/>
      <point x="1644" y="1929" type="curve" smooth="yes"/>
      <point x="1644" y="2197"/>
      <point x="1426" y="2415"/>
      <point x="1158" y="2415" type="curve" smooth="yes"/>
      <point x="315" y="2415" type="line"/>
    </contour>
  </outline>
</glyph>
<glyph name="C" format="2">
  <advance width="2543"/>
  <unicode hex="0043"/>
  <outline>
    <contour>
      <point x="1115" y="2625" type="curve" smooth="yes"/>
      <point x="1786" y="2625"/>
      <point x="1985" y="1930"/>
      <point x="1985" y="1800" type="curve" smooth="yes"/>
      <point x="1985" y="1742"/>
      <point x="1938" y="1695"/>
      <point x="1880" y="1695" type="curve" smooth="yes"/>
      <point x="1828" y="1695"/>
      <point x="1786" y="1733"/>
      <point x="1777" y="1782" type="curve" smooth="yes"/>
      <point x="1763" y="1859"/>
      <point x="1647" y="2415"/>
      <point x="1115" y="2415" type="curve" smooth="yes"/>
      <point x="678" y="2415"/>
      <point x="315" y="1896"/>
      <point x="315" y="1260" type="curve" smooth="yes"/>
      <point x="315" y="624"/>
      <point x="678" y="105"/>
      <point x="1115" y="105" type="curve" smooth="yes"/>
      <point x="1505" y="105"/>
      <point x="1777" y="410"/>
      <point x="1808" y="769" type="curve" smooth="yes"/>
      <point x="1813" y="823"/>
      <point x="1858" y="865"/>
      <point x="1913" y="865" type="curve" smooth="yes"/>
      <point x="1971" y="865"/>
      <point x="2018" y="818"/>
      <point x="2018" y="760" type="curve" smooth="yes"/>
      <point x="2018" y="757"/>
      <point x="2018" y="754"/>
      <point x="2018" y="751" type="curve" smooth="yes"/>
      <point x="1976" y="276"/>
      <point x="1605" y="-105"/>
      <point x="1115" y="-105" type="curve" smooth="yes"/>
      <point x="556" y="-105"/>
      <point x="105" y="505"/>
      <point x="105" y="1260" type="curve" smooth="yes"/>
      <point x="105" y="2015"/>
      <point x="556" y="2625"/>
    </contour>
  </outline>
</glyph>
<glyph name="D" format="2">
  <advance width="2443"/>
  <unicode hex="0044"/>
  <outline>
    <contour>
      <point x="210" y="-105" type="line" smooth="yes"/>
      <point x="164" y="-105"/>
      <point x="107" y="-71"/>
      <point x="105" y="0" type="curve"/>
      <point x="105" y="2521" type="line" smooth="yes"/>
      <point x="105" y="2579"/>
      <point x="152" y="2626"/>
      <point x="210" y="2626" type="curve" smooth="yes"/>
      <point x="211" y="2626" type="line" smooth="yes"/>
      <point x="211" y="2626"/>
      <point x="409" y="2625"/>
      <point x="908" y="2625" type="curve" smooth="yes"/>
      <point x="1467" y="2625"/>
      <point x="1918" y="2015"/>
      <point x="1918" y="1260" type="curve" smooth="yes"/>
      <point x="1918" y="505"/>
      <point x="1467" y="-105"/>
      <point x="908" y="-105" type="curve" smooth="yes"/>
    </contour>
    <contour>
      <point x="315" y="105" type="line"/>
      <point x="908" y="105" type="line" smooth="yes"/>
      <point x="1345" y="105"/>
      <point x="1708" y="624"/>
      <point x="1708" y="1260" type="curve" smooth="yes"/>
      <point x="1708" y="1896"/>
      <point x="1345" y="2415"/>
      <point x="908" y="2415" type="curve" smooth="yes"/>
      <point x="612" y="2415"/>
      <point x="421" y="2416"/>
      <point x="315" y="2416" type="curve"/>
    </contour>
  </outline>
</glyph>
<glyph name="F" format="2">
  <advance width="2402"/>
  <unicode hex="0046"/>
  <outline>
    <contour>
      <point x="210" y="-105" type="line"/>
      <point x="164" y="-105"/>
      <point x="107" y="-71"/>
      <point x="105" y="0" type="curve"/>
      <point x="105" y="2520" type="line" smooth="yes"/>
      <point x="105" y="2579"/>
      <point x="153" y="2625"/>
      <point x="210" y="2625" type="curve" smooth="yes"/>
      <point x="1772" y="2625" type="line" smooth="yes"/>
      <point x="1830" y="2625"/>
      <point x="1877" y="2578"/>
      <point x="1877" y="2520" type="curve"/>
      <point x="1877" y="2519" type="line"/>
      <point x="1877" y="2461"/>
      <point x="1830" y="2414"/>
      <point x="1772" y="2414" type="curve" smooth="yes"/>
      <point x="316" y="2414" type="line"/>
      <point x="316" y="1444" type="line"/>
      <point x="1319" y="1444" type="line" smooth="yes"/>
      <point x="1366" y="1444"/>
      <point x="1423" y="1410"/>
      <point x="1424" y="1338" type="curve"/>
      <point x="1424" y="1280"/>
      <point x="1377" y="1233"/>
      <point x="1319" y="1233" type="curve" smooth="yes"/>
      <point x="316" y="1233" type="line"/>
      <point x="316" y="0" type="line" smooth="yes"/>
      <point x="316" y="-58"/>
      <point x="268" y="-105"/>
      <point x="211" y="-105" type="curve"/>
    </contour>
  </outline>
</glyph>
<glyph name="G" format="2">
  <advance width="2431"/>
  <unicode hex="0047"/>
  <outline>
    <contour>
      <point x="105" y="1260" type="curve" smooth="yes"/>
      <point x="105" y="2015"/>
      <point x="556" y="2625"/>
      <point x="1115" y="2625" type="curve" smooth="yes"/>
      <point x="1324" y="2625"/>
      <point x="1517" y="2539"/>
      <point x="1674" y="2399" type="curve" smooth="yes"/>
      <point x="1839" y="2252"/>
      <point x="1906" y="1910"/>
      <point x="1906" y="1905" type="curve" smooth="yes"/>
      <point x="1906" y="1847"/>
      <point x="1859" y="1800"/>
      <point x="1801" y="1800" type="curve" smooth="yes"/>
      <point x="1752" y="1800"/>
      <point x="1712" y="1833"/>
      <point x="1700" y="1878" type="curve" smooth="yes"/>
      <point x="1669" y="1993"/>
      <point x="1611" y="2174"/>
      <point x="1534" y="2242" type="curve" smooth="yes"/>
      <point x="1408" y="2354"/>
      <point x="1265" y="2415"/>
      <point x="1115" y="2415" type="curve" smooth="yes"/>
      <point x="678" y="2415"/>
      <point x="315" y="1896"/>
      <point x="315" y="1260" type="curve" smooth="yes"/>
      <point x="315" y="624"/>
      <point x="678" y="105"/>
      <point x="1115" y="105" type="curve" smooth="yes"/>
      <point x="1335" y="105"/>
      <point x="1544" y="238"/>
      <point x="1696" y="470" type="curve"/>
      <point x="1697" y="958" type="line"/>
      <point x="1200" y="958" type="line" smooth="yes"/>
      <point x="1142" y="958"/>
      <point x="1095" y="1005"/>
      <point x="1095" y="1063" type="curve" smooth="yes"/>
      <point x="1095" y="1121"/>
      <point x="1142" y="1168"/>
      <point x="1200" y="1168" type="curve" smooth="yes"/>
      <point x="1802" y="1168" type="line" smooth="yes"/>
      <point x="1860" y="1168"/>
      <point x="1907" y="1121"/>
      <point x="1907" y="1063" type="curve" smooth="yes"/>
      <point x="1906" y="439" type="line" smooth="yes"/>
      <point x="1906" y="420"/>
      <point x="1900" y="400"/>
      <point x="1890" y="384" type="curve" smooth="yes"/>
      <point x="1711" y="94"/>
      <point x="1435" y="-105"/>
      <point x="1115" y="-105" type="curve" smooth="yes"/>
      <point x="556" y="-105"/>
      <point x="105" y="505"/>
    </contour>
  </outline>
</glyph>
<glyph name="J" format="2">
  <advance width="2054"/>
  <unicode hex="004A"/>
  <outline>
    <contour>
      <point x="1529" y="529" type="line" smooth="yes"/>
      <point x="1529" y="285"/>
      <point x="1256" y="-105"/>
      <point x="838" y="-105" type="curve" smooth="yes"/>
      <point x="470" y="-105"/>
      <point x="161" y="166"/>
      <point x="129" y="519" type="curve" smooth="yes"/>
      <point x="105" y="770" type="line"/>
      <point x="105" y="773"/>
      <point x="105" y="777"/>
      <point x="105" y="780" type="curve" smooth="yes"/>
      <point x="105" y="838"/>
      <point x="152" y="885"/>
      <point x="210" y="885" type="curve" smooth="yes"/>
      <point x="265" y="885"/>
      <point x="310" y="844"/>
      <point x="315" y="790" type="curve" smooth="yes"/>
      <point x="338" y="539" type="line" smooth="yes"/>
      <point x="360" y="300"/>
      <point x="572" y="105"/>
      <point x="838" y="105" type="curve" smooth="yes"/>
      <point x="1063" y="105"/>
      <point x="1294" y="294"/>
      <point x="1319" y="534" type="curve"/>
      <point x="1319" y="2520" type="line" smooth="yes"/>
      <point x="1319" y="2578"/>
      <point x="1366" y="2625"/>
      <point x="1424" y="2625" type="curve" smooth="yes"/>
      <point x="1482" y="2625"/>
      <point x="1529" y="2578"/>
      <point x="1529" y="2520" type="curve" smooth="yes"/>
    </contour>
  </outline>
</glyph>
<glyph name="K" format="2">
  <advance width="2402"/>
  <unicode hex="004B"/>
  <outline>
    <contour>
      <point x="105" y="0" type="curve" smooth="yes"/>
      <point x="105" y="2520" type="line" smooth="yes"/>
      <point x="105" y="2579"/>
      <point x="153" y="2625"/>
      <point x="210" y="2625" type="curve"/>
      <point x="211" y="2625" type="line"/>
      <point x="269" y="2625"/>
      <point x="316" y="2578"/>
      <point x="316" y="2520" type="curve" smooth="yes"/>
      <point x="316" y="1212" type="line"/>
      <point x="777" y="1673"/>
      <point x="1237" y="2133"/>
      <point x="1698" y="2594" type="curve" smooth="yes"/>
      <point x="1717" y="2613"/>
      <point x="1743" y="2625"/>
      <point x="1772" y="2625" type="curve" smooth="yes"/>
      <point x="1830" y="2625"/>
      <point x="1877" y="2578"/>
      <point x="1877" y="2520" type="curve" smooth="yes"/>
      <point x="1877" y="2491"/>
      <point x="1865" y="2465"/>
      <point x="1846" y="2446" type="curve" smooth="yes"/>
      <point x="911" y="1510" type="line"/>
      <point x="1926" y="60" type="line" smooth="yes"/>
      <point x="1938" y="43"/>
      <point x="1945" y="22"/>
      <point x="1945" y="0" type="curve" smooth="yes"/>
      <point x="1945" y="-58"/>
      <point x="1898" y="-105"/>
      <point x="1840" y="-105" type="curve" smooth="yes"/>
      <point x="1804" y="-105"/>
      <point x="1773" y="-87"/>
      <point x="1754" y="-60" type="curve" smooth="yes"/>
      <point x="761" y="1360" type="line"/>
      <point x="315" y="914" type="line"/>
      <point x="315" y="0" type="line" smooth="yes"/>
      <point x="315" y="-58"/>
      <point x="268" y="-105"/>
      <point x="210" y="-105" type="curve" smooth="yes"/>
      <point x="152" y="-105"/>
      <point x="105" y="-58"/>
    </contour>
  </outline>
</glyph>
<glyph name="M" format="2">
  <advance width="2801"/>
  <unicode hex="004D"/>
  <outline>
    <contour>
      <point x="105" y="0" type="curve" smooth="yes"/>
      <point x="105" y="2520" type="line" smooth="yes"/>
      <point x="105" y="2579"/>
      <point x="153" y="2625"/>
      <point x="210" y="2625" type="curve" smooth="yes"/>
      <point x="315" y="2625" type="line" smooth="yes"/>
      <point x="360" y="2625"/>
      <point x="399" y="2596"/>
      <point x="414" y="2554" type="curve" smooth="yes"/>
      <point x="1191" y="299" type="line"/>
      <point x="1968" y="2554" type="line" smooth="yes"/>
      <point x="1983" y="2596"/>
      <point x="2022" y="2625"/>
      <point x="2067" y="2625" type="curve" smooth="yes"/>
      <point x="2171" y="2625" type="line" smooth="yes"/>
      <point x="2229" y="2625"/>
      <point x="2276" y="2578"/>
      <point x="2276" y="2520" type="curve" smooth="yes"/>
      <point x="2277" y="0" type="line" smooth="yes"/>
      <point x="2277" y="-58"/>
      <point x="2230" y="-105"/>
      <point x="2172" y="-105" type="curve" smooth="yes"/>
      <point x="2114" y="-105"/>
      <point x="2067" y="-58"/>
      <point x="2067" y="-0" type="curve" smooth="yes"/>
      <point x="2066" y="2195" type="line"/>
      <point x="1317" y="19" type="line" smooth="yes"/>
      <point x="1302" y="-23"/>
      <point x="1262" y="-52"/>
      <point x="1217" y="-52" type="curve" smooth="yes"/>
      <point x="1164" y="-52" type="line" smooth="yes"/>
      <point x="1119" y="-52"/>
      <point x="1080" y="-23"/>
      <point x="1065" y="19" type="curve" smooth="yes"/>
      <point x="315" y="2197" type="line"/>
      <point x="315" y="0" type="line" smooth="yes"/>
      <point x="315" y="-58"/>
      <point x="268" y="-105"/>
      <point x="210" y="-105" type="curve" smooth="yes"/>
      <point x="152" y="-105"/>
      <point x="105" y="-58"/>
    </contour>
  </outline>
</glyph>
<glyph name="N" format="2">
  <advance width="2470"/>
  <unicode hex="004E"/>
  <outline>
    <contour>
      <point x="105" y="0" type="curve" smooth="yes"/>
      <point x="105" y="2520" type="line" smooth="yes"/>
      <point x="105" y="2579"/>
      <point x="153" y="2625"/>
      <point x="210" y="2625" type="curve" smooth="yes"/>
      <point x="315" y="2625" type="line" smooth="yes"/>
      <point x="353" y="2625"/>
      <point x="388" y="2604"/>
      <point x="407" y="2571" type="curve" smooth="yes"/>
      <point x="1735" y="214" type="line"/>
      <point x="1735" y="2520" type="line" smooth="yes"/>
      <point x="1735" y="2578"/>
      <point x="1782" y="2625"/>
      <point x="1840" y="2625" type="curve" smooth="yes"/>
      <point x="1898" y="2625"/>
      <point x="1945" y="2578"/>
      <point x="1945" y="2520" type="curve" smooth="yes"/>
      <point x="1945" y="-0" type="line" smooth="yes"/>
      <point x="1945" y="-58"/>
      <point x="1898" y="-105"/>
      <point x="1840" y="-105" type="curve" smooth="yes"/>
      <point x="1735" y="-105" type="line" smooth="yes"/>
      <point x="1697" y="-105"/>
      <point x="1662" y="-84"/>
      <point x="1643" y="-51" type="curve" smooth="yes"/>
      <point x="315" y="2306" type="line"/>
      <point x="315" y="0" type="line" smooth="yes"/>
      <point x="315" y="-58"/>
      <point x="268" y="-105"/>
      <point x="210" y="-105" type="curve" smooth="yes"/>
      <point x="152" y="-105"/>
      <point x="105" y="-58"/>
    </contour>
  </outline>
</glyph>
<glyph name="O" format="2">
  <advance width="2653"/>
  <unicode hex="004F"/>
  <outline>
    <contour>
      <point x="105" y="1260" type="curve" smooth="yes"/>
      <point x="105" y="2015"/>
      <point x="556" y="2625"/>
      <point x="1115" y="2625" type="curve" smooth="yes"/>
      <point x="1674" y="2625"/>
      <point x="2128" y="2015"/>
      <point x="2128" y="1260" type="curve" smooth="yes"/>
      <point x="2128" y="505"/>
      <point x="1677" y="-105"/>
      <point x="1118" y="-105" type="curve" smooth="yes"/>
      <point x="559" y="-105"/>
      <point x="105" y="505"/>
    </contour>
    <contour>
      <point x="315" y="1260" type="curve" smooth="yes"/>
      <point x="315" y="624"/>
      <point x="681" y="105"/>
      <point x="1118" y="105" type="curve" smooth="yes"/>
      <point x="1555" y="105"/>
      <point x="1918" y="624"/>
      <point x="1918" y="1260" type="curve" smooth="yes"/>
      <point x="1918" y="1896"/>
      <point x="1552" y="2415"/>
      <point x="1115" y="2415" type="curve" smooth="yes"/>
      <point x="678" y="2415"/>
      <point x="315" y="1896"/>
    </contour>
  </outline>
</glyph>
<glyph name="P" format="2">
  <advance width="2395"/>
  <unicode hex="0050"/>
  <outline>
    <contour>
      <point x="105" y="0" type="curve" smooth="yes"/>
      <point x="105" y="2520" type="line" smooth="yes"/>
      <point x="105" y="2579"/>
      <point x="153" y="2625"/>
      <point x="210" y="2625" type="curve" smooth="yes"/>
      <point x="1160" y="2625" type="line" smooth="yes"/>
      <point x="1550" y="2625"/>
      <point x="1870" y="2280"/>
      <point x="1870" y="1851" type="curve" smooth="yes"/>
      <point x="1870" y="1422"/>
      <point x="1550" y="1077"/>
      <point x="1160" y="1077" type="curve" smooth="yes"/>
      <point x="315" y="1077" type="line"/>
      <point x="315" y="0" type="line" smooth="yes"/>
      <point x="315" y="-58"/>
      <point x="268" y="-105"/>
      <point x="210" y="-105" type="curve" smooth="yes"/>
      <point x="152" y="-105"/>
      <point x="105" y="-58"/>
    </contour>
    <contour>
      <point x="315" y="1287" type="line"/>
      <point x="1160" y="1287" type="line" smooth="yes"/>
      <point x="1436" y="1287"/>
      <point x="1660" y="1542"/>
      <point x="1660" y="1851" type="curve" smooth="yes"/>
      <point x="1660" y="2160"/>
      <point x="1436" y="2415"/>
      <point x="1160" y="2415" type="curve" smooth="yes"/>
      <point x="315" y="2415" type="line"/>
    </contour>
  </outline>
</glyph>
<glyph name="Q" format="2">
  <advance width="2653"/>
  <unicode hex="0051"/>
  <outline>
    <contour>
      <point x="2272" y="-80" type="line" smooth="yes"/>
      <point x="2272" y="-186"/>
      <point x="2059" y="-282"/>
      <point x="1937" y="-282" type="curve" smooth="yes"/>
      <point x="1835" y="-282"/>
      <point x="1670" y="-229"/>
      <point x="1499" y="-5" type="curve"/>
      <point x="1383" y="-69"/>
      <point x="1254" y="-105"/>
      <point x="1118" y="-105" type="curve" smooth="yes"/>
      <point x="559" y="-105"/>
      <point x="105" y="505"/>
      <point x="105" y="1260" type="curve" smooth="yes"/>
      <point x="105" y="2015"/>
      <point x="556" y="2625"/>
      <point x="1115" y="2625" type="curve" smooth="yes"/>
      <point x="1674" y="2625"/>
      <point x="2128" y="2015"/>
      <point x="2128" y="1260" type="curve" smooth="yes"/>
      <point x="2128" y="1085"/>
      <point x="2096" y="490"/>
      <point x="1671" y="116" type="curve"/>
      <point x="1714" y="60"/>
      <point x="1828" y="-71"/>
      <point x="1937" y="-71" type="curve" smooth="yes"/>
      <point x="2038" y="-71"/>
      <point x="2097" y="26"/>
      <point x="2167" y="26" type="curve" smooth="yes"/>
      <point x="2225" y="26"/>
      <point x="2272" y="-21"/>
      <point x="2272" y="-79" type="curve" smooth="yes"/>
    </contour>
    <contour>
      <point x="1559" y="299" type="curve"/>
      <point x="1645" y="382"/>
      <point x="1918" y="690"/>
      <point x="1918" y="1260" type="curve" smooth="yes"/>
      <point x="1918" y="1896"/>
      <point x="1552" y="2415"/>
      <point x="1115" y="2415" type="curve" smooth="yes"/>
      <point x="678" y="2415"/>
      <point x="315" y="1896"/>
      <point x="315" y="1260" type="curve" smooth="yes"/>
      <point x="315" y="624"/>
      <point x="681" y="105"/>
      <point x="1118" y="105" type="curve" smooth="yes"/>
      <point x="1211" y="105"/>
      <point x="1302" y="128"/>
      <point x="1387" y="173" type="curve"/>
      <point x="1362" y="223"/>
      <point x="1330" y="294"/>
      <point x="1299" y="374" type="curve"/>
      <point x="1230" y="399" type="line"/>
      <point x="1040" y="399" type="line" smooth="yes"/>
      <point x="982" y="399"/>
      <point x="935" y="446"/>
      <point x="935" y="504" type="curve" smooth="yes"/>
      <point x="935" y="562"/>
      <point x="982" y="609"/>
      <point x="1040" y="609" type="curve" smooth="yes"/>
      <point x="1249" y="609" type="line" smooth="yes"/>
      <point x="1261" y="609"/>
      <point x="1273" y="607"/>
      <point x="1285" y="603" type="curve" smooth="yes"/>
      <point x="1417" y="555" type="line" smooth="yes"/>
      <point x="1447" y="544"/>
      <point x="1470" y="521"/>
      <point x="1480" y="491" type="curve" smooth="yes"/>
      <point x="1481" y="489"/>
      <point x="1514" y="394"/>
    </contour>
  </outline>
</glyph>
<glyph name="R" format="2">
  <advance width="2517"/>
  <unicode hex="0052"/>
  <outline>
    <contour>
      <point x="105" y="0" type="curve" smooth="yes"/>
      <point x="105" y="2520" type="line" smooth="yes"/>
      <point x="105" y="2579"/>
      <point x="153" y="2625"/>
      <point x="210" y="2625" type="curve" smooth="yes"/>
      <point x="1218" y="2625" type="line" smooth="yes"/>
      <point x="1647" y="2625"/>
      <point x="1992" y="2312"/>
      <point x="1992" y="1929" type="curve" smooth="yes"/>
      <point x="1992" y="1597"/>
      <point x="1732" y="1315"/>
      <point x="1380" y="1248" type="curve"/>
      <point x="1981" y="47" type="line" smooth="yes"/>
      <point x="1988" y="33"/>
      <point x="1992" y="17"/>
      <point x="1992" y="-0" type="curve" smooth="yes"/>
      <point x="1992" y="-58"/>
      <point x="1945" y="-105"/>
      <point x="1887" y="-105" type="curve" smooth="yes"/>
      <point x="1846" y="-105"/>
      <point x="1810" y="-81"/>
      <point x="1793" y="-47" type="curve" smooth="yes"/>
      <point x="1153" y="1232" type="line"/>
      <point x="315" y="1232" type="line"/>
      <point x="315" y="0" type="line" smooth="yes"/>
      <point x="315" y="-58"/>
      <point x="268" y="-105"/>
      <point x="210" y="-105" type="curve" smooth="yes"/>
      <point x="152" y="-105"/>
      <point x="105" y="-58"/>
    </contour>
    <contour>
      <point x="315" y="1443" type="line"/>
      <point x="1218" y="1443" type="line" smooth="yes"/>
      <point x="1527" y="1443"/>
      <point x="1782" y="1660"/>
      <point x="1782" y="1929" type="curve" smooth="yes"/>
      <point x="1782" y="2198"/>
      <point x="1527" y="2415"/>
      <point x="1218" y="2415" type="curve" smooth="yes"/>
      <point x="315" y="2415" type="line"/>
    </contour>
  </outline>
</glyph>
<glyph name="S" format="2">
  <advance width="2561"/>
  <unicode hex="0053"/>
  <outline>
    <contour>
      <point x="105" y="750" type="curve" smooth="yes"/>
      <point x="105" y="808"/>
      <point x="152" y="855"/>
      <point x="210" y="855" type="curve" smooth="yes"/>
      <point x="259" y="855"/>
      <point x="300" y="821"/>
      <point x="312" y="776" type="curve" smooth="yes"/>
      <point x="362" y="582"/>
      <point x="362" y="582"/>
      <point x="362" y="580" type="curve" smooth="yes"/>
      <point x="421" y="310"/>
      <point x="728" y="105"/>
      <point x="1089" y="105" type="curve" smooth="yes"/>
      <point x="1494" y="105"/>
      <point x="1826" y="361"/>
      <point x="1826" y="673" type="curve" smooth="yes"/>
      <point x="1826" y="985"/>
      <point x="1494" y="1242"/>
      <point x="1089" y="1242" type="curve" smooth="yes"/>
      <point x="1018" y="1242" type="line" smooth="yes"/>
      <point x="548" y="1242"/>
      <point x="169" y="1551"/>
      <point x="169" y="1933" type="curve" smooth="yes"/>
      <point x="169" y="2315"/>
      <point x="548" y="2625"/>
      <point x="1018" y="2625" type="curve" smooth="yes"/>
      <point x="1361" y="2625"/>
      <point x="1655" y="2460"/>
      <point x="1789" y="2223" type="curve" smooth="yes"/>
      <point x="1820" y="2169"/>
      <point x="1867" y="1981"/>
      <point x="1867" y="1933" type="curve" smooth="yes"/>
      <point x="1867" y="1875"/>
      <point x="1820" y="1828"/>
      <point x="1762" y="1828" type="curve" smooth="yes"/>
      <point x="1709" y="1828"/>
      <point x="1665" y="1867"/>
      <point x="1658" y="1918" type="curve" smooth="yes"/>
      <point x="1658" y="1920"/>
      <point x="1640" y="2039"/>
      <point x="1604" y="2124" type="curve"/>
      <point x="1584" y="2158"/>
      <point x="1422" y="2415"/>
      <point x="1018" y="2415" type="curve" smooth="yes"/>
      <point x="667" y="2415"/>
      <point x="379" y="2197"/>
      <point x="379" y="1933" type="curve" smooth="yes"/>
      <point x="379" y="1669"/>
      <point x="667" y="1452"/>
      <point x="1018" y="1452" type="curve" smooth="yes"/>
      <point x="1089" y="1452" type="line" smooth="yes"/>
      <point x="1613" y="1452"/>
      <point x="2036" y="1103"/>
      <point x="2036" y="673" type="curve" smooth="yes"/>
      <point x="2036" y="243"/>
      <point x="1613" y="-105"/>
      <point x="1089" y="-105" type="curve" smooth="yes"/>
      <point x="620" y="-105"/>
      <point x="237" y="172"/>
      <point x="157" y="533" type="curve"/>
      <point x="108" y="724" type="line" smooth="yes"/>
      <point x="106" y="732"/>
      <point x="105" y="741"/>
    </contour>
  </outline>
</glyph>
<glyph name="T" format="2">
  <advance width="2730"/>
  <unicode hex="0054"/>
  <outline>
    <contour>
      <point x="105" y="2519" type="curve" smooth="yes"/>
      <point x="105" y="2520" type="line" smooth="yes"/>
      <point x="105" y="2579"/>
      <point x="153" y="2625"/>
      <point x="210" y="2625" type="curve" smooth="yes"/>
      <point x="2100" y="2625" type="line" smooth="yes"/>
      <point x="2158" y="2625"/>
      <point x="2205" y="2578"/>
      <point x="2205" y="2520" type="curve" smooth="yes"/>
      <point x="2205" y="2519" type="line" smooth="yes"/>
      <point x="2205" y="2461"/>
      <point x="2158" y="2414"/>
      <point x="2100" y="2414" type="curve" smooth="yes"/>
      <point x="1261" y="2414" type="line"/>
      <point x="1261" y="0" type="line" smooth="yes"/>
      <point x="1261" y="-58"/>
      <point x="1214" y="-105"/>
      <point x="1156" y="-105" type="curve" smooth="yes"/>
      <point x="1098" y="-105"/>
      <point x="1051" y="-58"/>
      <point x="1051" y="-0" type="curve" smooth="yes"/>
      <point x="1050" y="2414" type="line"/>
      <point x="210" y="2414" type="line" smooth="yes"/>
      <point x="152" y="2414"/>
      <point x="105" y="2461"/>
    </contour>
  </outline>
</glyph>
<glyph name="U" format="2">
  <advance width="2470"/>
  <unicode hex="0055"/>
  <outline>
    <contour>
      <point x="105" y="675" type="curve" smooth="yes"/>
      <point x="105" y="2520" type="line" smooth="yes"/>
      <point x="105" y="2578"/>
      <point x="152" y="2625"/>
      <point x="210" y="2625" type="curve" smooth="yes"/>
      <point x="268" y="2625"/>
      <point x="315" y="2578"/>
      <point x="315" y="2520" type="curve" smooth="yes"/>
      <point x="315" y="675" type="line" smooth="yes"/>
      <point x="315" y="360"/>
      <point x="635" y="105"/>
      <point x="1025" y="105" type="curve" smooth="yes"/>
      <point x="1415" y="105"/>
      <point x="1735" y="360"/>
      <point x="1735" y="675" type="curve" smooth="yes"/>
      <point x="1735" y="2520" type="line" smooth="yes"/>
      <point x="1735" y="2578"/>
      <point x="1782" y="2625"/>
      <point x="1840" y="2625" type="curve" smooth="yes"/>
      <point x="1898" y="2625"/>
      <point x="1945" y="2578"/>
      <point x="1945" y="2520" type="curve" smooth="yes"/>
      <point x="1945" y="675" type="line" smooth="yes"/>
      <point x="1945" y="244"/>
      <point x="1535" y="-105"/>
      <point x="1025" y="-105" type="curve" smooth="yes"/>
      <point x="515" y="-105"/>
      <point x="105" y="244"/>
    </contour>
  </outline>
</glyph>
<glyph name="V" format="2">
  <advance width="2631"/>
  <unicode hex="0056"/>
  <outline>
    <contour>
      <point x="105" y="2520" type="curve" smooth="yes"/>
      <point x="105" y="2578"/>
      <point x="152" y="2625"/>
      <point x="210" y="2625" type="curve" smooth="yes"/>
      <point x="256" y="2625"/>
      <point x="296" y="2595"/>
      <point x="310" y="2553" type="curve" smooth="yes"/>
      <point x="1106" y="174" type="line"/>
      <point x="1901" y="2553" type="line" smooth="yes"/>
      <point x="1915" y="2595"/>
      <point x="1955" y="2625"/>
      <point x="2001" y="2625" type="curve" smooth="yes"/>
      <point x="2059" y="2625"/>
      <point x="2106" y="2578"/>
      <point x="2106" y="2520" type="curve" smooth="yes"/>
      <point x="2106" y="2508"/>
      <point x="2105" y="2498"/>
      <point x="2101" y="2487" type="curve" smooth="yes"/>
      <point x="1257" y="-33" type="line" smooth="yes"/>
      <point x="1243" y="-76"/>
      <point x="1203" y="-105"/>
      <point x="1158" y="-105" type="curve" smooth="yes"/>
      <point x="1053" y="-105" type="line" smooth="yes"/>
      <point x="1008" y="-105"/>
      <point x="967" y="-76"/>
      <point x="953" y="-33" type="curve" smooth="yes"/>
      <point x="110" y="2487" type="line" smooth="yes"/>
      <point x="106" y="2498"/>
      <point x="105" y="2508"/>
    </contour>
  </outline>
</glyph>
<glyph name="W" format="2">
  <advance width="3276"/>
  <unicode hex="0057"/>
  <outline>
    <contour>
      <point x="105" y="2520" type="curve" smooth="yes"/>
      <point x="105" y="2578"/>
      <point x="152" y="2625"/>
      <point x="210" y="2625" type="curve" smooth="yes"/>
      <point x="260" y="2625"/>
      <point x="303" y="2589"/>
      <point x="313" y="2542" type="curve" smooth="yes"/>
      <point x="799" y="258" type="line"/>
      <point x="1273" y="2489" type="line" smooth="yes"/>
      <point x="1283" y="2537"/>
      <point x="1327" y="2572"/>
      <point x="1376" y="2572" type="curve" smooth="yes"/>
      <point x="1481" y="2572" type="line" smooth="yes"/>
      <point x="1530" y="2572"/>
      <point x="1574" y="2537"/>
      <point x="1584" y="2489" type="curve" smooth="yes"/>
      <point x="2058" y="258" type="line"/>
      <point x="2543" y="2539" type="line" smooth="yes"/>
      <point x="2553" y="2586"/>
      <point x="2596" y="2622"/>
      <point x="2646" y="2622" type="curve" smooth="yes"/>
      <point x="2704" y="2622"/>
      <point x="2751" y="2575"/>
      <point x="2751" y="2517" type="curve" smooth="yes"/>
      <point x="2751" y="2509"/>
      <point x="2750" y="2502"/>
      <point x="2749" y="2495" type="curve" smooth="yes"/>
      <point x="2213" y="-22" type="line" smooth="yes"/>
      <point x="2203" y="-70"/>
      <point x="2159" y="-105"/>
      <point x="2110" y="-105" type="curve" smooth="yes"/>
      <point x="2005" y="-105" type="line" smooth="yes"/>
      <point x="1956" y="-105"/>
      <point x="1912" y="-70"/>
      <point x="1902" y="-22" type="curve" smooth="yes"/>
      <point x="1428" y="2209" type="line"/>
      <point x="954" y="-22" type="line" smooth="yes"/>
      <point x="944" y="-70"/>
      <point x="900" y="-105"/>
      <point x="851" y="-105" type="curve" smooth="yes"/>
      <point x="746" y="-105" type="line" smooth="yes"/>
      <point x="697" y="-105"/>
      <point x="653" y="-70"/>
      <point x="643" y="-22" type="curve" smooth="yes"/>
      <point x="107" y="2498" type="line" smooth="yes"/>
      <point x="105" y="2505"/>
      <point x="105" y="2512"/>
    </contour>
  </outline>
</glyph>
<glyph name="X" format="2">
  <advance width="2620"/>
  <unicode hex="0058"/>
  <outline>
    <contour>
      <point x="105" y="0" type="curve" smooth="yes"/>
      <point x="105" y="22"/>
      <point x="112" y="42"/>
      <point x="123" y="59" type="curve" smooth="yes"/>
      <point x="973" y="1320" type="line"/>
      <point x="204" y="2461" type="line" smooth="yes"/>
      <point x="197" y="2472"/>
      <point x="186" y="2493"/>
      <point x="186" y="2520" type="curve" smooth="yes"/>
      <point x="186" y="2578"/>
      <point x="233" y="2625"/>
      <point x="291" y="2625" type="curve" smooth="yes"/>
      <point x="292" y="2625" type="line" smooth="yes"/>
      <point x="327" y="2625"/>
      <point x="360" y="2608"/>
      <point x="379" y="2579" type="curve" smooth="yes"/>
      <point x="1100" y="1508" type="line"/>
      <point x="1821" y="2579" type="line" smooth="yes"/>
      <point x="1840" y="2608"/>
      <point x="1873" y="2625"/>
      <point x="1908" y="2625" type="curve"/>
      <point x="1909" y="2625" type="line"/>
      <point x="1967" y="2625"/>
      <point x="2014" y="2578"/>
      <point x="2014" y="2520" type="curve" smooth="yes"/>
      <point x="2014" y="2507"/>
      <point x="2011" y="2484"/>
      <point x="1996" y="2461" type="curve" smooth="yes"/>
      <point x="1227" y="1320" type="line"/>
      <point x="2077" y="59" type="line" smooth="yes"/>
      <point x="2088" y="42"/>
      <point x="2095" y="22"/>
      <point x="2095" y="0" type="curve" smooth="yes"/>
      <point x="2095" y="-58"/>
      <point x="2048" y="-105"/>
      <point x="1990" y="-105" type="curve" smooth="yes"/>
      <point x="1954" y="-105"/>
      <point x="1922" y="-87"/>
      <point x="1903" y="-59" type="curve" smooth="yes"/>
      <point x="1100" y="1132" type="line"/>
      <point x="297" y="-59" type="line" smooth="yes"/>
      <point x="278" y="-87"/>
      <point x="246" y="-105"/>
      <point x="210" y="-105" type="curve" smooth="yes"/>
      <point x="152" y="-105"/>
      <point x="105" y="-58"/>
    </contour>
  </outline>
</glyph>
<glyph name="Y" format="2">
  <advance width="2494"/>
  <unicode hex="0059"/>
  <outline>
    <contour>
      <point x="105" y="2520" type="curve" smooth="yes"/>
      <point x="105" y="2578"/>
      <point x="152" y="2625"/>
      <point x="210" y="2625" type="curve" smooth="yes"/>
      <point x="246" y="2625"/>
      <point x="277" y="2607"/>
      <point x="296" y="2580" type="curve" smooth="yes"/>
      <point x="1037" y="1521" type="line"/>
      <point x="1778" y="2580" type="line" smooth="yes"/>
      <point x="1797" y="2607"/>
      <point x="1828" y="2625"/>
      <point x="1864" y="2625" type="curve" smooth="yes"/>
      <point x="1922" y="2625"/>
      <point x="1969" y="2578"/>
      <point x="1969" y="2520" type="curve" smooth="yes"/>
      <point x="1969" y="2498"/>
      <point x="1962" y="2477"/>
      <point x="1950" y="2460" type="curve" smooth="yes"/>
      <point x="1143" y="1306" type="line"/>
      <point x="1143" y="-0" type="line" smooth="yes"/>
      <point x="1143" y="-58"/>
      <point x="1096" y="-105"/>
      <point x="1038" y="-105" type="curve"/>
      <point x="1037" y="-105" type="line"/>
      <point x="979" y="-105"/>
      <point x="932" y="-58"/>
      <point x="932" y="0" type="curve" smooth="yes"/>
      <point x="932" y="1306" type="line"/>
      <point x="124" y="2460" type="line" smooth="yes"/>
      <point x="112" y="2477"/>
      <point x="105" y="2498"/>
    </contour>
  </outline>
</glyph>
<glyph name="Z" format="2">
  <advance width="2579"/>
  <unicode hex="005A"/>
  <outline>
    <contour>
      <point x="105" y="105" type="line" smooth="yes"/>
      <point x="105" y="127"/>
      <point x="112" y="147"/>
      <point x="124" y="165" type="curve" smooth="yes"/>
      <point x="1699" y="2415" type="line"/>
      <point x="332" y="2415" type="line" smooth="yes"/>
      <point x="274" y="2415"/>
      <point x="227" y="2462"/>
      <point x="227" y="2520" type="curve" smooth="yes"/>
      <point x="227" y="2578"/>
      <point x="274" y="2625"/>
      <point x="332" y="2625" type="curve" smooth="yes"/>
      <point x="1827" y="2625" type="line" smooth="yes"/>
      <point x="1885" y="2625"/>
      <point x="1932" y="2578"/>
      <point x="1932" y="2520" type="curve" smooth="yes"/>
      <point x="1932" y="2415" type="line" smooth="yes"/>
      <point x="1932" y="2393"/>
      <point x="1925" y="2373"/>
      <point x="1913" y="2355" type="curve" smooth="yes"/>
      <point x="338" y="105" type="line"/>
      <point x="1949" y="105" type="line" smooth="yes"/>
      <point x="2007" y="105"/>
      <point x="2054" y="58"/>
      <point x="2054" y="0" type="curve" smooth="yes"/>
      <point x="2054" y="-58"/>
      <point x="2007" y="-105"/>
      <point x="1949" y="-105" type="curve" smooth="yes"/>
      <point x="210" y="-105" type="line" smooth="yes"/>
      <point x="153" y="-105"/>
      <point x="105" y="-59"/>
      <point x="105" y="0" type="curve" smooth="yes"/>
    </contour>
  </outline>
</glyph>
<glyph name="bracketleft" format="2">
  <advance width="1640"/>
  <unicode hex="005B"/>
  <outline>
    <contour>
      <point x="105" y="-280" type="curve" smooth="yes"/>
      <point x="105" y="2730" type="line" smooth="yes"/>
      <point x="105" y="2789"/>
      <point x="153" y="2835"/>
      <point x="210" y="2835" type="curve" smooth="yes"/>
      <point x="1010" y="2835" type="line" smooth="yes"/>
      <point x="1068" y="2835"/>
      <point x="1115" y="2788"/>
      <point x="1115" y="2730" type="curve" smooth="yes"/>
      <point x="1115" y="2672"/>
      <point x="1068" y="2625"/>
      <point x="1010" y="2625" type="curve" smooth="yes"/>
      <point x="315" y="2625" type="line"/>
      <point x="315" y="-175" type="line"/>
      <point x="1010" y="-175" type="line" smooth="yes"/>
      <point x="1068" y="-175"/>
      <point x="1115" y="-222"/>
      <point x="1115" y="-280" type="curve" smooth="yes"/>
      <point x="1115" y="-338"/>
      <point x="1068" y="-385"/>
      <point x="1010" y="-385" type="curve" smooth="yes"/>
      <point x="210" y="-385" type="line" smooth="yes"/>
      <point x="152" y="-385"/>
      <point x="105" y="-338"/>
    </contour>
  </outline>
</glyph>
<glyph name="backslash" format="2">
  <advance width="2470"/>
  <unicode hex="005C"/>
  <outline>
    <contour>
      <point x="105" y="2660" type="curve" smooth="yes"/>
      <point x="105" y="2718"/>
      <point x="152" y="2765"/>
      <point x="210" y="2765" type="curve" smooth="yes"/>
      <point x="249" y="2765"/>
      <point x="283" y="2744"/>
      <point x="301" y="2713" type="curve" smooth="yes"/>
      <point x="1931" y="-87" type="line" smooth="yes"/>
      <point x="1940" y="-102"/>
      <point x="1945" y="-121"/>
      <point x="1945" y="-140" type="curve" smooth="yes"/>
      <point x="1945" y="-198"/>
      <point x="1898" y="-245"/>
      <point x="1840" y="-245" type="curve" smooth="yes"/>
      <point x="1801" y="-245"/>
      <point x="1767" y="-224"/>
      <point x="1749" y="-193" type="curve" smooth="yes"/>
      <point x="119" y="2607" type="line" smooth="yes"/>
      <point x="110" y="2623"/>
      <point x="105" y="2641"/>
    </contour>
  </outline>
</glyph>
<glyph name="bracketright" format="2">
  <advance width="1640"/>
  <unicode hex="005D"/>
  <outline>
    <contour>
      <point x="105" y="-280" type="curve" smooth="yes"/>
      <point x="105" y="-222"/>
      <point x="152" y="-175"/>
      <point x="210" y="-175" type="curve" smooth="yes"/>
      <point x="905" y="-175" type="line"/>
      <point x="905" y="2625" type="line"/>
      <point x="210" y="2625" type="line" smooth="yes"/>
      <point x="152" y="2625"/>
      <point x="105" y="2672"/>
      <point x="105" y="2730" type="curve" smooth="yes"/>
      <point x="105" y="2788"/>
      <point x="152" y="2835"/>
      <point x="210" y="2835" type="curve" smooth="yes"/>
      <point x="1010" y="2835" type="line" smooth="yes"/>
      <point x="1068" y="2835"/>
      <point x="1115" y="2788"/>
      <point x="1115" y="2730" type="curve" smooth="yes"/>
      <point x="1115" y="-280" type="line" smooth="yes"/>
      <point x="1115" y="-338"/>
      <point x="1068" y="-385"/>
      <point x="1010" y="-385" type="curve" smooth="yes"/>
      <point x="210" y="-385" type="line" smooth="yes"/>
      <point x="152" y="-385"/>
      <point x="105" y="-338"/>
    </contour>
  </outline>
</glyph>
<glyph name="asciicircum" format="2">
  <advance width="1732"/>
  <unicode hex="005E"/>
  <outline>
    <contour>
      <point x="105" y="1748" type="curve" smooth="yes"/>
      <point x="105" y="1767"/>
      <point x="110" y="1785"/>
      <point x="119" y="1800" type="curve" smooth="yes"/>
      <point x="565" y="2572" type="line" smooth="yes"/>
      <point x="584" y="2604"/>
      <point x="618" y="2625"/>
      <point x="656" y="2625" type="curve" smooth="yes"/>
      <point x="668" y="2625"/>
      <point x="718" y="2621"/>
      <point x="747" y="2572" type="curve" smooth="yes"/>
      <point x="1193" y="1800" type="line" smooth="yes"/>
      <point x="1202" y="1785"/>
      <point x="1207" y="1767"/>
      <point x="1207" y="1748" type="curve" smooth="yes"/>
      <point x="1207" y="1690"/>
      <point x="1160" y="1643"/>
      <point x="1102" y="1643" type="curve" smooth="yes"/>
      <point x="1063" y="1643"/>
      <point x="1029" y="1664"/>
      <point x="1011" y="1695" type="curve" smooth="yes"/>
      <point x="656" y="2310" type="line"/>
      <point x="301" y="1695" type="line" smooth="yes"/>
      <point x="283" y="1664"/>
      <point x="249" y="1643"/>
      <point x="210" y="1643" type="curve" smooth="yes"/>
      <point x="152" y="1643"/>
      <point x="105" y="1690"/>
    </contour>
  </outline>
</glyph>
<glyph name="grave" format="2">
  <advance width="1084"/>
  <unicode hex="0060"/>
  <outline>
    <contour>
      <point x="104" y="2450" type="curve" smooth="yes"/>
      <point x="104" y="2546"/>
      <point x="183" y="2625"/>
      <point x="280" y="2625" type="curve" smooth="yes"/>
      <point x="341" y="2625"/>
      <point x="399" y="2593"/>
      <point x="431" y="2537" type="curve" smooth="yes"/>
      <point x="466" y="2476" type="line" smooth="yes"/>
      <point x="470" y="2469"/>
      <point x="474" y="2461"/>
      <point x="476" y="2453" type="curve" smooth="yes"/>
      <point x="556" y="2175" type="line" smooth="yes"/>
      <point x="559" y="2166"/>
      <point x="560" y="2157"/>
      <point x="560" y="2147" type="curve" smooth="yes"/>
      <point x="560" y="2089"/>
      <point x="512" y="2042"/>
      <point x="455" y="2042" type="curve" smooth="yes"/>
      <point x="428" y="2042"/>
      <point x="400" y="2052"/>
      <point x="379" y="2074" type="curve" smooth="yes"/>
      <point x="179" y="2281" type="line" smooth="yes"/>
      <point x="173" y="2287"/>
      <point x="167" y="2294"/>
      <point x="163" y="2302" type="curve" smooth="yes"/>
      <point x="128" y="2362" type="line" smooth="yes"/>
      <point x="112" y="2389"/>
      <point x="104" y="2420"/>
    </contour>
  </outline>
</glyph>
<glyph name="a" format="2">
  <advance width="1995"/>
  <unicode hex="0061"/>
  <outline>
    <contour>
      <point x="700" y="-125" type="curve" smooth="yes"/>
      <point x="399" y="-125"/>
      <point x="105" y="23"/>
      <point x="105" y="315" type="curve" smooth="yes"/>
      <point x="105" y="847"/>
      <point x="741" y="949"/>
      <point x="1050" y="967" type="curve"/>
      <point x="1050" y="1046"/>
      <point x="1050" y="1100"/>
      <point x="1050" y="1100" type="curve" smooth="yes"/>
      <point x="1050" y="1270"/>
      <point x="914" y="1435"/>
      <point x="690" y="1435" type="curve" smooth="yes"/>
      <point x="437" y="1435"/>
      <point x="347" y="1320"/>
      <point x="313" y="1165" type="curve" smooth="yes"/>
      <point x="303" y="1118"/>
      <point x="260" y="1083"/>
      <point x="210" y="1083" type="curve" smooth="yes"/>
      <point x="152" y="1083"/>
      <point x="105" y="1130"/>
      <point x="105" y="1188" type="curve" smooth="yes"/>
      <point x="105" y="1195"/>
      <point x="145" y="1645"/>
      <point x="690" y="1645" type="curve" smooth="yes"/>
      <point x="1026" y="1645"/>
      <point x="1260" y="1390"/>
      <point x="1260" y="1100" type="curve" smooth="yes"/>
      <point x="1260" y="874" type="line" smooth="yes"/>
      <point x="1260" y="871"/>
      <point x="1260" y="869"/>
      <point x="1260" y="866" type="curve" smooth="yes"/>
      <point x="1260" y="280" type="line" smooth="yes"/>
      <point x="1260" y="133"/>
      <point x="1303" y="82"/>
      <point x="1325" y="81" type="curve" smooth="yes"/>
      <point x="1382" y="81"/>
      <point x="1454" y="92"/>
      <point x="1454" y="92" type="curve" smooth="yes"/>
      <point x="1458" y="93"/>
      <point x="1463" y="93"/>
      <point x="1470" y="93" type="curve" smooth="yes"/>
      <point x="1528" y="93"/>
      <point x="1575" y="46"/>
      <point x="1575" y="-12" type="curve" smooth="yes"/>
      <point x="1575" y="-83"/>
      <point x="1535" y="-129"/>
      <point x="1325" y="-129" type="curve" smooth="yes"/>
      <point x="1244" y="-129"/>
      <point x="1162" y="-84"/>
      <point x="1110" y="5" type="curve"/>
      <point x="1002" y="-82"/>
      <point x="847" y="-125"/>
    </contour>
    <contour>
      <point x="700" y="85" type="curve" smooth="yes"/>
      <point x="773" y="85"/>
      <point x="1049" y="112"/>
      <point x="1049" y="315" type="curve" smooth="yes"/>
      <point x="1049" y="315"/>
      <point x="1050" y="546"/>
      <point x="1050" y="757" type="curve"/>
      <point x="968" y="752"/>
      <point x="853" y="740"/>
      <point x="759" y="715" type="curve" smooth="yes"/>
      <point x="422" y="625"/>
      <point x="315" y="504"/>
      <point x="315" y="315" type="curve" smooth="yes"/>
      <point x="315" y="134"/>
      <point x="566" y="85"/>
    </contour>
  </outline>
</glyph>
<glyph name="b" format="2">
  <advance width="1785"/>
  <unicode hex="0062"/>
  <outline>
    <contour>
      <point x="105" y="-0" type="curve" smooth="yes"/>
      <point x="105" y="2520" type="line" smooth="yes"/>
      <point x="105" y="2578"/>
      <point x="152" y="2625"/>
      <point x="210" y="2625" type="curve" smooth="yes"/>
      <point x="268" y="2625"/>
      <point x="315" y="2578"/>
      <point x="315" y="2520" type="curve" smooth="yes"/>
      <point x="315" y="1527" type="line"/>
      <point x="404" y="1600"/>
      <point x="511" y="1645"/>
      <point x="630" y="1645" type="curve" smooth="yes"/>
      <point x="981" y="1645"/>
      <point x="1260" y="1250"/>
      <point x="1260" y="758" type="curve" smooth="yes"/>
      <point x="1260" y="266"/>
      <point x="981" y="-129"/>
      <point x="630" y="-129" type="curve" smooth="yes"/>
      <point x="512" y="-129"/>
      <point x="404" y="-87"/>
      <point x="314" y="-15" type="curve"/>
      <point x="307" y="-66"/>
      <point x="263" y="-105"/>
      <point x="210" y="-105" type="curve" smooth="yes"/>
      <point x="152" y="-105"/>
      <point x="105" y="-58"/>
    </contour>
    <contour>
      <point x="315" y="311" type="line"/>
      <point x="359" y="228"/>
      <point x="461" y="81"/>
      <point x="630" y="81" type="curve" smooth="yes"/>
      <point x="855" y="81"/>
      <point x="1050" y="385"/>
      <point x="1050" y="758" type="curve" smooth="yes"/>
      <point x="1050" y="1131"/>
      <point x="855" y="1435"/>
      <point x="630" y="1435" type="curve" smooth="yes"/>
      <point x="516" y="1435"/>
      <point x="399" y="1356"/>
      <point x="315" y="1197" type="curve"/>
    </contour>
  </outline>
</glyph>
<glyph name="c" format="2">
  <advance width="1848"/>
  <unicode hex="0063"/>
  <outline>
    <contour>
      <point x="746" y="1645" type="curve" smooth="yes"/>
      <point x="1161" y="1645"/>
      <point x="1284" y="1215"/>
      <point x="1284" y="1093" type="curve" smooth="yes"/>
      <point x="1284" y="1035"/>
      <point x="1237" y="988"/>
      <point x="1179" y="988" type="curve" smooth="yes"/>
      <point x="1125" y="988"/>
      <point x="1081" y="1028"/>
      <point x="1075" y="1080" type="curve" smooth="yes"/>
      <point x="1068" y="1136"/>
      <point x="1018" y="1435"/>
      <point x="746" y="1435" type="curve" smooth="yes"/>
      <point x="515" y="1435"/>
      <point x="315" y="1131"/>
      <point x="315" y="758" type="curve" smooth="yes"/>
      <point x="315" y="385"/>
      <point x="515" y="81"/>
      <point x="746" y="81" type="curve" smooth="yes"/>
      <point x="954" y="81"/>
      <point x="1097" y="255"/>
      <point x="1114" y="457" type="curve" smooth="yes"/>
      <point x="1118" y="511"/>
      <point x="1163" y="553"/>
      <point x="1218" y="553" type="curve" smooth="yes"/>
      <point x="1276" y="553"/>
      <point x="1323" y="506"/>
      <point x="1323" y="448" type="curve" smooth="yes"/>
      <point x="1323" y="445"/>
      <point x="1323" y="442"/>
      <point x="1323" y="439" type="curve" smooth="yes"/>
      <point x="1297" y="124"/>
      <point x="1060" y="-129"/>
      <point x="746" y="-129" type="curve" smooth="yes"/>
      <point x="390" y="-129"/>
      <point x="105" y="266"/>
      <point x="105" y="758" type="curve" smooth="yes"/>
      <point x="105" y="1250"/>
      <point x="390" y="1645"/>
    </contour>
  </outline>
</glyph>
<glyph name="d" format="2">
  <advance width="1785"/>
  <unicode hex="0064"/>
  <outline>
    <contour>
      <point x="105" y="758" type="curve" smooth="yes"/>
      <point x="105" y="1250"/>
      <point x="384" y="1645"/>
      <point x="735" y="1645" type="curve" smooth="yes"/>
      <point x="854" y="1645"/>
      <point x="961" y="1600"/>
      <point x="1050" y="1527" type="curve"/>
      <point x="1050" y="2520" type="line" smooth="yes"/>
      <point x="1050" y="2578"/>
      <point x="1097" y="2625"/>
      <point x="1155" y="2625" type="curve" smooth="yes"/>
      <point x="1213" y="2625"/>
      <point x="1260" y="2578"/>
      <point x="1260" y="2520" type="curve" smooth="yes"/>
      <point x="1260" y="-0" type="line" smooth="yes"/>
      <point x="1260" y="-58"/>
      <point x="1213" y="-105"/>
      <point x="1155" y="-105" type="curve" smooth="yes"/>
      <point x="1102" y="-105"/>
      <point x="1058" y="-66"/>
      <point x="1051" y="-15" type="curve"/>
      <point x="961" y="-87"/>
      <point x="853" y="-129"/>
      <point x="735" y="-129" type="curve" smooth="yes"/>
      <point x="384" y="-129"/>
      <point x="105" y="266"/>
    </contour>
    <contour>
      <point x="735" y="81" type="curve" smooth="yes"/>
      <point x="804" y="81"/>
      <point x="942" y="109"/>
      <point x="1050" y="311" type="curve"/>
      <point x="1050" y="1197" type="line"/>
      <point x="966" y="1356"/>
      <point x="849" y="1435"/>
      <point x="735" y="1435" type="curve" smooth="yes"/>
      <point x="510" y="1435"/>
      <point x="315" y="1131"/>
      <point x="315" y="758" type="curve" smooth="yes"/>
      <point x="315" y="385"/>
      <point x="510" y="81"/>
    </contour>
  </outline>
</glyph>
<glyph name="e" format="2">
  <advance width="1854"/>
  <unicode hex="0065"/>
  <outline>
    <contour>
      <point x="1329" y="433" type="curve" smooth="yes"/>
      <point x="1329" y="353"/>
      <point x="1157" y="-129"/>
      <point x="735" y="-129" type="curve" smooth="yes"/>
      <point x="386" y="-129"/>
      <point x="105" y="261"/>
      <point x="105" y="748" type="curve" smooth="yes"/>
      <point x="105" y="1243"/>
      <point x="380" y="1645"/>
      <point x="735" y="1645" type="curve" smooth="yes"/>
      <point x="1125" y="1645"/>
      <point x="1329" y="1169"/>
      <point x="1329" y="948" type="curve" smooth="yes"/>
      <point x="1329" y="925"/>
      <point x="1324" y="771"/>
      <point x="1190" y="771" type="curve" smooth="yes"/>
      <point x="315" y="771" type="line"/>
      <point x="315" y="763"/>
      <point x="315" y="756"/>
      <point x="315" y="748" type="curve" smooth="yes"/>
      <point x="315" y="379"/>
      <point x="512" y="81"/>
      <point x="735" y="81" type="curve" smooth="yes"/>
      <point x="781" y="81"/>
      <point x="1022" y="98"/>
      <point x="1123" y="461" type="curve" smooth="yes"/>
      <point x="1135" y="505"/>
      <point x="1176" y="538"/>
      <point x="1224" y="538" type="curve" smooth="yes"/>
      <point x="1282" y="538"/>
      <point x="1329" y="491"/>
    </contour>
    <contour>
      <point x="341" y="981" type="curve"/>
      <point x="1116" y="981" type="line"/>
      <point x="1098" y="1121"/>
      <point x="965" y="1435"/>
      <point x="735" y="1435" type="curve" smooth="yes"/>
      <point x="555" y="1435"/>
      <point x="400" y="1241"/>
    </contour>
  </outline>
</glyph>
<glyph name="f" format="2">
  <advance width="1889"/>
  <unicode hex="0066"/>
  <outline>
    <contour>
      <point x="-1" y="1590" type="curve" smooth="yes"/>
      <point x="-1" y="1648"/>
      <point x="46" y="1695"/>
      <point x="104" y="1695" type="curve" smooth="yes"/>
      <point x="419" y="1696" type="line"/>
      <point x="420" y="2101" type="line" smooth="yes"/>
      <point x="420" y="2391"/>
      <point x="654" y="2626"/>
      <point x="944" y="2626" type="curve" smooth="yes"/>
      <point x="1234" y="2626"/>
      <point x="1469" y="2391"/>
      <point x="1469" y="2101" type="curve" smooth="yes"/>
      <point x="1469" y="2046" type="line" smooth="yes"/>
      <point x="1469" y="1988"/>
      <point x="1422" y="1941"/>
      <point x="1364" y="1941" type="curve" smooth="yes"/>
      <point x="1306" y="1941"/>
      <point x="1259" y="1988"/>
      <point x="1259" y="2046" type="curve" smooth="yes"/>
      <point x="1259" y="2101" type="line" smooth="yes"/>
      <point x="1259" y="2275"/>
      <point x="1118" y="2416"/>
      <point x="944" y="2416" type="curve" smooth="yes"/>
      <point x="770" y="2416"/>
      <point x="630" y="2275"/>
      <point x="630" y="2101" type="curve" smooth="yes"/>
      <point x="629" y="1696" type="line"/>
      <point x="1084" y="1695" type="line" smooth="yes"/>
      <point x="1142" y="1695"/>
      <point x="1189" y="1648"/>
      <point x="1189" y="1590" type="curve" smooth="yes"/>
      <point x="1189" y="1532"/>
      <point x="1142" y="1485"/>
      <point x="1084" y="1485" type="curve" smooth="yes"/>
      <point x="629" y="1485" type="line"/>
      <point x="629" y="1" type="line" smooth="yes"/>
      <point x="629" y="-57"/>
      <point x="582" y="-104"/>
      <point x="524" y="-104" type="curve" smooth="yes"/>
      <point x="466" y="-104"/>
      <point x="419" y="-57"/>
      <point x="419" y="1" type="curve" smooth="yes"/>
      <point x="419" y="1485" type="line"/>
      <point x="104" y="1485" type="line" smooth="yes"/>
      <point x="46" y="1485"/>
      <point x="-1" y="1532"/>
    </contour>
  </outline>
</glyph>
<glyph name="g" format="2">
  <advance width="1799"/>
  <unicode hex="0067"/>
  <outline>
    <contour>
      <point x="1378" y="-176" type="curve" smooth="yes"/>
      <point x="1378" y="-382"/>
      <point x="1133" y="-528"/>
      <point x="788" y="-528" type="curve" smooth="yes"/>
      <point x="408" y="-528"/>
      <point x="52" y="-352"/>
      <point x="52" y="-104" type="curve" smooth="yes"/>
      <point x="52" y="-49"/>
      <point x="71" y="49"/>
      <point x="188" y="131" type="curve"/>
      <point x="136" y="203"/>
      <point x="105" y="291"/>
      <point x="105" y="386" type="curve" smooth="yes"/>
      <point x="105" y="523"/>
      <point x="169" y="646"/>
      <point x="269" y="726" type="curve"/>
      <point x="225" y="782"/>
      <point x="148" y="905"/>
      <point x="148" y="1080" type="curve" smooth="yes"/>
      <point x="148" y="1350"/>
      <point x="335" y="1569"/>
      <point x="580" y="1584" type="curve"/>
      <point x="616" y="1718"/>
      <point x="738" y="1817"/>
      <point x="884" y="1817" type="curve" smooth="yes"/>
      <point x="938" y="1817"/>
      <point x="1043" y="1804"/>
      <point x="1043" y="1705" type="curve" smooth="yes"/>
      <point x="1043" y="1647"/>
      <point x="996" y="1600"/>
      <point x="938" y="1600" type="curve" smooth="yes"/>
      <point x="914" y="1600"/>
      <point x="908" y="1607"/>
      <point x="884" y="1607" type="curve" smooth="yes"/>
      <point x="841" y="1607"/>
      <point x="804" y="1581"/>
      <point x="788" y="1544" type="curve"/>
      <point x="974" y="1460"/>
      <point x="1096" y="1260"/>
      <point x="1096" y="1041" type="curve" smooth="yes"/>
      <point x="1096" y="760"/>
      <point x="894" y="537"/>
      <point x="639" y="537" type="curve" smooth="yes"/>
      <point x="568" y="537"/>
      <point x="498" y="555"/>
      <point x="437" y="586" type="curve"/>
      <point x="364" y="549"/>
      <point x="315" y="473"/>
      <point x="315" y="386" type="curve" smooth="yes"/>
      <point x="315" y="320"/>
      <point x="344" y="260"/>
      <point x="390" y="219" type="curve"/>
      <point x="467" y="239"/>
      <point x="552" y="248"/>
      <point x="642" y="248" type="curve" smooth="yes"/>
      <point x="1022" y="248"/>
      <point x="1378" y="72"/>
    </contour>
    <contour>
      <point x="1168" y="-176" type="curve" smooth="yes"/>
      <point x="1168" y="-99"/>
      <point x="951" y="38"/>
      <point x="642" y="38" type="curve" smooth="yes"/>
      <point x="407" y="38"/>
      <point x="262" y="-46"/>
      <point x="262" y="-104" type="curve" smooth="yes"/>
      <point x="262" y="-181"/>
      <point x="479" y="-318"/>
      <point x="788" y="-318" type="curve" smooth="yes"/>
      <point x="1023" y="-318"/>
      <point x="1168" y="-234"/>
    </contour>
    <contour>
      <point x="358" y="1080" type="curve" smooth="yes"/>
      <point x="358" y="898"/>
      <point x="490" y="747"/>
      <point x="639" y="747" type="curve" smooth="yes"/>
      <point x="783" y="747"/>
      <point x="886" y="883"/>
      <point x="886" y="1041" type="curve" smooth="yes"/>
      <point x="886" y="1224"/>
      <point x="754" y="1374"/>
      <point x="605" y="1374" type="curve" smooth="yes"/>
      <point x="461" y="1374"/>
      <point x="358" y="1238"/>
    </contour>
  </outline>
</glyph>
<glyph name="h" format="2">
  <advance width="1784"/>
  <unicode hex="0068"/>
  <outline>
    <contour>
      <point x="105" y="-0" type="curve" smooth="yes"/>
      <point x="105" y="2520" type="line" smooth="yes"/>
      <point x="105" y="2578"/>
      <point x="152" y="2625"/>
      <point x="210" y="2625" type="curve" smooth="yes"/>
      <point x="268" y="2625"/>
      <point x="315" y="2578"/>
      <point x="315" y="2520" type="curve" smooth="yes"/>
      <point x="315" y="1513" type="line"/>
      <point x="415" y="1595"/>
      <point x="542" y="1645"/>
      <point x="682" y="1645" type="curve" smooth="yes"/>
      <point x="1001" y="1645"/>
      <point x="1259" y="1387"/>
      <point x="1259" y="1068" type="curve" smooth="yes"/>
      <point x="1259" y="0" type="line" smooth="yes"/>
      <point x="1259" y="-58"/>
      <point x="1212" y="-105"/>
      <point x="1154" y="-105" type="curve" smooth="yes"/>
      <point x="1096" y="-105"/>
      <point x="1049" y="-58"/>
      <point x="1049" y="0" type="curve" smooth="yes"/>
      <point x="1049" y="1068" type="line" smooth="yes"/>
      <point x="1049" y="1271"/>
      <point x="885" y="1435"/>
      <point x="682" y="1435" type="curve" smooth="yes"/>
      <point x="479" y="1435"/>
      <point x="316" y="1271"/>
      <point x="316" y="1068" type="curve" smooth="yes"/>
      <point x="315" y="-0" type="line" smooth="yes"/>
      <point x="315" y="-58"/>
      <point x="268" y="-105"/>
      <point x="210" y="-105" type="curve" smooth="yes"/>
      <point x="152" y="-105"/>
      <point x="105" y="-58"/>
    </contour>
  </outline>
</glyph>
<glyph name="i" format="2">
  <advance width="840"/>
  <unicode hex="0069"/>
  <outline>
    <contour>
      <point x="53" y="2345" type="curve" smooth="yes"/>
      <point x="53" y="2432"/>
      <point x="123" y="2502"/>
      <point x="210" y="2502" type="curve" smooth="yes"/>
      <point x="297" y="2502"/>
      <point x="368" y="2432"/>
      <point x="368" y="2345" type="curve" smooth="yes"/>
      <point x="368" y="2258"/>
      <point x="297" y="2188"/>
      <point x="210" y="2188" type="curve" smooth="yes"/>
      <point x="123" y="2188"/>
      <point x="53" y="2258"/>
    </contour>
    <contour>
      <point x="105" y="0" type="curve" smooth="yes"/>
      <point x="105" y="1540" type="line" smooth="yes"/>
      <point x="105" y="1598"/>
      <point x="152" y="1645"/>
      <point x="210" y="1645" type="curve" smooth="yes"/>
      <point x="268" y="1645"/>
      <point x="315" y="1598"/>
      <point x="315" y="1540" type="curve" smooth="yes"/>
      <point x="315" y="0" type="line" smooth="yes"/>
      <point x="315" y="-58"/>
      <point x="268" y="-105"/>
      <point x="210" y="-105" type="curve" smooth="yes"/>
      <point x="152" y="-105"/>
      <point x="105" y="-58"/>
    </contour>
    <contour>
      <point x="158" y="2345" type="line"/>
      <point x="210" y="2292" type="line"/>
      <point x="263" y="2345" type="line"/>
      <point x="210" y="2398" type="line"/>
    </contour>
  </outline>
</glyph>
<glyph name="j" format="2">
  <advance width="1293"/>
  <unicode hex="006A"/>
  <outline>
    <contour>
      <point x="-2" y="0" type="line" smooth="yes"/>
      <point x="-2" y="58"/>
      <point x="45" y="105"/>
      <point x="103" y="105" type="curve" smooth="yes"/>
      <point x="161" y="105"/>
      <point x="208" y="58"/>
      <point x="208" y="0" type="curve" smooth="yes"/>
      <point x="208" y="-55" type="line" smooth="yes"/>
      <point x="208" y="-152"/>
      <point x="286" y="-230"/>
      <point x="383" y="-230" type="curve" smooth="yes"/>
      <point x="480" y="-230"/>
      <point x="558" y="-152"/>
      <point x="558" y="-55" type="curve" smooth="yes"/>
      <point x="558" y="1540" type="line" smooth="yes"/>
      <point x="558" y="1598"/>
      <point x="605" y="1645"/>
      <point x="663" y="1645" type="curve" smooth="yes"/>
      <point x="721" y="1645"/>
      <point x="768" y="1598"/>
      <point x="768" y="1540" type="curve" smooth="yes"/>
      <point x="768" y="-55" type="line" smooth="yes"/>
      <point x="768" y="-268"/>
      <point x="596" y="-440"/>
      <point x="383" y="-440" type="curve" smooth="yes"/>
      <point x="170" y="-440"/>
      <point x="-2" y="-268"/>
      <point x="-2" y="-55" type="curve" smooth="yes"/>
    </contour>
    <contour>
      <point x="506" y="2345" type="curve" smooth="yes"/>
      <point x="506" y="2432"/>
      <point x="577" y="2502"/>
      <point x="664" y="2502" type="curve" smooth="yes"/>
      <point x="751" y="2502"/>
      <point x="821" y="2432"/>
      <point x="821" y="2345" type="curve" smooth="yes"/>
      <point x="821" y="2258"/>
      <point x="751" y="2188"/>
      <point x="664" y="2188" type="curve" smooth="yes"/>
      <point x="577" y="2188"/>
      <point x="506" y="2258"/>
    </contour>
    <contour>
      <point x="611" y="2345" type="line"/>
      <point x="664" y="2292" type="line"/>
      <point x="716" y="2345" type="line"/>
      <point x="664" y="2398" type="line"/>
    </contour>
  </outline>
</glyph>
<glyph name="k" format="2">
  <advance width="1844"/>
  <unicode hex="006B"/>
  <outline>
    <contour>
      <point x="105" y="-0" type="curve" smooth="yes"/>
      <point x="105" y="0"/>
      <point x="105" y="280"/>
      <point x="105" y="653" type="curve" smooth="yes"/>
      <point x="105" y="1400"/>
      <point x="105" y="2520"/>
      <point x="105" y="2520" type="curve" smooth="yes"/>
      <point x="105" y="2578"/>
      <point x="152" y="2625"/>
      <point x="210" y="2625" type="curve" smooth="yes"/>
      <point x="268" y="2625"/>
      <point x="315" y="2578"/>
      <point x="315" y="2520" type="curve" smooth="yes"/>
      <point x="315" y="684" type="line"/>
      <point x="1140" y="1509" type="line" smooth="yes"/>
      <point x="1159" y="1528"/>
      <point x="1185" y="1540"/>
      <point x="1214" y="1540" type="curve" smooth="yes"/>
      <point x="1272" y="1540"/>
      <point x="1319" y="1493"/>
      <point x="1319" y="1435" type="curve" smooth="yes"/>
      <point x="1319" y="1406"/>
      <point x="1307" y="1380"/>
      <point x="1288" y="1361" type="curve" smooth="yes"/>
      <point x="886" y="958" type="line"/>
      <point x="1409" y="52" type="line" smooth="yes"/>
      <point x="1418" y="36"/>
      <point x="1423" y="19"/>
      <point x="1423" y="-0" type="curve" smooth="yes"/>
      <point x="1423" y="-58"/>
      <point x="1376" y="-105"/>
      <point x="1318" y="-105" type="curve" smooth="yes"/>
      <point x="1279" y="-105"/>
      <point x="1245" y="-84"/>
      <point x="1227" y="-53" type="curve" smooth="yes"/>
      <point x="732" y="804" type="line"/>
      <point x="316" y="387" type="line"/>
      <point x="315" y="-0" type="line" smooth="yes"/>
      <point x="315" y="-58"/>
      <point x="268" y="-105"/>
      <point x="210" y="-105" type="curve" smooth="yes"/>
      <point x="152" y="-105"/>
      <point x="105" y="-58"/>
    </contour>
  </outline>
</glyph>
<glyph name="l" format="2">
  <advance width="840"/>
  <unicode hex="006C"/>
  <outline>
    <contour>
      <point x="105" y="2520" type="line" smooth="yes"/>
      <point x="105" y="2579"/>
      <point x="153" y="2625"/>
      <point x="210" y="2625" type="curve"/>
      <point x="211" y="2625" type="line"/>
      <point x="269" y="2625"/>
      <point x="316" y="2578"/>
      <point x="316" y="2520" type="curve" smooth="yes"/>
      <point x="316" y="0" type="line" smooth="yes"/>
      <point x="316" y="-58"/>
      <point x="268" y="-105"/>
      <point x="211" y="-105" type="curve"/>
      <point x="210" y="-105" type="line"/>
      <point x="153" y="-105"/>
      <point x="105" y="-59"/>
      <point x="105" y="0" type="curve" smooth="yes"/>
    </contour>
  </outline>
</glyph>
<glyph name="m" format="2">
  <advance width="2444"/>
  <unicode hex="006D"/>
  <outline>
    <contour>
      <point x="1013" y="1420" type="curve"/>
      <point x="1055" y="1482"/>
      <point x="1187" y="1645"/>
      <point x="1415" y="1645" type="curve" smooth="yes"/>
      <point x="1693" y="1645"/>
      <point x="1920" y="1391"/>
      <point x="1920" y="1068" type="curve" smooth="yes"/>
      <point x="1919" y="-0" type="line" smooth="yes"/>
      <point x="1919" y="-58"/>
      <point x="1872" y="-105"/>
      <point x="1814" y="-105" type="curve" smooth="yes"/>
      <point x="1756" y="-105"/>
      <point x="1709" y="-58"/>
      <point x="1709" y="0" type="curve" smooth="yes"/>
      <point x="1710" y="1068" type="line" smooth="yes"/>
      <point x="1710" y="1268"/>
      <point x="1580" y="1435"/>
      <point x="1415" y="1435" type="curve" smooth="yes"/>
      <point x="1250" y="1435"/>
      <point x="1118" y="1268"/>
      <point x="1118" y="1068" type="curve" smooth="yes"/>
      <point x="1117" y="-0" type="line" smooth="yes"/>
      <point x="1117" y="-58"/>
      <point x="1070" y="-105"/>
      <point x="1012" y="-105" type="curve" smooth="yes"/>
      <point x="954" y="-105"/>
      <point x="907" y="-58"/>
      <point x="907" y="-0" type="curve" smooth="yes"/>
      <point x="907" y="1068" type="line" smooth="yes"/>
      <point x="907" y="1268"/>
      <point x="776" y="1435"/>
      <point x="611" y="1435" type="curve" smooth="yes"/>
      <point x="446" y="1435"/>
      <point x="316" y="1267"/>
      <point x="316" y="1068" type="curve" smooth="yes"/>
      <point x="315" y="-0" type="line" smooth="yes"/>
      <point x="315" y="-58"/>
      <point x="268" y="-105"/>
      <point x="210" y="-105" type="curve" smooth="yes"/>
      <point x="152" y="-105"/>
      <point x="105" y="-58"/>
      <point x="105" y="0" type="curve" smooth="yes"/>
      <point x="105" y="1516" type="line" smooth="yes"/>
      <point x="105" y="1574"/>
      <point x="152" y="1621"/>
      <point x="210" y="1621" type="curve" smooth="yes"/>
      <point x="262" y="1621"/>
      <point x="304" y="1584"/>
      <point x="313" y="1535" type="curve"/>
      <point x="347" y="1563"/>
      <point x="452" y="1645"/>
      <point x="611" y="1645" type="curve" smooth="yes"/>
      <point x="680" y="1645"/>
      <point x="874" y="1625"/>
    </contour>
  </outline>
</glyph>
<glyph name="o" format="2">
  <advance width="1895"/>
  <unicode hex="006F"/>
  <outline>
    <contour>
      <point x="105" y="748" type="curve" smooth="yes"/>
      <point x="105" y="1243"/>
      <point x="380" y="1645"/>
      <point x="735" y="1645" type="curve" smooth="yes"/>
      <point x="1086" y="1645"/>
      <point x="1365" y="1250"/>
      <point x="1365" y="758" type="curve" smooth="yes"/>
      <point x="1365" y="266"/>
      <point x="1086" y="-129"/>
      <point x="735" y="-129" type="curve" smooth="yes"/>
      <point x="386" y="-129"/>
      <point x="105" y="261"/>
    </contour>
    <contour>
      <point x="315" y="748" type="curve" smooth="yes"/>
      <point x="315" y="379"/>
      <point x="512" y="81"/>
      <point x="735" y="81" type="curve" smooth="yes"/>
      <point x="960" y="81"/>
      <point x="1155" y="385"/>
      <point x="1155" y="758" type="curve" smooth="yes"/>
      <point x="1155" y="1131"/>
      <point x="960" y="1435"/>
      <point x="735" y="1435" type="curve" smooth="yes"/>
      <point x="507" y="1435"/>
      <point x="315" y="1123"/>
    </contour>
  </outline>
</glyph>
<glyph name="p" format="2">
  <advance width="1785"/>
  <unicode hex="0070"/>
  <outline>
    <contour>
      <point x="105" y="-1004" type="curve" smooth="yes"/>
      <point x="105" y="1516" type="line" smooth="yes"/>
      <point x="105" y="1574"/>
      <point x="152" y="1621"/>
      <point x="210" y="1621" type="curve" smooth="yes"/>
      <point x="263" y="1621"/>
      <point x="307" y="1582"/>
      <point x="314" y="1531" type="curve"/>
      <point x="404" y="1603"/>
      <point x="512" y="1645"/>
      <point x="630" y="1645" type="curve" smooth="yes"/>
      <point x="981" y="1645"/>
      <point x="1260" y="1250"/>
      <point x="1260" y="758" type="curve" smooth="yes"/>
      <point x="1260" y="266"/>
      <point x="981" y="-129"/>
      <point x="630" y="-129" type="curve" smooth="yes"/>
      <point x="511" y="-129"/>
      <point x="404" y="-84"/>
      <point x="315" y="-11" type="curve"/>
      <point x="315" y="-1004" type="line" smooth="yes"/>
      <point x="315" y="-1062"/>
      <point x="268" y="-1109"/>
      <point x="210" y="-1109" type="curve" smooth="yes"/>
      <point x="152" y="-1109"/>
      <point x="105" y="-1062"/>
    </contour>
    <contour>
      <point x="630" y="1435" type="curve" smooth="yes"/>
      <point x="561" y="1435"/>
      <point x="423" y="1407"/>
      <point x="315" y="1205" type="curve"/>
      <point x="315" y="319" type="line"/>
      <point x="399" y="160"/>
      <point x="516" y="81"/>
      <point x="630" y="81" type="curve" smooth="yes"/>
      <point x="855" y="81"/>
      <point x="1050" y="385"/>
      <point x="1050" y="758" type="curve" smooth="yes"/>
      <point x="1050" y="1131"/>
      <point x="855" y="1435"/>
    </contour>
  </outline>
</glyph>
<glyph name="q" format="2">
  <advance width="1785"/>
  <unicode hex="0071"/>
  <outline>
    <contour>
      <point x="105" y="758" type="curve" smooth="yes"/>
      <point x="105" y="1250"/>
      <point x="384" y="1645"/>
      <point x="735" y="1645" type="curve" smooth="yes"/>
      <point x="853" y="1645"/>
      <point x="961" y="1603"/>
      <point x="1051" y="1531" type="curve"/>
      <point x="1058" y="1582"/>
      <point x="1102" y="1621"/>
      <point x="1155" y="1621" type="curve" smooth="yes"/>
      <point x="1213" y="1621"/>
      <point x="1260" y="1574"/>
      <point x="1260" y="1516" type="curve" smooth="yes"/>
      <point x="1260" y="-1004" type="line" smooth="yes"/>
      <point x="1260" y="-1062"/>
      <point x="1213" y="-1109"/>
      <point x="1155" y="-1109" type="curve" smooth="yes"/>
      <point x="1097" y="-1109"/>
      <point x="1050" y="-1062"/>
      <point x="1050" y="-1004" type="curve" smooth="yes"/>
      <point x="1050" y="-11" type="line"/>
      <point x="961" y="-84"/>
      <point x="854" y="-129"/>
      <point x="735" y="-129" type="curve" smooth="yes"/>
      <point x="384" y="-129"/>
      <point x="105" y="266"/>
    </contour>
    <contour>
      <point x="315" y="758" type="curve" smooth="yes"/>
      <point x="315" y="385"/>
      <point x="510" y="81"/>
      <point x="735" y="81" type="curve" smooth="yes"/>
      <point x="849" y="81"/>
      <point x="966" y="160"/>
      <point x="1050" y="319" type="curve"/>
      <point x="1050" y="1205" type="line"/>
      <point x="1006" y="1288"/>
      <point x="904" y="1435"/>
      <point x="735" y="1435" type="curve" smooth="yes"/>
      <point x="510" y="1435"/>
      <point x="315" y="1131"/>
    </contour>
  </outline>
</glyph>
<glyph name="r" format="2">
  <advance width="1680"/>
  <unicode hex="0072"/>
  <outline>
    <contour>
      <point x="210" y="1645" type="curve" smooth="yes"/>
      <point x="267" y="1645"/>
      <point x="315" y="1599"/>
      <point x="315" y="1540" type="curve"/>
      <point x="403" y="1606"/>
      <point x="512" y="1645"/>
      <point x="630" y="1645" type="curve" smooth="yes"/>
      <point x="920" y="1645"/>
      <point x="1155" y="1410"/>
      <point x="1155" y="1120" type="curve" smooth="yes"/>
      <point x="1155" y="1065" type="line" smooth="yes"/>
      <point x="1155" y="1007"/>
      <point x="1108" y="960"/>
      <point x="1050" y="960" type="curve" smooth="yes"/>
      <point x="992" y="960"/>
      <point x="945" y="1007"/>
      <point x="945" y="1065" type="curve" smooth="yes"/>
      <point x="945" y="1120" type="line" smooth="yes"/>
      <point x="945" y="1294"/>
      <point x="804" y="1435"/>
      <point x="630" y="1435" type="curve" smooth="yes"/>
      <point x="456" y="1435"/>
      <point x="316" y="1294"/>
      <point x="316" y="1120" type="curve" smooth="yes"/>
      <point x="316" y="1115"/>
      <point x="316" y="1110"/>
      <point x="315" y="1105" type="curve" smooth="yes"/>
      <point x="315" y="0" type="line" smooth="yes"/>
      <point x="315" y="-58"/>
      <point x="268" y="-105"/>
      <point x="210" y="-105" type="curve" smooth="yes"/>
      <point x="152" y="-105"/>
      <point x="105" y="-58"/>
      <point x="105" y="0" type="curve" smooth="yes"/>
      <point x="105" y="1540" type="line" smooth="yes"/>
      <point x="105" y="1598"/>
      <point x="152" y="1645"/>
    </contour>
  </outline>
</glyph>
<glyph name="s" format="2">
  <advance width="1813"/>
  <unicode hex="0073"/>
  <outline>
    <contour>
      <point x="683" y="-129" type="curve" smooth="yes"/>
      <point x="219" y="-129"/>
      <point x="105" y="328"/>
      <point x="105" y="389" type="curve" smooth="yes"/>
      <point x="105" y="447"/>
      <point x="152" y="494"/>
      <point x="210" y="494" type="curve" smooth="yes"/>
      <point x="260" y="494"/>
      <point x="303" y="459"/>
      <point x="313" y="411" type="curve" smooth="yes"/>
      <point x="331" y="325"/>
      <point x="407" y="81"/>
      <point x="683" y="81" type="curve" smooth="yes"/>
      <point x="709" y="81"/>
      <point x="1078" y="86"/>
      <point x="1078" y="379" type="curve" smooth="yes"/>
      <point x="1078" y="570"/>
      <point x="807" y="643"/>
      <point x="669" y="667" type="curve" smooth="yes"/>
      <point x="392" y="716"/>
      <point x="147" y="885"/>
      <point x="147" y="1149" type="curve" smooth="yes"/>
      <point x="147" y="1420"/>
      <point x="401" y="1645"/>
      <point x="683" y="1645" type="curve" smooth="yes"/>
      <point x="1083" y="1645"/>
      <point x="1231" y="1237"/>
      <point x="1231" y="1149" type="curve" smooth="yes"/>
      <point x="1231" y="1091"/>
      <point x="1184" y="1044"/>
      <point x="1126" y="1044" type="curve" smooth="yes"/>
      <point x="1076" y="1044"/>
      <point x="1033" y="1080"/>
      <point x="1023" y="1127" type="curve" smooth="yes"/>
      <point x="1023" y="1128"/>
      <point x="958" y="1435"/>
      <point x="683" y="1435" type="curve" smooth="yes"/>
      <point x="516" y="1435"/>
      <point x="357" y="1302"/>
      <point x="357" y="1149" type="curve" smooth="yes"/>
      <point x="357" y="941"/>
      <point x="669" y="879"/>
      <point x="705" y="873" type="curve" smooth="yes"/>
      <point x="891" y="840"/>
      <point x="1288" y="729"/>
      <point x="1288" y="379" type="curve" smooth="yes"/>
      <point x="1288" y="124"/>
      <point x="1083" y="-129"/>
    </contour>
  </outline>
</glyph>
<glyph name="t" format="2">
  <advance width="1715"/>
  <unicode hex="0074"/>
  <outline>
    <contour>
      <point x="0" y="1540" type="curve" smooth="yes"/>
      <point x="0" y="1598"/>
      <point x="47" y="1645"/>
      <point x="105" y="1645" type="curve" smooth="yes"/>
      <point x="420" y="1645" type="line"/>
      <point x="420" y="1750"/>
      <point x="420" y="1855"/>
      <point x="420" y="1960" type="curve" smooth="yes"/>
      <point x="420" y="2018"/>
      <point x="467" y="2065"/>
      <point x="525" y="2065" type="curve" smooth="yes"/>
      <point x="583" y="2065"/>
      <point x="630" y="2018"/>
      <point x="630" y="1960" type="curve" smooth="yes"/>
      <point x="630" y="1646" type="line"/>
      <point x="1085" y="1645" type="line" smooth="yes"/>
      <point x="1143" y="1645"/>
      <point x="1190" y="1598"/>
      <point x="1190" y="1540" type="curve" smooth="yes"/>
      <point x="1190" y="1482"/>
      <point x="1143" y="1435"/>
      <point x="1085" y="1435" type="curve" smooth="yes"/>
      <point x="630" y="1435" type="line"/>
      <point x="630" y="280" type="line" smooth="yes"/>
      <point x="630" y="183"/>
      <point x="708" y="105"/>
      <point x="805" y="105" type="curve" smooth="yes"/>
      <point x="902" y="105"/>
      <point x="980" y="183"/>
      <point x="980" y="280" type="curve" smooth="yes"/>
      <point x="980" y="335" type="line" smooth="yes"/>
      <point x="980" y="393"/>
      <point x="1027" y="440"/>
      <point x="1085" y="440" type="curve" smooth="yes"/>
      <point x="1143" y="440"/>
      <point x="1190" y="393"/>
      <point x="1190" y="335" type="curve" smooth="yes"/>
      <point x="1190" y="280" type="line" smooth="yes"/>
      <point x="1190" y="67"/>
      <point x="1018" y="-105"/>
      <point x="805" y="-105" type="curve" smooth="yes"/>
      <point x="592" y="-105"/>
      <point x="420" y="67"/>
      <point x="420" y="280" type="curve" smooth="yes"/>
      <point x="420" y="1434" type="line"/>
      <point x="105" y="1435" type="line" smooth="yes"/>
      <point x="47" y="1435"/>
      <point x="0" y="1482"/>
    </contour>
  </outline>
</glyph>
<glyph name="u" format="2">
  <advance width="1784"/>
  <unicode hex="0075"/>
  <outline>
    <contour>
      <point x="105" y="448" type="curve" smooth="yes"/>
      <point x="105" y="1435" type="line" smooth="yes"/>
      <point x="105" y="1493"/>
      <point x="152" y="1540"/>
      <point x="210" y="1540" type="curve" smooth="yes"/>
      <point x="268" y="1540"/>
      <point x="315" y="1493"/>
      <point x="315" y="1435" type="curve" smooth="yes"/>
      <point x="315" y="448" type="line" smooth="yes"/>
      <point x="315" y="245"/>
      <point x="479" y="81"/>
      <point x="682" y="81" type="curve" smooth="yes"/>
      <point x="885" y="81"/>
      <point x="1048" y="245"/>
      <point x="1048" y="448" type="curve" smooth="yes"/>
      <point x="1049" y="1435" type="line" smooth="yes"/>
      <point x="1049" y="1493"/>
      <point x="1096" y="1540"/>
      <point x="1154" y="1540" type="curve" smooth="yes"/>
      <point x="1212" y="1540"/>
      <point x="1259" y="1493"/>
      <point x="1259" y="1435" type="curve" smooth="yes"/>
      <point x="1259" y="0" type="line" smooth="yes"/>
      <point x="1259" y="-58"/>
      <point x="1212" y="-105"/>
      <point x="1154" y="-105" type="curve" smooth="yes"/>
      <point x="1096" y="-105"/>
      <point x="1049" y="-58"/>
      <point x="1049" y="0" type="curve" smooth="yes"/>
      <point x="1049" y="3" type="line"/>
      <point x="949" y="-79"/>
      <point x="822" y="-129"/>
      <point x="682" y="-129" type="curve" smooth="yes"/>
      <point x="363" y="-129"/>
      <point x="105" y="129"/>
    </contour>
  </outline>
</glyph>
<glyph name="v" format="2">
  <advance width="1941"/>
  <unicode hex="0076"/>
  <outline>
    <contour>
      <point x="105" y="1435" type="curve" smooth="yes"/>
      <point x="105" y="1493"/>
      <point x="152" y="1540"/>
      <point x="210" y="1540" type="curve" smooth="yes"/>
      <point x="255" y="1540"/>
      <point x="294" y="1511"/>
      <point x="309" y="1471" type="curve" smooth="yes"/>
      <point x="760" y="231" type="line"/>
      <point x="1212" y="1471" type="line" smooth="yes"/>
      <point x="1227" y="1511"/>
      <point x="1266" y="1540"/>
      <point x="1311" y="1540" type="curve" smooth="yes"/>
      <point x="1369" y="1540"/>
      <point x="1416" y="1493"/>
      <point x="1416" y="1435" type="curve" smooth="yes"/>
      <point x="1416" y="1422"/>
      <point x="1414" y="1410"/>
      <point x="1410" y="1399" type="curve" smooth="yes"/>
      <point x="887" y="-36" type="line" smooth="yes"/>
      <point x="872" y="-77"/>
      <point x="832" y="-105"/>
      <point x="788" y="-105" type="curve" smooth="yes"/>
      <point x="733" y="-105" type="line" smooth="yes"/>
      <point x="689" y="-105"/>
      <point x="649" y="-77"/>
      <point x="634" y="-36" type="curve" smooth="yes"/>
      <point x="111" y="1399" type="line" smooth="yes"/>
      <point x="107" y="1410"/>
      <point x="105" y="1422"/>
    </contour>
  </outline>
</glyph>
<glyph name="w" format="2">
  <advance width="2442"/>
  <unicode hex="0077"/>
  <outline>
    <contour>
      <point x="105" y="1435" type="curve" smooth="yes"/>
      <point x="105" y="1493"/>
      <point x="152" y="1540"/>
      <point x="210" y="1540" type="curve" smooth="yes"/>
      <point x="259" y="1540"/>
      <point x="299" y="1507"/>
      <point x="311" y="1462" type="curve" smooth="yes"/>
      <point x="610" y="350" type="line"/>
      <point x="895" y="1412" type="line" smooth="yes"/>
      <point x="907" y="1458"/>
      <point x="949" y="1490"/>
      <point x="996" y="1490" type="curve" smooth="yes"/>
      <point x="1026" y="1490" type="line" smooth="yes"/>
      <point x="1073" y="1490"/>
      <point x="1115" y="1458"/>
      <point x="1127" y="1412" type="curve" smooth="yes"/>
      <point x="1412" y="350" type="line"/>
      <point x="1711" y="1462" type="line" smooth="yes"/>
      <point x="1723" y="1507"/>
      <point x="1763" y="1540"/>
      <point x="1812" y="1540" type="curve" smooth="yes"/>
      <point x="1870" y="1540"/>
      <point x="1917" y="1493"/>
      <point x="1917" y="1435" type="curve" smooth="yes"/>
      <point x="1917" y="1426"/>
      <point x="1915" y="1417"/>
      <point x="1913" y="1408" type="curve" smooth="yes"/>
      <point x="1528" y="-27" type="line" smooth="yes"/>
      <point x="1516" y="-73"/>
      <point x="1474" y="-105"/>
      <point x="1427" y="-105" type="curve" smooth="yes"/>
      <point x="1397" y="-105" type="line" smooth="yes"/>
      <point x="1350" y="-105"/>
      <point x="1308" y="-73"/>
      <point x="1296" y="-27" type="curve" smooth="yes"/>
      <point x="1011" y="1035" type="line"/>
      <point x="726" y="-27" type="line" smooth="yes"/>
      <point x="714" y="-73"/>
      <point x="672" y="-105"/>
      <point x="625" y="-105" type="curve" smooth="yes"/>
      <point x="595" y="-105" type="line" smooth="yes"/>
      <point x="548" y="-105"/>
      <point x="506" y="-73"/>
      <point x="494" y="-27" type="curve" smooth="yes"/>
      <point x="109" y="1408" type="line" smooth="yes"/>
      <point x="107" y="1417"/>
      <point x="105" y="1426"/>
    </contour>
  </outline>
</glyph>
<glyph name="x" format="2">
  <advance width="1874"/>
  <unicode hex="0078"/>
  <outline>
    <contour>
      <point x="105" y="0" type="curve" smooth="yes"/>
      <point x="105" y="22"/>
      <point x="112" y="43"/>
      <point x="124" y="60" type="curve" smooth="yes"/>
      <point x="599" y="739" type="line"/>
      <point x="155" y="1375" type="line" smooth="yes"/>
      <point x="143" y="1392"/>
      <point x="136" y="1413"/>
      <point x="136" y="1435" type="curve" smooth="yes"/>
      <point x="136" y="1493"/>
      <point x="183" y="1540"/>
      <point x="241" y="1540" type="curve" smooth="yes"/>
      <point x="277" y="1540"/>
      <point x="308" y="1522"/>
      <point x="327" y="1495" type="curve" smooth="yes"/>
      <point x="727" y="923" type="line"/>
      <point x="1128" y="1495" type="line" smooth="yes"/>
      <point x="1147" y="1522"/>
      <point x="1178" y="1540"/>
      <point x="1214" y="1540" type="curve" smooth="yes"/>
      <point x="1272" y="1540"/>
      <point x="1319" y="1493"/>
      <point x="1319" y="1435" type="curve" smooth="yes"/>
      <point x="1319" y="1413"/>
      <point x="1312" y="1392"/>
      <point x="1300" y="1375" type="curve" smooth="yes"/>
      <point x="856" y="739" type="line"/>
      <point x="1330" y="60" type="line" smooth="yes"/>
      <point x="1342" y="43"/>
      <point x="1349" y="22"/>
      <point x="1349" y="0" type="curve" smooth="yes"/>
      <point x="1349" y="-58"/>
      <point x="1302" y="-105"/>
      <point x="1244" y="-105" type="curve" smooth="yes"/>
      <point x="1208" y="-105"/>
      <point x="1177" y="-87"/>
      <point x="1158" y="-60" type="curve" smooth="yes"/>
      <point x="727" y="556" type="line"/>
      <point x="296" y="-60" type="line" smooth="yes"/>
      <point x="277" y="-87"/>
      <point x="246" y="-105"/>
      <point x="210" y="-105" type="curve" smooth="yes"/>
      <point x="152" y="-105"/>
      <point x="105" y="-58"/>
    </contour>
  </outline>
</glyph>
<glyph name="y" format="2">
  <advance width="1941"/>
  <unicode hex="0079"/>
  <outline>
    <contour>
      <point x="0" y="-83" type="curve" smooth="yes"/>
      <point x="0" y="-25"/>
      <point x="47" y="22"/>
      <point x="105" y="22" type="curve" smooth="yes"/>
      <point x="163" y="22"/>
      <point x="210" y="-25"/>
      <point x="210" y="-83" type="curve" smooth="yes"/>
      <point x="210" y="-180"/>
      <point x="288" y="-258"/>
      <point x="385" y="-258" type="curve" smooth="yes"/>
      <point x="449" y="-258"/>
      <point x="557" y="-236"/>
      <point x="648" y="-62" type="curve"/>
      <point x="642" y="-54"/>
      <point x="637" y="-45"/>
      <point x="634" y="-36" type="curve" smooth="yes"/>
      <point x="111" y="1399" type="line" smooth="yes"/>
      <point x="107" y="1410"/>
      <point x="105" y="1422"/>
      <point x="105" y="1435" type="curve" smooth="yes"/>
      <point x="105" y="1493"/>
      <point x="152" y="1540"/>
      <point x="210" y="1540" type="curve" smooth="yes"/>
      <point x="255" y="1540"/>
      <point x="294" y="1511"/>
      <point x="309" y="1471" type="curve" smooth="yes"/>
      <point x="760" y="231" type="line"/>
      <point x="1212" y="1471" type="line" smooth="yes"/>
      <point x="1227" y="1511"/>
      <point x="1266" y="1540"/>
      <point x="1311" y="1540" type="curve" smooth="yes"/>
      <point x="1369" y="1540"/>
      <point x="1416" y="1493"/>
      <point x="1416" y="1435" type="curve" smooth="yes"/>
      <point x="1416" y="1422"/>
      <point x="1414" y="1410"/>
      <point x="1410" y="1399" type="curve" smooth="yes"/>
      <point x="888" y="-36" type="line" smooth="yes"/>
      <point x="827" y="-202"/>
      <point x="684" y="-468"/>
      <point x="385" y="-468" type="curve" smooth="yes"/>
      <point x="172" y="-468"/>
      <point x="0" y="-296"/>
    </contour>
  </outline>
</glyph>
<glyph name="z" format="2">
  <advance width="1874"/>
  <unicode hex="007A"/>
  <outline>
    <contour>
      <point x="105" y="-0" type="curve" smooth="yes"/>
      <point x="105" y="7"/>
      <point x="105" y="33"/>
      <point x="124" y="60" type="curve" smooth="yes"/>
      <point x="1012" y="1330" type="line"/>
      <point x="240" y="1330" type="line" smooth="yes"/>
      <point x="182" y="1330"/>
      <point x="135" y="1377"/>
      <point x="135" y="1435" type="curve" smooth="yes"/>
      <point x="135" y="1493"/>
      <point x="182" y="1540"/>
      <point x="240" y="1540" type="curve" smooth="yes"/>
      <point x="1214" y="1540" type="line" smooth="yes"/>
      <point x="1272" y="1540"/>
      <point x="1319" y="1493"/>
      <point x="1319" y="1435" type="curve" smooth="yes"/>
      <point x="1319" y="1428"/>
      <point x="1319" y="1402"/>
      <point x="1300" y="1375" type="curve" smooth="yes"/>
      <point x="412" y="105" type="line"/>
      <point x="1244" y="105" type="line" smooth="yes"/>
      <point x="1302" y="105"/>
      <point x="1349" y="58"/>
      <point x="1349" y="0" type="curve" smooth="yes"/>
      <point x="1349" y="-58"/>
      <point x="1302" y="-105"/>
      <point x="1244" y="-105" type="curve" smooth="yes"/>
      <point x="210" y="-105" type="line" smooth="yes"/>
      <point x="152" y="-105"/>
      <point x="105" y="-58"/>
    </contour>
  </outline>
</glyph>
<glyph name="braceleft" format="2">
  <advance width="1680"/>
  <unicode hex="007B"/>
  <outline>
    <contour>
      <point x="-0" y="-56368" type="line"/>
      <point x="-15861" y="-56255"/>
      <point x="-28640" y="-43382"/>
      <point x="-28640" y="-27522" type="curve" smooth="yes"/>
      <point x="-28640" y="-11576"/>
      <point x="-15731" y="1330"/>
      <point x="210" y="1330" type="curve" smooth="yes"/>
      <point x="350" y="1330" type="line" smooth="yes"/>
      <point x="444" y="1330"/>
      <point x="525" y="1441"/>
      <point x="525" y="1505" type="curve" smooth="yes"/>
      <point x="525" y="2310" type="line" smooth="yes"/>
      <point x="525" y="2600"/>
      <point x="760" y="2835"/>
      <point x="1050" y="2835" type="curve" smooth="yes"/>
      <point x="1108" y="2835"/>
      <point x="1155" y="2788"/>
      <point x="1155" y="2730" type="curve" smooth="yes"/>
      <point x="1155" y="2672"/>
      <point x="1108" y="2625"/>
      <point x="1050" y="2625" type="curve" smooth="yes"/>
      <point x="876" y="2625"/>
      <point x="735" y="2484"/>
      <point x="735" y="2310" type="curve" smooth="yes"/>
      <point x="735" y="1505" type="line" smooth="yes"/>
      <point x="735" y="1404"/>
      <point x="680" y="1300"/>
      <point x="602" y="1226" type="curve" smooth="yes"/>
      <point x="602" y="1225"/>
      <point x="735" y="1108"/>
      <point x="735" y="945" type="curve" smooth="yes"/>
      <point x="735" y="140" type="line" smooth="yes"/>
      <point x="735" y="-34"/>
      <point x="876" y="-175"/>
      <point x="1050" y="-175" type="curve" smooth="yes"/>
      <point x="1108" y="-175"/>
      <point x="1155" y="-222"/>
      <point x="1155" y="-280" type="curve" smooth="yes"/>
      <point x="1155" y="-338"/>
      <point x="1108" y="-385"/>
      <point x="1050" y="-385" type="curve" smooth="yes"/>
      <point x="760" y="-385"/>
      <point x="525" y="-150"/>
      <point x="525" y="140" type="curve" smooth="yes"/>
      <point x="525" y="945" type="line" smooth="yes"/>
      <point x="525" y="1010"/>
      <point x="445" y="1119"/>
      <point x="349" y="1119" type="curve"/>
    </contour>
  </outline>
</glyph>
<glyph name="bar" format="2">
  <advance width="840"/>
  <unicode hex="007C"/>
  <outline>
    <contour>
      <point x="105" y="-420" type="curve" smooth="yes"/>
      <point x="105" y="2800" type="line" smooth="yes"/>
      <point x="105" y="2858"/>
      <point x="152" y="2905"/>
      <point x="210" y="2905" type="curve" smooth="yes"/>
      <point x="268" y="2905"/>
      <point x="315" y="2858"/>
      <point x="315" y="2800" type="curve" smooth="yes"/>
      <point x="315" y="-420" type="line" smooth="yes"/>
      <point x="315" y="-478"/>
      <point x="268" y="-525"/>
      <point x="210" y="-525" type="curve" smooth="yes"/>
      <point x="152" y="-525"/>
      <point x="105" y="-478"/>
    </contour>
  </outline>
</glyph>
<glyph name="braceright" format="2">
  <advance width="1680"/>
  <unicode hex="007D"/>
  <outline>
    <contour>
      <point x="658" y="1225" type="curve"/>
      <point x="630" y="1252"/>
      <point x="525" y="1359"/>
      <point x="525" y="1505" type="curve" smooth="yes"/>
      <point x="525" y="2310" type="line" smooth="yes"/>
      <point x="525" y="2484"/>
      <point x="384" y="2625"/>
      <point x="210" y="2625" type="curve" smooth="yes"/>
      <point x="152" y="2625"/>
      <point x="105" y="2672"/>
      <point x="105" y="2730" type="curve" smooth="yes"/>
      <point x="105" y="2788"/>
      <point x="152" y="2835"/>
      <point x="210" y="2835" type="curve" smooth="yes"/>
      <point x="500" y="2835"/>
      <point x="735" y="2600"/>
      <point x="735" y="2310" type="curve" smooth="yes"/>
      <point x="735" y="1505" type="line" smooth="yes"/>
      <point x="735" y="1441"/>
      <point x="816" y="1330"/>
      <point x="910" y="1330" type="curve" smooth="yes"/>
      <point x="1050" y="1330" type="line" smooth="yes"/>
      <point x="1067" y="1330"/>
      <point x="1077" y="1311"/>
      <point x="1077" y="1277" type="curve" smooth="yes"/>
      <point x="1077" y="1243"/>
      <point x="1067" y="1199"/>
      <point x="1050" y="1160" type="curve"/>
      <point x="1050" y="1120" type="line"/>
      <point x="1029" y="1120" type="line"/>
      <point x="1009" y="1087"/>
      <point x="986" y="1066"/>
      <point x="968" y="1066" type="curve"/>
      <point x="911" y="1119" type="line" smooth="yes"/>
      <point x="910" y="1119" type="line" smooth="yes"/>
      <point x="816" y="1119"/>
      <point x="735" y="1011"/>
      <point x="735" y="945" type="curve" smooth="yes"/>
      <point x="735" y="140" type="line" smooth="yes"/>
      <point x="735" y="-150"/>
      <point x="500" y="-385"/>
      <point x="210" y="-385" type="curve" smooth="yes"/>
      <point x="152" y="-385"/>
      <point x="105" y="-338"/>
      <point x="105" y="-280" type="curve" smooth="yes"/>
      <point x="105" y="-222"/>
      <point x="152" y="-175"/>
      <point x="210" y="-175" type="curve" smooth="yes"/>
      <point x="384" y="-175"/>
      <point x="525" y="-34"/>
      <point x="525" y="140" type="curve" smooth="yes"/>
      <point x="525" y="945" type="line" smooth="yes"/>
      <point x="525" y="1047"/>
      <point x="579" y="1152"/>
    </contour>
  </outline>
</glyph>
<glyph name="cent" format="2">
  <advance width="1848"/>
  <unicode hex="00A2"/>
  <outline>
    <contour>
      <point x="859" y="1633" type="curve"/>
      <point x="1210" y="1556"/>
      <point x="1284" y="1168"/>
      <point x="1284" y="1093" type="curve" smooth="yes"/>
      <point x="1284" y="1035"/>
      <point x="1237" y="988"/>
      <point x="1179" y="988" type="curve" smooth="yes"/>
      <point x="1125" y="988"/>
      <point x="1081" y="1028"/>
      <point x="1075" y="1080" type="curve" smooth="yes"/>
      <point x="1067" y="1142"/>
      <point x="1029" y="1348"/>
      <point x="857" y="1415" type="curve"/>
      <point x="843" y="95" type="line"/>
      <point x="995" y="139"/>
      <point x="1100" y="286"/>
      <point x="1114" y="457" type="curve" smooth="yes"/>
      <point x="1118" y="511"/>
      <point x="1163" y="553"/>
      <point x="1218" y="553" type="curve" smooth="yes"/>
      <point x="1276" y="553"/>
      <point x="1323" y="506"/>
      <point x="1323" y="448" type="curve" smooth="yes"/>
      <point x="1323" y="445"/>
      <point x="1323" y="442"/>
      <point x="1323" y="439" type="curve" smooth="yes"/>
      <point x="1301" y="170"/>
      <point x="1119" y="-74"/>
      <point x="841" y="-121" type="curve"/>
      <point x="840" y="-235" type="line" smooth="yes"/>
      <point x="839" y="-292"/>
      <point x="793" y="-339"/>
      <point x="735" y="-339" type="curve" smooth="yes"/>
      <point x="677" y="-339"/>
      <point x="630" y="-292"/>
      <point x="630" y="-234" type="curve" smooth="yes"/>
      <point x="630" y="-233"/>
      <point x="630" y="-233"/>
      <point x="631" y="-115" type="curve"/>
      <point x="327" y="-40"/>
      <point x="105" y="324"/>
      <point x="105" y="758" type="curve" smooth="yes"/>
      <point x="105" y="1201"/>
      <point x="336" y="1570"/>
      <point x="649" y="1635" type="curve"/>
      <point x="650" y="1756" type="line" smooth="yes"/>
      <point x="651" y="1813"/>
      <point x="697" y="1860"/>
      <point x="755" y="1860" type="curve" smooth="yes"/>
      <point x="813" y="1860"/>
      <point x="860" y="1813"/>
      <point x="860" y="1755" type="curve" smooth="yes"/>
      <point x="860" y="1754"/>
      <point x="860" y="1755"/>
    </contour>
    <contour>
      <point x="315" y="758" type="curve" smooth="yes"/>
      <point x="315" y="444"/>
      <point x="455" y="183"/>
      <point x="633" y="105" type="curve"/>
      <point x="647" y="1416" type="line"/>
      <point x="464" y="1346"/>
      <point x="315" y="1081"/>
    </contour>
  </outline>
</glyph>
<glyph name="sterling" format="2">
  <advance width="2521"/>
  <unicode hex="00A3"/>
  <outline>
    <contour>
      <point x="105" y="1380" type="curve" smooth="yes"/>
      <point x="105" y="1438"/>
      <point x="152" y="1485"/>
      <point x="210" y="1485" type="curve" smooth="yes"/>
      <point x="525" y="1486" type="line"/>
      <point x="525" y="1890" type="line" smooth="yes"/>
      <point x="525" y="2296"/>
      <point x="855" y="2625"/>
      <point x="1261" y="2625" type="curve" smooth="yes"/>
      <point x="1667" y="2625"/>
      <point x="1996" y="2296"/>
      <point x="1996" y="1890" type="curve" smooth="yes"/>
      <point x="1996" y="1835" type="line" smooth="yes"/>
      <point x="1996" y="1777"/>
      <point x="1949" y="1730"/>
      <point x="1891" y="1730" type="curve" smooth="yes"/>
      <point x="1833" y="1730"/>
      <point x="1786" y="1777"/>
      <point x="1786" y="1835" type="curve" smooth="yes"/>
      <point x="1786" y="1890" type="line" smooth="yes"/>
      <point x="1786" y="2180"/>
      <point x="1551" y="2415"/>
      <point x="1261" y="2415" type="curve" smooth="yes"/>
      <point x="971" y="2415"/>
      <point x="735" y="2180"/>
      <point x="735" y="1890" type="curve" smooth="yes"/>
      <point x="735" y="1486" type="line"/>
      <point x="1260" y="1485" type="line" smooth="yes"/>
      <point x="1318" y="1485"/>
      <point x="1365" y="1438"/>
      <point x="1365" y="1380" type="curve" smooth="yes"/>
      <point x="1365" y="1322"/>
      <point x="1318" y="1275"/>
      <point x="1260" y="1275" type="curve" smooth="yes"/>
      <point x="1260" y="1275"/>
      <point x="998" y="1275"/>
      <point x="735" y="1275" type="curve"/>
      <point x="735" y="420" type="line" smooth="yes"/>
      <point x="735" y="302"/>
      <point x="696" y="193"/>
      <point x="630" y="105" type="curve"/>
      <point x="1891" y="105" type="line" smooth="yes"/>
      <point x="1949" y="105"/>
      <point x="1996" y="58"/>
      <point x="1996" y="0" type="curve" smooth="yes"/>
      <point x="1996" y="-58"/>
      <point x="1949" y="-105"/>
      <point x="1891" y="-105" type="curve" smooth="yes"/>
      <point x="210" y="-105" type="line" smooth="yes"/>
      <point x="153" y="-105"/>
      <point x="105" y="-59"/>
      <point x="105" y="0" type="curve"/>
      <point x="105" y="1" type="line"/>
      <point x="105" y="60"/>
      <point x="153" y="106"/>
      <point x="210" y="106" type="curve" smooth="yes"/>
      <point x="384" y="106"/>
      <point x="525" y="246"/>
      <point x="525" y="420" type="curve" smooth="yes"/>
      <point x="525" y="705"/>
      <point x="525" y="990"/>
      <point x="525" y="1275" type="curve"/>
      <point x="349" y="1275"/>
      <point x="210" y="1275"/>
      <point x="210" y="1275" type="curve" smooth="yes"/>
      <point x="152" y="1275"/>
      <point x="105" y="1322"/>
    </contour>
  </outline>
</glyph>
<glyph name="yen" format="2">
  <advance width="2494"/>
  <unicode hex="00A5"/>
  <outline>
    <contour>
      <point x="105" y="2520" type="curve" smooth="yes"/>
      <point x="105" y="2578"/>
      <point x="152" y="2625"/>
      <point x="210" y="2625" type="curve" smooth="yes"/>
      <point x="246" y="2625"/>
      <point x="277" y="2607"/>
      <point x="296" y="2580" type="curve" smooth="yes"/>
      <point x="1037" y="1521" type="line"/>
      <point x="1778" y="2580" type="line" smooth="yes"/>
      <point x="1797" y="2607"/>
      <point x="1828" y="2625"/>
      <point x="1864" y="2625" type="curve" smooth="yes"/>
      <point x="1922" y="2625"/>
      <point x="1969" y="2578"/>
      <point x="1969" y="2520" type="curve" smooth="yes"/>
      <point x="1969" y="2498"/>
      <point x="1962" y="2477"/>
      <point x="1950" y="2460" type="curve" smooth="yes"/>
      <point x="1165" y="1338" type="line"/>
      <point x="1864" y="1338" type="line" smooth="yes"/>
      <point x="1922" y="1338"/>
      <point x="1969" y="1291"/>
      <point x="1969" y="1233" type="curve" smooth="yes"/>
      <point x="1969" y="1175"/>
      <point x="1922" y="1128"/>
      <point x="1864" y="1128" type="curve" smooth="yes"/>
      <point x="1143" y="1128" type="line"/>
      <point x="1143" y="1023"/>
      <point x="1143" y="918"/>
      <point x="1143" y="813" type="curve"/>
      <point x="1864" y="813" type="line" smooth="yes"/>
      <point x="1922" y="813"/>
      <point x="1969" y="766"/>
      <point x="1969" y="708" type="curve" smooth="yes"/>
      <point x="1969" y="650"/>
      <point x="1922" y="603"/>
      <point x="1864" y="603" type="curve" smooth="yes"/>
      <point x="1143" y="603" type="line"/>
      <point x="1143" y="402"/>
      <point x="1143" y="201"/>
      <point x="1143" y="-0" type="curve" smooth="yes"/>
      <point x="1143" y="-58"/>
      <point x="1096" y="-105"/>
      <point x="1038" y="-105" type="curve"/>
      <point x="1037" y="-105" type="line"/>
      <point x="979" y="-105"/>
      <point x="932" y="-58"/>
      <point x="932" y="0" type="curve" smooth="yes"/>
      <point x="932" y="603" type="line"/>
      <point x="210" y="603" type="line" smooth="yes"/>
      <point x="152" y="603"/>
      <point x="105" y="650"/>
      <point x="105" y="708" type="curve" smooth="yes"/>
      <point x="105" y="766"/>
      <point x="152" y="813"/>
      <point x="210" y="813" type="curve" smooth="yes"/>
      <point x="932" y="813" type="line"/>
      <point x="932" y="1128" type="line"/>
      <point x="210" y="1128" type="line" smooth="yes"/>
      <point x="152" y="1128"/>
      <point x="105" y="1175"/>
      <point x="105" y="1233" type="curve" smooth="yes"/>
      <point x="105" y="1291"/>
      <point x="152" y="1338"/>
      <point x="210" y="1338" type="curve" smooth="yes"/>
      <point x="910" y="1338" type="line"/>
      <point x="124" y="2460" type="line" smooth="yes"/>
      <point x="112" y="2477"/>
      <point x="105" y="2498"/>
    </contour>
  </outline>
</glyph>
<glyph name="brokenbar" format="2">
  <advance width="840"/>
  <unicode hex="00A6"/>
  <outline>
    <contour>
      <point x="105" y="-420" type="curve" smooth="yes"/>
      <point x="105" y="875" type="line" smooth="yes"/>
      <point x="105" y="933"/>
      <point x="152" y="980"/>
      <point x="210" y="980" type="curve" smooth="yes"/>
      <point x="268" y="980"/>
      <point x="315" y="933"/>
      <point x="315" y="875" type="curve" smooth="yes"/>
      <point x="315" y="-420" type="line" smooth="yes"/>
      <point x="315" y="-478"/>
      <point x="268" y="-525"/>
      <point x="210" y="-525" type="curve" smooth="yes"/>
      <point x="152" y="-525"/>
      <point x="105" y="-478"/>
    </contour>
    <contour>
      <point x="105" y="1505" type="curve" smooth="yes"/>
      <point x="105" y="2800" type="line" smooth="yes"/>
      <point x="105" y="2858"/>
      <point x="152" y="2905"/>
      <point x="210" y="2905" type="curve" smooth="yes"/>
      <point x="268" y="2905"/>
      <point x="315" y="2858"/>
      <point x="315" y="2800" type="curve" smooth="yes"/>
      <point x="315" y="1505" type="line" smooth="yes"/>
      <point x="315" y="1447"/>
      <point x="268" y="1400"/>
      <point x="210" y="1400" type="curve" smooth="yes"/>
      <point x="152" y="1400"/>
      <point x="105" y="1447"/>
    </contour>
  </outline>
</glyph>
<glyph name="uni00AD" format="2">
  <advance width="1440"/>
  <unicode hex="00AD"/>
  <outline>
    <contour>
      <point x="105" y="1339" type="curve" smooth="yes"/>
      <point x="105" y="1397"/>
      <point x="152" y="1444"/>
      <point x="210" y="1444" type="curve" smooth="yes"/>
      <point x="810" y="1444" type="line" smooth="yes"/>
      <point x="868" y="1444"/>
      <point x="915" y="1397"/>
      <point x="915" y="1339" type="curve" smooth="yes"/>
      <point x="915" y="1281"/>
      <point x="868" y="1234"/>
      <point x="810" y="1234" type="curve" smooth="yes"/>
      <point x="210" y="1234" type="line" smooth="yes"/>
      <point x="152" y="1234"/>
      <point x="105" y="1281"/>
    </contour>
  </outline>
</glyph>
<glyph name="degree" format="2">
  <advance width="1784"/>
  <unicode hex="00B0"/>
  <outline>
    <contour>
      <point x="105" y="2048" type="curve" smooth="yes"/>
      <point x="105" y="2367"/>
      <point x="363" y="2625"/>
      <point x="682" y="2625" type="curve" smooth="yes"/>
      <point x="1001" y="2625"/>
      <point x="1259" y="2367"/>
      <point x="1259" y="2048" type="curve" smooth="yes"/>
      <point x="1259" y="1729"/>
      <point x="1001" y="1471"/>
      <point x="682" y="1471" type="curve" smooth="yes"/>
      <point x="363" y="1471"/>
      <point x="105" y="1729"/>
    </contour>
    <contour>
      <point x="315" y="2048" type="curve" smooth="yes"/>
      <point x="315" y="1845"/>
      <point x="479" y="1681"/>
      <point x="682" y="1681" type="curve" smooth="yes"/>
      <point x="885" y="1681"/>
      <point x="1049" y="1845"/>
      <point x="1049" y="2048" type="curve" smooth="yes"/>
      <point x="1049" y="2251"/>
      <point x="885" y="2415"/>
      <point x="682" y="2415" type="curve" smooth="yes"/>
      <point x="479" y="2415"/>
      <point x="315" y="2251"/>
    </contour>
  </outline>
</glyph>
<glyph name="plusminus" format="2">
  <advance width="2040"/>
  <unicode hex="00B1"/>
  <outline>
    <contour>
      <point x="105" y="528" type="curve" smooth="yes"/>
      <point x="105" y="586"/>
      <point x="152" y="633"/>
      <point x="210" y="633" type="curve" smooth="yes"/>
      <point x="804" y="633" type="line"/>
      <point x="749" y="636"/>
      <point x="705" y="682"/>
      <point x="705" y="738" type="curve" smooth="yes"/>
      <point x="705" y="1233" type="line"/>
      <point x="210" y="1233" type="line" smooth="yes"/>
      <point x="152" y="1233"/>
      <point x="105" y="1280"/>
      <point x="105" y="1338" type="curve" smooth="yes"/>
      <point x="105" y="1396"/>
      <point x="152" y="1443"/>
      <point x="210" y="1443" type="curve" smooth="yes"/>
      <point x="704" y="1443" type="line"/>
      <point x="705" y="1930" type="line" smooth="yes"/>
      <point x="705" y="1988"/>
      <point x="752" y="2035"/>
      <point x="810" y="2035" type="curve" smooth="yes"/>
      <point x="868" y="2035"/>
      <point x="915" y="1988"/>
      <point x="915" y="1930" type="curve" smooth="yes"/>
      <point x="915" y="1443" type="line"/>
      <point x="1080" y="1443"/>
      <point x="1245" y="1443"/>
      <point x="1410" y="1443" type="curve" smooth="yes"/>
      <point x="1468" y="1443"/>
      <point x="1515" y="1396"/>
      <point x="1515" y="1338" type="curve" smooth="yes"/>
      <point x="1515" y="1280"/>
      <point x="1468" y="1233"/>
      <point x="1410" y="1233" type="curve" smooth="yes"/>
      <point x="916" y="1233" type="line"/>
      <point x="916" y="1061"/>
      <point x="915" y="738"/>
      <point x="915" y="738" type="curve" smooth="yes"/>
      <point x="915" y="682"/>
      <point x="871" y="636"/>
      <point x="816" y="633" type="curve"/>
      <point x="1410" y="633" type="line" smooth="yes"/>
      <point x="1468" y="633"/>
      <point x="1515" y="586"/>
      <point x="1515" y="528" type="curve" smooth="yes"/>
      <point x="1515" y="470"/>
      <point x="1468" y="423"/>
      <point x="1410" y="423" type="curve" smooth="yes"/>
      <point x="210" y="423" type="line" smooth="yes"/>
      <point x="152" y="423"/>
      <point x="105" y="470"/>
    </contour>
  </outline>
</glyph>
<glyph name="mu" format="2">
  <advance width="1995"/>
  <unicode hex="00B5"/>
  <outline>
    <contour>
      <point x="1575" y="-12" type="curve" smooth="yes"/>
      <point x="1575" y="-83"/>
      <point x="1535" y="-129"/>
      <point x="1325" y="-129" type="curve" smooth="yes"/>
      <point x="1232" y="-129"/>
      <point x="1138" y="-76"/>
      <point x="1089" y="39" type="curve"/>
      <point x="985" y="-65"/>
      <point x="841" y="-129"/>
      <point x="682" y="-129" type="curve" smooth="yes"/>
      <point x="542" y="-129"/>
      <point x="415" y="-79"/>
      <point x="315" y="3" type="curve"/>
      <point x="315" y="-1004" type="line" smooth="yes"/>
      <point x="315" y="-1062"/>
      <point x="268" y="-1109"/>
      <point x="210" y="-1109" type="curve" smooth="yes"/>
      <point x="152" y="-1109"/>
      <point x="105" y="-1062"/>
      <point x="105" y="-1004" type="curve" smooth="yes"/>
      <point x="105" y="1435" type="line" smooth="yes"/>
      <point x="105" y="1493"/>
      <point x="152" y="1540"/>
      <point x="210" y="1540" type="curve" smooth="yes"/>
      <point x="268" y="1540"/>
      <point x="315" y="1493"/>
      <point x="315" y="1435" type="curve" smooth="yes"/>
      <point x="316" y="448" type="line" smooth="yes"/>
      <point x="316" y="245"/>
      <point x="479" y="81"/>
      <point x="682" y="81" type="curve" smooth="yes"/>
      <point x="885" y="81"/>
      <point x="1048" y="245"/>
      <point x="1048" y="448" type="curve" smooth="yes"/>
      <point x="1049" y="1435" type="line" smooth="yes"/>
      <point x="1049" y="1493"/>
      <point x="1096" y="1540"/>
      <point x="1154" y="1540" type="curve" smooth="yes"/>
      <point x="1212" y="1540"/>
      <point x="1259" y="1493"/>
      <point x="1259" y="1435" type="curve" smooth="yes"/>
      <point x="1260" y="268" type="line" smooth="yes"/>
      <point x="1260" y="257"/>
      <point x="1261" y="81"/>
      <point x="1325" y="81" type="curve" smooth="yes"/>
      <point x="1382" y="81"/>
      <point x="1454" y="92"/>
      <point x="1454" y="92" type="curve" smooth="yes"/>
      <point x="1458" y="93"/>
      <point x="1463" y="93"/>
      <point x="1470" y="93" type="curve" smooth="yes"/>
      <point x="1528" y="93"/>
      <point x="1575" y="46"/>
    </contour>
  </outline>
</glyph>
<glyph name="periodcentered" format="2">
  <advance width="1050"/>
  <unicode hex="00B7"/>
  <outline>
    <contour>
      <point x="105" y="1338" type="curve" smooth="yes"/>
      <point x="105" y="1454"/>
      <point x="199" y="1548"/>
      <point x="315" y="1548" type="curve" smooth="yes"/>
      <point x="431" y="1548"/>
      <point x="525" y="1454"/>
      <point x="525" y="1338" type="curve" smooth="yes"/>
      <point x="525" y="1222"/>
      <point x="431" y="1128"/>
      <point x="315" y="1128" type="curve" smooth="yes"/>
      <point x="199" y="1128"/>
      <point x="105" y="1222"/>
    </contour>
  </outline>
</glyph>
<glyph name="ordmasculine" format="2">
  <advance width="1802"/>
  <unicode hex="00BA"/>
  <outline>
    <contour>
      <point x="105" y="504" type="curve" smooth="yes"/>
      <point x="105" y="562"/>
      <point x="152" y="609"/>
      <point x="210" y="609" type="curve" smooth="yes"/>
      <point x="1172" y="609" type="line" smooth="yes"/>
      <point x="1230" y="609"/>
      <point x="1277" y="562"/>
      <point x="1277" y="504" type="curve" smooth="yes"/>
      <point x="1277" y="446"/>
      <point x="1230" y="399"/>
      <point x="1172" y="399" type="curve" smooth="yes"/>
      <point x="210" y="399" type="line" smooth="yes"/>
      <point x="152" y="399"/>
      <point x="105" y="446"/>
    </contour>
    <contour>
      <point x="105" y="1851" type="curve" smooth="yes"/>
      <point x="105" y="2281"/>
      <point x="366" y="2625"/>
      <point x="691" y="2625" type="curve" smooth="yes"/>
      <point x="1016" y="2625"/>
      <point x="1277" y="2281"/>
      <point x="1277" y="1851" type="curve" smooth="yes"/>
      <point x="1277" y="1421"/>
      <point x="1016" y="1077"/>
      <point x="691" y="1077" type="curve" smooth="yes"/>
      <point x="366" y="1077"/>
      <point x="105" y="1421"/>
    </contour>
    <contour>
      <point x="315" y="1851" type="curve" smooth="yes"/>
      <point x="315" y="1541"/>
      <point x="489" y="1287"/>
      <point x="691" y="1287" type="curve" smooth="yes"/>
      <point x="893" y="1287"/>
      <point x="1067" y="1541"/>
      <point x="1067" y="1851" type="curve" smooth="yes"/>
      <point x="1067" y="2161"/>
      <point x="893" y="2415"/>
      <point x="691" y="2415" type="curve" smooth="yes"/>
      <point x="489" y="2415"/>
      <point x="315" y="2161"/>
    </contour>
  </outline>
</glyph>
<glyph name="multiply" format="2">
  <advance width="2040"/>
  <unicode hex="00D7"/>
  <outline>
    <contour>
      <point x="105" y="1938" type="curve" smooth="yes"/>
      <point x="105" y="1996"/>
      <point x="152" y="2043"/>
      <point x="210" y="2043" type="curve" smooth="yes"/>
      <point x="239" y="2043"/>
      <point x="265" y="2031"/>
      <point x="284" y="2012" type="curve" smooth="yes"/>
      <point x="810" y="1486" type="line"/>
      <point x="1336" y="2012" type="line" smooth="yes"/>
      <point x="1355" y="2031"/>
      <point x="1381" y="2043"/>
      <point x="1410" y="2043" type="curve" smooth="yes"/>
      <point x="1468" y="2043"/>
      <point x="1515" y="1996"/>
      <point x="1515" y="1938" type="curve" smooth="yes"/>
      <point x="1515" y="1909"/>
      <point x="1503" y="1883"/>
      <point x="1484" y="1864" type="curve" smooth="yes"/>
      <point x="959" y="1338" type="line"/>
      <point x="1484" y="812" type="line" smooth="yes"/>
      <point x="1503" y="793"/>
      <point x="1515" y="767"/>
      <point x="1515" y="738" type="curve" smooth="yes"/>
      <point x="1515" y="680"/>
      <point x="1468" y="633"/>
      <point x="1410" y="633" type="curve" smooth="yes"/>
      <point x="1381" y="633"/>
      <point x="1355" y="645"/>
      <point x="1336" y="664" type="curve" smooth="yes"/>
      <point x="810" y="1190" type="line"/>
      <point x="284" y="664" type="line" smooth="yes"/>
      <point x="265" y="645"/>
      <point x="239" y="633"/>
      <point x="210" y="633" type="curve" smooth="yes"/>
      <point x="152" y="633"/>
      <point x="105" y="680"/>
      <point x="105" y="738" type="curve" smooth="yes"/>
      <point x="105" y="767"/>
      <point x="117" y="793"/>
      <point x="136" y="812" type="curve" smooth="yes"/>
      <point x="662" y="1338" type="line"/>
      <point x="136" y="1864" type="line" smooth="yes"/>
      <point x="117" y="1883"/>
      <point x="105" y="1909"/>
    </contour>
  </outline>
</glyph>
<glyph name="divide" format="2">
  <advance width="2040"/>
  <unicode hex="00F7"/>
  <outline>
    <contour>
      <point x="105" y="1339" type="curve" smooth="yes"/>
      <point x="105" y="1397"/>
      <point x="152" y="1444"/>
      <point x="210" y="1444" type="curve" smooth="yes"/>
      <point x="1410" y="1444" type="line" smooth="yes"/>
      <point x="1468" y="1444"/>
      <point x="1515" y="1397"/>
      <point x="1515" y="1339" type="curve" smooth="yes"/>
      <point x="1515" y="1281"/>
      <point x="1468" y="1234"/>
      <point x="1410" y="1234" type="curve" smooth="yes"/>
      <point x="210" y="1234" type="line" smooth="yes"/>
      <point x="152" y="1234"/>
      <point x="105" y="1281"/>
    </contour>
    <contour>
      <point x="600" y="843" type="curve" smooth="yes"/>
      <point x="600" y="959"/>
      <point x="694" y="1053"/>
      <point x="810" y="1053" type="curve" smooth="yes"/>
      <point x="926" y="1053"/>
      <point x="1020" y="959"/>
      <point x="1020" y="843" type="curve" smooth="yes"/>
      <point x="1020" y="727"/>
      <point x="926" y="633"/>
      <point x="810" y="633" type="curve" smooth="yes"/>
      <point x="694" y="633"/>
      <point x="600" y="727"/>
    </contour>
    <contour>
      <point x="600" y="1833" type="curve" smooth="yes"/>
      <point x="600" y="1949"/>
      <point x="694" y="2043"/>
      <point x="810" y="2043" type="curve" smooth="yes"/>
      <point x="926" y="2043"/>
      <point x="1020" y="1949"/>
      <point x="1020" y="1833" type="curve" smooth="yes"/>
      <point x="1020" y="1717"/>
      <point x="926" y="1623"/>
      <point x="810" y="1623" type="curve" smooth="yes"/>
      <point x="694" y="1623"/>
      <point x="600" y="1717"/>
    </contour>
  </outline>
</glyph>
<glyph name="emdash" format="2">
  <advance width="2801"/>
  <unicode hex="2014"/>
  <outline>
    <contour>
      <point x="105" y="1338" type="curve" smooth="yes"/>
      <point x="105" y="1396"/>
      <point x="152" y="1443"/>
      <point x="210" y="1443" type="curve" smooth="yes"/>
      <point x="2171" y="1443" type="line" smooth="yes"/>
      <point x="2229" y="1443"/>
      <point x="2276" y="1396"/>
      <point x="2276" y="1338" type="curve" smooth="yes"/>
      <point x="2276" y="1280"/>
      <point x="2229" y="1233"/>
      <point x="2171" y="1233" type="curve" smooth="yes"/>
      <point x="210" y="1233" type="line" smooth="yes"/>
      <point x="152" y="1233"/>
      <point x="105" y="1280"/>
    </contour>
  </outline>
</glyph>
<glyph name="quoteleft" format="2">
  <advance width="1050"/>
  <unicode hex="2018"/>
  <outline>
    <contour>
      <point x="551" y="2520" type="curve" smooth="yes"/>
      <point x="551" y="2439"/>
      <point x="481" y="2437"/>
      <point x="387" y="2297" type="curve"/>
      <point x="468" y="2268"/>
      <point x="525" y="2191"/>
      <point x="525" y="2100" type="curve" smooth="yes"/>
      <point x="525" y="1984"/>
      <point x="431" y="1890"/>
      <point x="315" y="1890" type="curve" smooth="yes"/>
      <point x="199" y="1890"/>
      <point x="105" y="1984"/>
      <point x="105" y="2100" type="curve" smooth="yes"/>
      <point x="105" y="2329"/>
      <point x="335" y="2625"/>
      <point x="446" y="2625" type="curve" smooth="yes"/>
      <point x="504" y="2625"/>
      <point x="551" y="2578"/>
    </contour>
  </outline>
</glyph>
<glyph name="quoteright" format="2">
  <advance width="1050"/>
  <unicode hex="2019"/>
  <outline>
    <contour>
      <point x="79" y="1995" type="curve" smooth="yes"/>
      <point x="79" y="2076"/>
      <point x="149" y="2078"/>
      <point x="243" y="2218" type="curve"/>
      <point x="162" y="2247"/>
      <point x="105" y="2324"/>
      <point x="105" y="2415" type="curve" smooth="yes"/>
      <point x="105" y="2531"/>
      <point x="199" y="2625"/>
      <point x="315" y="2625" type="curve" smooth="yes"/>
      <point x="431" y="2625"/>
      <point x="525" y="2531"/>
      <point x="525" y="2415" type="curve" smooth="yes"/>
      <point x="525" y="2185"/>
      <point x="294" y="1890"/>
      <point x="184" y="1890" type="curve" smooth="yes"/>
      <point x="126" y="1890"/>
      <point x="79" y="1937"/>
    </contour>
  </outline>
</glyph>
<glyph name="quotedblleft" format="2">
  <advance width="1890"/>
  <unicode hex="201C"/>
  <outline>
    <contour>
      <point x="551" y="2520" type="curve" smooth="yes"/>
      <point x="551" y="2439"/>
      <point x="481" y="2437"/>
      <point x="387" y="2297" type="curve"/>
      <point x="468" y="2268"/>
      <point x="525" y="2191"/>
      <point x="525" y="2100" type="curve" smooth="yes"/>
      <point x="525" y="1984"/>
      <point x="431" y="1890"/>
      <point x="315" y="1890" type="curve" smooth="yes"/>
      <point x="199" y="1890"/>
      <point x="105" y="1984"/>
      <point x="105" y="2100" type="curve" smooth="yes"/>
      <point x="105" y="2329"/>
      <point x="335" y="2625"/>
      <point x="446" y="2625" type="curve" smooth="yes"/>
      <point x="504" y="2625"/>
      <point x="551" y="2578"/>
    </contour>
    <contour>
      <point x="1391" y="2520" type="curve" smooth="yes"/>
      <point x="1391" y="2439"/>
      <point x="1321" y="2437"/>
      <point x="1227" y="2297" type="curve"/>
      <point x="1308" y="2268"/>
      <point x="1365" y="2191"/>
      <point x="1365" y="2100" type="curve" smooth="yes"/>
      <point x="1365" y="1984"/>
      <point x="1271" y="1890"/>
      <point x="1155" y="1890" type="curve" smooth="yes"/>
      <point x="1039" y="1890"/>
      <point x="945" y="1984"/>
      <point x="945" y="2100" type="curve" smooth="yes"/>
      <point x="945" y="2329"/>
      <point x="1175" y="2625"/>
      <point x="1286" y="2625" type="curve" smooth="yes"/>
      <point x="1344" y="2625"/>
      <point x="1391" y="2578"/>
    </contour>
  </outline>
</glyph>
<glyph name="quotedblright" format="2">
  <advance width="1890"/>
  <unicode hex="201D"/>
  <outline>
    <contour>
      <point x="78" y="1995" type="curve" smooth="yes"/>
      <point x="78" y="2076"/>
      <point x="148" y="2078"/>
      <point x="242" y="2218" type="curve"/>
      <point x="161" y="2247"/>
      <point x="104" y="2324"/>
      <point x="104" y="2415" type="curve" smooth="yes"/>
      <point x="104" y="2531"/>
      <point x="198" y="2625"/>
      <point x="314" y="2625" type="curve" smooth="yes"/>
      <point x="430" y="2625"/>
      <point x="524" y="2531"/>
      <point x="524" y="2415" type="curve" smooth="yes"/>
      <point x="524" y="2185"/>
      <point x="293" y="1890"/>
      <point x="183" y="1890" type="curve" smooth="yes"/>
      <point x="125" y="1890"/>
      <point x="78" y="1937"/>
    </contour>
    <contour>
      <point x="918" y="1995" type="curve" smooth="yes"/>
      <point x="918" y="2076"/>
      <point x="988" y="2078"/>
      <point x="1082" y="2218" type="curve"/>
      <point x="1001" y="2247"/>
      <point x="944" y="2324"/>
      <point x="944" y="2415" type="curve" smooth="yes"/>
      <point x="944" y="2531"/>
      <point x="1038" y="2625"/>
      <point x="1154" y="2625" type="curve" smooth="yes"/>
      <point x="1270" y="2625"/>
      <point x="1364" y="2531"/>
      <point x="1364" y="2415" type="curve" smooth="yes"/>
      <point x="1364" y="2185"/>
      <point x="1133" y="1890"/>
      <point x="1023" y="1890" type="curve" smooth="yes"/>
      <point x="965" y="1890"/>
      <point x="918" y="1937"/>
    </contour>
  </outline>
</glyph>
<glyph name="quotedblbase" format="2">
  <advance width="1890"/>
  <unicode hex="201E"/>
  <outline>
    <contour>
      <point x="79" y="-315" type="curve" smooth="yes"/>
      <point x="79" y="-234"/>
      <point x="149" y="-232"/>
      <point x="243" y="-92" type="curve"/>
      <point x="162" y="-63"/>
      <point x="105" y="14"/>
      <point x="105" y="105" type="curve" smooth="yes"/>
      <point x="105" y="221"/>
      <point x="199" y="315"/>
      <point x="315" y="315" type="curve" smooth="yes"/>
      <point x="431" y="315"/>
      <point x="525" y="221"/>
      <point x="525" y="105" type="curve" smooth="yes"/>
      <point x="525" y="-125"/>
      <point x="294" y="-420"/>
      <point x="184" y="-420" type="curve" smooth="yes"/>
      <point x="126" y="-420"/>
      <point x="79" y="-373"/>
    </contour>
    <contour>
      <point x="919" y="-315" type="curve" smooth="yes"/>
      <point x="919" y="-234"/>
      <point x="989" y="-232"/>
      <point x="1083" y="-92" type="curve"/>
      <point x="1002" y="-63"/>
      <point x="945" y="14"/>
      <point x="945" y="105" type="curve" smooth="yes"/>
      <point x="945" y="221"/>
      <point x="1039" y="315"/>
      <point x="1155" y="315" type="curve" smooth="yes"/>
      <point x="1271" y="315"/>
      <point x="1365" y="221"/>
      <point x="1365" y="105" type="curve" smooth="yes"/>
      <point x="1365" y="-125"/>
      <point x="1134" y="-420"/>
      <point x="1024" y="-420" type="curve" smooth="yes"/>
      <point x="966" y="-420"/>
      <point x="919" y="-373"/>
    </contour>
  </outline>
</glyph>
<glyph name="bullet" format="2">
  <advance width="1156"/>
  <unicode hex="2022"/>
  <outline>
    <contour>
      <point x="105" y="1338" type="curve" smooth="yes"/>
      <point x="105" y="1484"/>
      <point x="240" y="1601"/>
      <point x="368" y="1601" type="curve" smooth="yes"/>
      <point x="513" y="1601"/>
      <point x="631" y="1483"/>
      <point x="631" y="1338" type="curve" smooth="yes"/>
      <point x="631" y="1193"/>
      <point x="504" y="1075"/>
      <point x="368" y="1075" type="curve" smooth="yes"/>
      <point x="232" y="1075"/>
      <point x="105" y="1193"/>
    </contour>
    <contour>
      <point x="368" y="1391" type="curve" smooth="yes"/>
      <point x="353" y="1391"/>
      <point x="315" y="1364"/>
      <point x="315" y="1338" type="curve" smooth="yes"/>
      <point x="315" y="1310"/>
      <point x="347" y="1285"/>
      <point x="368" y="1285" type="curve" smooth="yes"/>
      <point x="389" y="1285"/>
      <point x="421" y="1310"/>
      <point x="421" y="1338" type="curve" smooth="yes"/>
      <point x="421" y="1367"/>
      <point x="397" y="1391"/>
    </contour>
  </outline>
</glyph>
<glyph name="ellipsis" format="2">
  <advance width="2730"/>
  <unicode hex="2026"/>
  <outline>
    <contour>
      <point x="105" y="105" type="curve" smooth="yes"/>
      <point x="105" y="221"/>
      <point x="199" y="315"/>
      <point x="315" y="315" type="curve" smooth="yes"/>
      <point x="431" y="315"/>
      <point x="525" y="221"/>
      <point x="525" y="105" type="curve" smooth="yes"/>
      <point x="525" y="-11"/>
      <point x="431" y="-105"/>
      <point x="315" y="-105" type="curve" smooth="yes"/>
      <point x="199" y="-105"/>
      <point x="105" y="-11"/>
    </contour>
    <contour>
      <point x="945" y="105" type="curve" smooth="yes"/>
      <point x="945" y="221"/>
      <point x="1039" y="315"/>
      <point x="1155" y="315" type="curve" smooth="yes"/>
      <point x="1271" y="315"/>
      <point x="1365" y="221"/>
      <point x="1365" y="105" type="curve" smooth="yes"/>
      <point x="1365" y="-11"/>
      <point x="1271" y="-105"/>
      <point x="1155" y="-105" type="curve" smooth="yes"/>
      <point x="1039" y="-105"/>
      <point x="945" y="-11"/>
    </contour>
    <contour>
      <point x="1785" y="105" type="curve" smooth="yes"/>
      <point x="1785" y="221"/>
      <point x="1879" y="315"/>
      <point x="1995" y="315" type="curve" smooth="yes"/>
      <point x="2111" y="315"/>
      <point x="2205" y="221"/>
      <point x="2205" y="105" type="curve" smooth="yes"/>
      <point x="2205" y="-11"/>
      <point x="2111" y="-105"/>
      <point x="1995" y="-105" type="curve" smooth="yes"/>
      <point x="1879" y="-105"/>
      <point x="1785" y="-11"/>
    </contour>
  </outline>
</glyph>
